<svg width="1096" height="581" viewBox="0 0 1096 581" fill="none" xmlns="http://www.w3.org/2000/svg">
<path opacity="0.5" d="M485.808 285.184C487.27 282.854 488.026 280.211 487.999 277.525C487.999 270.607 483.304 265 477.514 265C471.723 265 467.001 270.624 467.001 277.542C466.974 280.227 467.73 282.87 469.192 285.2C467.756 287.538 467.001 290.174 467.001 292.854C467.001 295.535 467.756 298.171 469.192 300.508C467.756 302.846 467.001 305.482 467.001 308.162C467.001 310.843 467.756 313.479 469.192 315.816C467.728 318.145 466.971 320.789 467.001 323.475C467.001 330.385 471.696 336 477.477 336C483.258 336 487.963 330.385 487.963 323.475C487.992 320.789 487.236 318.145 485.772 315.816C487.208 313.479 487.962 310.843 487.962 308.162C487.962 305.482 487.208 302.846 485.772 300.508C487.208 298.171 487.962 295.535 487.962 292.854C487.962 290.174 487.208 287.538 485.772 285.2L485.808 285.184Z" fill="#3F3D56"/>
<path opacity="0.4" d="M436.82 111.588C435.261 109.611 433.844 107.526 432.58 105.348L462.48 100.438L430.14 100.678C427.044 93.9242 425.358 86.6094 425.186 79.1814C425.014 71.7534 426.36 64.3685 429.14 57.4783L472.53 79.9883L432.53 50.5683C436.249 44.0308 441.28 38.3333 447.307 33.8338C453.334 29.3344 460.226 26.1304 467.551 24.4233C474.876 22.7161 482.475 22.5427 489.87 23.9139C497.265 25.2851 504.297 28.1713 510.522 32.3911C516.748 36.6109 522.034 42.073 526.047 48.434C530.06 54.7951 532.714 61.9176 533.842 69.3537C534.97 76.7899 534.547 84.3789 532.6 91.6438C530.653 98.9087 527.225 105.692 522.53 111.568C524.955 114.648 527.04 117.981 528.75 121.508L489.92 141.728L531.31 127.838C534.219 136.43 534.939 145.612 533.404 154.552C531.869 163.493 528.128 171.909 522.52 179.038C528.846 187.08 532.782 196.74 533.877 206.913C534.972 217.086 533.182 227.362 528.712 236.566C524.242 245.769 517.272 253.53 508.6 258.959C499.927 264.388 489.902 267.267 479.67 267.267C469.438 267.267 459.413 264.388 450.74 258.959C442.068 253.53 435.098 245.769 430.628 236.566C426.158 227.362 424.368 217.086 425.463 206.913C426.558 196.74 430.494 187.08 436.82 179.038C429.26 169.428 425.149 157.556 425.149 145.328C425.149 133.101 429.26 121.228 436.82 111.618V111.588Z" fill="#121F2D"/>
<path opacity="0.1" d="M534.19 145.298C534.21 157.529 530.098 169.408 522.52 179.008C528.846 187.05 532.782 196.71 533.877 206.883C534.972 217.056 533.182 227.332 528.712 236.536C524.242 245.739 517.272 253.5 508.6 258.929C499.927 264.358 489.902 267.237 479.67 267.237C469.438 267.237 459.413 264.358 450.74 258.929C442.068 253.5 435.098 245.739 430.628 236.536C426.158 227.332 424.368 217.056 425.463 206.883C426.558 196.71 430.494 187.05 436.82 179.008C429.51 169.728 534.19 139.178 534.19 145.298Z" fill="black"/>
<path opacity="0.4" d="M619 292.988C620.183 290.919 620.794 288.572 620.77 286.188C620.77 280.038 616.96 275.048 612.27 275.048C607.58 275.048 603.76 280.048 603.76 286.188C603.734 288.573 604.349 290.922 605.54 292.988C604.373 295.067 603.76 297.41 603.76 299.793C603.76 302.177 604.373 304.52 605.54 306.598C604.373 308.677 603.76 311.02 603.76 313.403C603.76 315.787 604.373 318.13 605.54 320.208C604.349 322.275 603.734 324.623 603.76 327.008C603.76 333.158 607.57 338.148 612.27 338.148C616.97 338.148 620.77 333.148 620.77 327.008C620.794 324.625 620.183 322.278 619 320.208C620.158 318.127 620.765 315.785 620.765 313.403C620.765 311.022 620.158 308.68 619 306.598C620.158 304.517 620.765 302.175 620.765 299.793C620.765 297.412 620.158 295.07 619 292.988Z" fill="#3F3D56"/>
<path opacity="0.4" d="M580.44 160.838C579.272 159.363 578.213 157.806 577.27 156.178L599.62 152.508L575.45 152.688C573.131 147.642 571.866 142.176 571.732 136.624C571.598 131.072 572.598 125.551 574.67 120.398L607.1 137.228L577.19 115.228C579.987 110.377 583.754 106.153 588.257 102.822C592.759 99.4915 597.899 97.1244 603.357 95.8688C608.815 94.6132 614.473 94.4961 619.978 95.5248C625.483 96.5535 630.717 98.7059 635.353 101.848C639.989 104.989 643.928 109.053 646.924 113.785C649.919 118.517 651.907 123.815 652.764 129.35C653.62 134.885 653.327 140.536 651.901 145.952C650.476 151.368 647.95 156.432 644.48 160.828C646.29 163.133 647.849 165.623 649.13 168.258L620.13 183.328L651.06 172.948C653.232 179.369 653.769 186.23 652.622 192.911C651.475 199.591 648.68 205.88 644.49 211.208C649.224 217.216 652.17 224.435 652.993 232.039C653.816 239.643 652.482 247.325 649.144 254.206C645.805 261.087 640.596 266.89 634.114 270.95C627.632 275.009 620.138 277.162 612.49 277.162C604.842 277.162 597.348 275.009 590.865 270.95C584.383 266.89 579.175 261.087 575.836 254.206C572.498 247.325 571.163 239.643 571.986 232.039C572.809 224.435 575.756 217.216 580.49 211.208C574.84 204.027 571.769 195.155 571.769 186.018C571.769 176.881 574.84 168.009 580.49 160.828L580.44 160.838Z" fill="#121F2D"/>
<path opacity="0.1" d="M653.2 186.028C653.213 195.167 650.141 204.043 644.48 211.218C649.214 217.226 652.16 224.445 652.983 232.049C653.806 239.653 652.472 247.335 649.133 254.216C645.795 261.097 640.586 266.9 634.104 270.96C627.622 275.019 620.128 277.172 612.48 277.172C604.831 277.172 597.338 275.019 590.855 270.96C584.373 266.9 579.165 261.097 575.826 254.216C572.488 247.335 571.153 239.653 571.976 232.049C572.799 224.445 575.746 217.226 580.48 211.218C575 204.288 653.2 181.458 653.2 186.028Z" fill="black"/>
<path opacity="0.5" d="M1029.4 269.646C1027.8 266.265 1026.97 262.429 1027 258.533C1027 248.494 1032.15 240.358 1038.51 240.358C1044.86 240.358 1050 248.494 1050 258.533C1050.03 262.429 1049.2 266.265 1047.6 269.646C1049.17 273.038 1050 276.862 1050 280.752C1050 284.642 1049.17 288.466 1047.6 291.858C1049.17 295.251 1050 299.075 1050 302.965C1050 306.854 1049.17 310.679 1047.6 314.071C1049.2 317.451 1050.03 321.287 1050 325.183C1050 335.21 1044.85 343.358 1038.51 343.358C1032.16 343.358 1027 335.21 1027 325.183C1026.97 321.287 1027.8 317.451 1029.4 314.071C1027.83 310.679 1027 306.854 1027 302.965C1027 299.075 1027.83 295.251 1029.4 291.858C1027.83 288.466 1027 284.642 1027 280.752C1027 276.862 1027.83 273.038 1029.4 269.646Z" fill="#3F3D56"/>
<path opacity="0.4" d="M1081.64 88.5883C1083.2 86.6115 1084.61 84.5262 1085.88 82.3483L1055.98 77.4383L1088.32 77.6783C1091.41 70.9242 1093.1 63.6094 1093.27 56.1814C1093.44 48.7534 1092.1 41.3685 1089.32 34.4783L1045.93 56.9883L1085.93 27.5683C1082.21 21.0308 1077.18 15.3333 1071.15 10.8338C1065.12 6.33443 1058.23 3.13044 1050.91 1.42327C1043.58 -0.28389 1035.98 -0.457313 1028.59 0.913906C1021.19 2.28512 1014.16 5.17134 1007.94 9.39111C1001.71 13.6109 996.424 19.073 992.411 25.434C988.398 31.7951 985.744 38.9176 984.616 46.3537C983.489 53.7899 983.911 61.3789 985.858 68.6438C987.805 75.9087 991.233 82.6923 995.928 88.5683C993.504 91.6485 991.418 94.9811 989.708 98.5083L1028.54 118.728L987.148 104.838C984.239 113.43 983.519 122.612 985.054 131.552C986.589 140.493 990.33 148.909 995.938 156.038C989.612 164.08 985.676 173.74 984.581 183.913C983.486 194.086 985.276 204.362 989.746 213.566C994.216 222.769 1001.19 230.53 1009.86 235.959C1018.53 241.388 1028.56 244.267 1038.79 244.267C1049.02 244.267 1059.05 241.388 1067.72 235.959C1076.39 230.53 1083.36 222.769 1087.83 213.566C1092.3 204.362 1094.09 194.086 1093 183.913C1091.9 173.74 1087.96 164.08 1081.64 156.038C1089.2 146.428 1093.31 134.556 1093.31 122.328C1093.31 110.101 1089.2 98.2283 1081.64 88.6183V88.5883Z" fill="#121F2D"/>
<path opacity="0.1" d="M983 122.804C982.98 135.034 987.093 146.913 994.67 156.514C988.344 164.555 984.408 174.215 983.313 184.388C982.218 194.561 984.008 204.837 988.478 214.041C992.948 223.245 999.918 231.005 1008.59 236.434C1017.26 241.863 1027.29 244.743 1037.52 244.743C1047.75 244.743 1057.78 241.863 1066.45 236.434C1075.12 231.005 1082.09 223.245 1086.56 214.041C1091.03 204.837 1092.82 194.561 1091.73 184.388C1090.63 174.215 1086.7 164.555 1080.37 156.514C1087.68 147.234 983 116.684 983 122.804Z" fill="black"/>
<path opacity="0.5" d="M921.978 286.461C920.656 283.87 919.974 280.931 920.001 277.947C920.001 270.247 924.256 264 929.494 264C934.733 264 938.999 270.26 938.999 277.947C939.028 280.933 938.341 283.873 937.011 286.461C938.314 289.062 938.999 291.996 938.999 294.98C938.999 297.964 938.314 300.898 937.011 303.5C938.314 306.102 938.999 309.036 938.999 312.02C938.999 315.004 938.314 317.938 937.011 320.539C938.341 323.127 939.028 326.067 938.999 329.053C938.999 336.753 934.744 343 929.494 343C924.245 343 920.001 336.74 920.001 329.053C919.974 326.069 920.656 323.13 921.978 320.539C920.685 317.934 920.006 315.001 920.006 312.02C920.006 309.038 920.685 306.106 921.978 303.5C920.685 300.894 920.006 297.962 920.006 294.98C920.006 291.999 920.685 289.066 921.978 286.461Z" fill="#3F3D56"/>
<path opacity="0.4" d="M960.803 152.007C961.971 150.532 963.03 148.975 963.973 147.347L941.623 143.677L965.793 143.857C968.112 138.81 969.377 133.344 969.511 127.792C969.645 122.24 968.645 116.719 966.573 111.567L934.143 128.397L964.053 106.397C961.256 101.545 957.489 97.3219 952.986 93.991C948.484 90.6601 943.344 88.2929 937.886 87.0373C932.428 85.7817 926.77 85.6646 921.265 86.6933C915.76 87.722 910.526 89.8744 905.89 93.0161C901.254 96.1579 897.315 100.222 894.319 104.953C891.324 109.685 889.336 114.984 888.479 120.519C887.623 126.053 887.916 131.705 889.342 137.121C890.767 142.537 893.293 147.601 896.763 151.997C894.953 154.301 893.395 156.792 892.113 159.427L921.113 174.497L890.243 164.127C888.071 170.548 887.534 177.409 888.681 184.089C889.828 190.77 892.623 197.059 896.813 202.387C892.08 208.394 889.133 215.613 888.31 223.217C887.487 230.821 888.821 238.503 892.16 245.385C895.498 252.266 900.707 258.068 907.189 262.128C913.671 266.188 921.165 268.341 928.813 268.341C936.462 268.341 943.956 266.188 950.438 262.128C956.92 258.068 962.128 252.266 965.467 245.385C968.805 238.503 970.14 230.821 969.317 223.217C968.494 215.613 965.547 208.394 960.813 202.387C966.463 195.206 969.534 186.334 969.534 177.197C969.534 168.06 966.463 159.188 960.813 152.007H960.803Z" fill="#121F2D"/>
<path opacity="0.1" d="M888.8 178.028C888.786 187.167 891.859 196.043 897.52 203.218C892.786 209.226 889.84 216.445 889.017 224.049C888.194 231.653 889.528 239.335 892.866 246.216C896.205 253.097 901.413 258.9 907.896 262.96C914.378 267.019 921.872 269.172 929.52 269.172C937.168 269.172 944.662 267.019 951.145 262.96C957.627 258.9 962.835 253.097 966.174 246.216C969.512 239.335 970.846 231.653 970.024 224.049C969.201 216.445 966.254 209.226 961.52 203.218C967 196.288 888.8 173.458 888.8 178.028Z" fill="black"/>
<path opacity="0.4" d="M178.23 287.186C179.413 284.858 180.023 282.217 179.999 279.535C179.999 272.615 176.202 267 171.505 267C166.808 267 163.001 272.626 163.001 279.535C162.98 282.218 163.594 284.859 164.779 287.186C163.613 289.524 163.001 292.161 163.001 294.843C163.001 297.525 163.613 300.162 164.779 302.5C163.613 304.838 163.001 307.475 163.001 310.157C163.001 312.839 163.613 315.476 164.779 317.814C163.594 320.141 162.98 322.782 163.001 325.465C163.001 332.385 166.808 338 171.505 338C176.202 338 179.999 332.374 179.999 325.465C180.023 322.783 179.413 320.142 178.23 317.814C179.387 315.472 179.994 312.837 179.994 310.157C179.994 307.477 179.387 304.842 178.23 302.5C179.387 300.158 179.994 297.523 179.994 294.843C179.994 292.163 179.387 289.528 178.23 287.186V287.186Z" fill="#3F3D56"/>
<path opacity="0.4" d="M139.6 151.838C138.436 150.361 137.376 148.804 136.43 147.178L158.78 143.508L134.61 143.688C132.291 138.642 131.026 133.176 130.892 127.624C130.758 122.072 131.758 116.551 133.83 111.398L166.26 128.228L136.35 106.228C139.147 101.377 142.914 97.1533 147.417 93.8224C151.919 90.4915 157.059 88.1244 162.517 86.8688C167.975 85.6132 173.633 85.4961 179.138 86.5248C184.643 87.5535 189.877 89.7059 194.513 92.8476C199.149 95.9894 203.088 100.053 206.084 104.785C209.079 109.517 211.067 114.815 211.924 120.35C212.78 125.885 212.487 131.536 211.061 136.952C209.636 142.368 207.11 147.432 203.64 151.828C205.457 154.128 207.016 156.619 208.29 159.258L179.29 174.328L210.22 163.948C212.392 170.369 212.929 177.23 211.782 183.911C210.635 190.591 207.84 196.88 203.65 202.208C208.384 208.216 211.33 215.435 212.153 223.039C212.976 230.643 211.642 238.325 208.304 245.206C204.965 252.087 199.757 257.89 193.274 261.95C186.792 266.009 179.298 268.162 171.65 268.162C164.002 268.162 156.508 266.009 150.025 261.95C143.543 257.89 138.335 252.087 134.996 245.206C131.658 238.325 130.324 230.643 131.146 223.039C131.969 215.435 134.916 208.216 139.65 202.208C134 195.027 130.929 186.155 130.929 177.018C130.929 167.881 134 159.009 139.65 151.828L139.6 151.838Z" fill="#121F2D"/>
<path opacity="0.05" d="M212.36 178.028C212.373 187.167 209.301 196.043 203.64 203.218C208.374 209.226 211.32 216.445 212.143 224.049C212.966 231.653 211.632 239.335 208.293 246.216C204.955 253.097 199.746 258.9 193.264 262.96C186.782 267.019 179.288 269.172 171.64 269.172C163.991 269.172 156.498 267.019 150.015 262.96C143.533 258.9 138.325 253.097 134.986 246.216C131.648 239.335 130.313 231.653 131.136 224.049C131.959 216.445 134.906 209.226 139.64 203.218C134.14 196.288 212.36 173.458 212.36 178.028Z" fill="black"/>
<path opacity="0.4" d="M548 507.348C850.652 507.348 1096 503.382 1096 498.488C1096 493.595 850.652 489.628 548 489.628C245.348 489.628 0 493.595 0 498.488C0 503.382 245.348 507.348 548 507.348Z" fill="#121F2D"/>
<path opacity="0.4" d="M548 580.098C850.652 580.098 1096 576.132 1096 571.238C1096 566.345 850.652 562.378 548 562.378C245.348 562.378 0 566.345 0 571.238C0 576.132 245.348 580.098 548 580.098Z" fill="#121F2D"/>
<path opacity="0.4" d="M548 355.518C850.652 355.518 1096 351.552 1096 346.658C1096 341.765 850.652 337.798 548 337.798C245.348 337.798 0 341.765 0 346.658C0 351.552 245.348 355.518 548 355.518Z" fill="#121F2D"/>
<path opacity="0.4" d="M548 431.428C850.652 431.428 1096 427.462 1096 422.568C1096 417.675 850.652 413.708 548 413.708C245.348 413.708 0 417.675 0 422.568C0 427.462 245.348 431.428 548 431.428Z" fill="#121F2D"/>
<path opacity="0.1" d="M808.79 115.728C805.22 115.054 801.53 115.458 798.19 116.888C796.185 117.782 794.015 118.243 791.82 118.243C789.625 118.243 787.455 117.782 785.45 116.888C783.078 115.847 780.508 115.334 777.918 115.384C775.328 115.434 772.78 116.046 770.45 117.178C769.123 117.884 767.643 118.254 766.14 118.258C760.06 118.258 755.01 112.138 753.96 104.068C755.156 103.176 756.174 102.067 756.96 100.798C760.52 95.0583 766.03 91.3683 772.23 91.3683C778.43 91.3683 783.87 95.0083 787.43 100.688C788.49 102.404 789.977 103.817 791.745 104.788C793.513 105.758 795.503 106.255 797.52 106.228H797.68C802.57 106.178 806.76 110.058 808.79 115.728Z" fill="#47BAFF"/>
<path opacity="0.4" d="M827.3 90.3783L817.48 96.5983L823.48 85.7583C821.79 84.4133 819.7 83.6707 817.54 83.6483H817.38C816.71 83.6574 816.041 83.6072 815.38 83.4983L812 85.6083L813.43 83.0083C811.067 82.1905 809.025 80.6426 807.6 78.5883L801.6 82.3683L805.36 75.5283C801.88 71.3483 797.18 68.7883 792.02 68.7883C785.82 68.7883 780.31 72.4683 776.74 78.2083C775.688 79.9246 774.2 81.332 772.428 82.2874C770.656 83.2428 768.662 83.7124 766.65 83.6483H766.32C759.48 83.6483 753.94 91.3983 753.94 100.958C753.94 110.518 759.48 118.278 766.32 118.278C767.822 118.268 769.3 117.898 770.63 117.198C772.959 116.063 775.507 115.449 778.097 115.397C780.687 115.345 783.258 115.857 785.63 116.898C787.633 117.798 789.804 118.263 792 118.263C794.196 118.263 796.367 117.798 798.37 116.898C800.723 115.881 803.268 115.38 805.831 115.43C808.395 115.48 810.918 116.08 813.23 117.188C814.545 117.877 816.006 118.24 817.49 118.248C824.33 118.248 829.87 110.488 829.87 100.928C829.911 97.2518 829.027 93.6239 827.3 90.3783V90.3783Z" fill="#121F2D"/>
<path opacity="0.1" d="M391.26 110.318C388.758 109.846 386.172 110.128 383.83 111.128C382.428 111.755 380.91 112.078 379.375 112.078C377.84 112.078 376.322 111.755 374.92 111.128C373.261 110.4 371.463 110.041 369.652 110.077C367.84 110.114 366.058 110.544 364.43 111.338C363.503 111.822 362.475 112.079 361.43 112.088C357.18 112.088 353.64 107.808 352.9 102.158C353.748 101.536 354.471 100.759 355.03 99.8683C357.52 95.8683 361.38 93.2683 365.72 93.2683C370.06 93.2683 373.87 95.8183 376.36 99.7883C377.104 100.99 378.145 101.979 379.384 102.659C380.623 103.339 382.017 103.687 383.43 103.668H383.54C386.9 103.648 389.83 106.368 391.26 110.318Z" fill="#47BAFF"/>
<path opacity="0.5" d="M404.21 92.5883L397.34 96.9483L401.51 89.3583C400.331 88.4147 398.87 87.8936 397.36 87.8783H397.24C396.764 87.8868 396.289 87.85 395.82 87.7683L393.49 89.2483L394.49 87.4283C392.838 86.8538 391.411 85.7724 390.41 84.3383L386.24 86.9783L388.88 82.1983C387.771 80.7667 386.358 79.5995 384.743 78.7815C383.127 77.9634 381.35 77.5148 379.54 77.4683C375.2 77.4683 371.34 80.0483 368.85 84.0683C368.112 85.2702 367.069 86.2557 365.828 86.9248C364.586 87.5939 363.19 87.9228 361.78 87.8783H361.55C356.76 87.8783 352.88 93.2983 352.88 99.9983C352.88 106.698 356.76 112.118 361.55 112.118C362.597 112.11 363.626 111.849 364.55 111.358C366.178 110.568 367.959 110.141 369.768 110.107C371.577 110.072 373.373 110.431 375.03 111.158C376.44 111.802 377.97 112.142 379.52 112.158C381.046 112.156 382.555 111.836 383.95 111.218C385.597 110.506 387.378 110.155 389.172 110.189C390.966 110.224 392.732 110.643 394.35 111.418C395.276 111.903 396.305 112.157 397.35 112.158C402.13 112.158 406.01 106.728 406.01 100.038C406.05 97.4426 405.431 94.8792 404.21 92.5883V92.5883Z" fill="#121F2D"/>
<path opacity="0.1" d="M269.59 188.728C272.089 188.256 274.672 188.538 277.01 189.538C278.413 190.165 279.933 190.489 281.47 190.489C283.007 190.489 284.527 190.165 285.93 189.538C287.589 188.811 289.386 188.452 291.197 188.486C293.008 188.521 294.79 188.948 296.42 189.738C297.344 190.231 298.373 190.491 299.42 190.498C303.67 190.498 307.21 186.208 307.94 180.558C307.092 179.939 306.373 179.161 305.82 178.268C303.32 174.268 299.46 171.678 295.13 171.678C290.8 171.678 286.98 174.218 284.48 178.198C283.737 179.399 282.697 180.387 281.46 181.066C280.223 181.746 278.831 182.095 277.42 182.078H277.31C273.94 182.098 271 184.808 269.59 188.728Z" fill="#47BAFF"/>
<path opacity="0.4" d="M256.63 171.028L263.51 175.388L259.33 167.808C260.512 166.862 261.976 166.337 263.49 166.318H263.6C264.079 166.325 264.557 166.292 265.03 166.218L267.36 167.688L266.36 165.878C268.008 165.303 269.432 164.221 270.43 162.788L274.6 165.428L272 160.638C273.109 159.208 274.523 158.042 276.138 157.226C277.754 156.41 279.53 155.963 281.34 155.918C285.67 155.918 289.54 158.498 292.03 162.518C292.767 163.719 293.808 164.703 295.048 165.372C296.288 166.041 297.682 166.371 299.09 166.328H299.33C304.11 166.328 307.99 171.758 307.99 178.448C307.99 185.138 304.11 190.568 299.33 190.568C298.284 190.564 297.255 190.306 296.33 189.818C294.701 189.024 292.92 188.594 291.108 188.557C289.297 188.521 287.499 188.88 285.84 189.608C284.435 190.257 282.907 190.598 281.36 190.608C279.831 190.607 278.319 190.287 276.92 189.668C275.275 188.956 273.496 188.605 271.703 188.639C269.911 188.674 268.146 189.093 266.53 189.868C265.604 190.353 264.575 190.607 263.53 190.608C258.74 190.608 254.86 185.188 254.86 178.488C254.813 175.892 255.422 173.327 256.63 171.028V171.028Z" fill="#121F2D"/>
<path d="M664.31 495.618C666.92 490.778 663.96 484.858 660.56 480.548C657.16 476.238 653 471.748 653.09 466.258C653.22 458.368 661.6 453.698 668.29 449.518C673.258 446.403 677.84 442.711 681.94 438.518C683.655 436.904 685.073 435.002 686.13 432.898C687.52 429.818 687.48 426.298 687.39 422.898C687.103 411.638 686.547 400.385 685.72 389.138" stroke="#3F3D56" stroke-width="4" stroke-miterlimit="10"/>
<path d="M698.45 388.578C698.353 386.516 697.74 384.51 696.665 382.747C695.59 380.984 694.089 379.519 692.3 378.488L689.54 383.938L689.63 377.338C687.127 376.601 684.454 376.679 681.998 377.559C679.542 378.44 677.429 380.079 675.965 382.238C674.5 384.398 673.76 386.967 673.851 389.574C673.941 392.182 674.858 394.694 676.469 396.746C678.08 398.799 680.301 400.287 682.812 400.995C685.324 401.703 687.995 401.595 690.441 400.686C692.887 399.777 694.981 398.115 696.42 395.938C697.86 393.762 698.571 391.185 698.45 388.578V388.578Z" fill="#9E7837"/>
<path d="M676.49 471.898C675.252 474.305 673.255 476.237 670.808 477.394C668.361 478.552 665.601 478.871 662.955 478.301C660.308 477.732 657.924 476.306 656.169 474.245C654.415 472.184 653.389 469.602 653.25 466.898C653.158 465.194 653.431 463.489 654.05 461.898C654.957 459.578 656.545 457.587 658.606 456.189C660.667 454.79 663.104 454.048 665.595 454.063C668.086 454.077 670.514 454.845 672.559 456.267C674.604 457.69 676.17 459.698 677.05 462.028L669.36 468.288L677.82 466.288C677.83 468.238 677.374 470.161 676.49 471.898V471.898Z" fill="#9E7837"/>
<path d="M670.41 447.998C667.389 448.141 664.421 447.166 662.073 445.26C659.725 443.354 658.16 440.65 657.678 437.665C657.196 434.679 657.83 431.62 659.459 429.072C661.088 426.524 663.598 424.664 666.51 423.848L666.44 428.918L669.23 423.398C672.492 423.246 675.681 424.396 678.096 426.594C680.51 428.793 681.952 431.861 682.105 435.123C682.257 438.386 681.108 441.575 678.909 443.989C676.71 446.404 673.642 447.846 670.38 447.998H670.41Z" fill="#9E7837"/>
<path d="M700.3 428.108C698.391 428.207 696.486 427.86 694.735 427.094C692.984 426.329 691.435 425.166 690.211 423.699C688.987 422.231 688.121 420.498 687.683 418.638C687.245 416.778 687.245 414.841 687.685 412.981C688.125 411.121 688.992 409.39 690.217 407.923C691.443 406.456 692.992 405.295 694.744 404.531C696.496 403.767 698.402 403.421 700.31 403.522C702.219 403.622 704.078 404.165 705.74 405.108L703.57 411.108L708 406.728C709.792 408.371 711.057 410.507 711.636 412.868C712.216 415.229 712.083 417.708 711.255 419.994C710.427 422.28 708.942 424.269 706.985 425.711C705.028 427.153 702.688 427.984 700.26 428.098L700.3 428.108Z" fill="#9E7837"/>
<path opacity="0.1" d="M696.79 391.858C693.95 392.168 691.19 393.048 688.33 393.228C685.47 393.408 682.33 392.718 680.55 390.508C679.713 389.221 678.952 387.885 678.27 386.508C677.493 385.295 676.428 384.292 675.17 383.588C674.374 385.148 673.919 386.861 673.838 388.61C673.756 390.36 674.048 392.107 674.696 393.735C675.343 395.362 676.33 396.833 677.591 398.049C678.853 399.264 680.359 400.197 682.009 400.784C683.659 401.371 685.416 401.598 687.162 401.452C688.907 401.306 690.601 400.789 692.131 399.936C693.661 399.082 694.991 397.912 696.032 396.504C697.074 395.095 697.802 393.481 698.17 391.768C697.72 391.778 697.25 391.808 696.79 391.858Z" fill="black"/>
<path opacity="0.1" d="M700.3 428.108C698.177 428.209 696.065 427.758 694.168 426.8C692.272 425.842 690.655 424.41 689.476 422.642C688.297 420.874 687.596 418.831 687.441 416.712C687.285 414.593 687.681 412.469 688.59 410.548C689.566 411.208 690.405 412.05 691.06 413.028C691.795 414.43 692.61 415.789 693.5 417.098C695.42 419.348 698.7 420.098 701.67 419.948C704.64 419.798 707.51 418.948 710.47 418.698C710.88 418.698 711.29 418.638 711.71 418.628C711.098 421.234 709.652 423.569 707.593 425.28C705.534 426.991 702.974 427.984 700.3 428.108V428.108Z" fill="black"/>
<path opacity="0.1" d="M670.41 447.998C668.309 448.097 666.219 447.655 664.337 446.716C662.455 445.777 660.846 444.372 659.661 442.634C658.477 440.896 657.758 438.884 657.572 436.789C657.386 434.695 657.74 432.587 658.6 430.668C659.615 431.336 660.499 432.183 661.21 433.168C662.016 434.604 662.908 435.99 663.88 437.318C665.95 439.628 669.45 440.448 672.59 440.318C675.73 440.188 678.59 439.508 681.59 439.318C680.843 441.738 679.37 443.869 677.37 445.422C675.369 446.975 672.939 447.875 670.41 447.998Z" fill="black"/>
<path opacity="0.1" d="M676.49 471.898C675.252 474.305 673.255 476.237 670.808 477.394C668.361 478.552 665.601 478.871 662.955 478.301C660.308 477.732 657.924 476.306 656.169 474.245C654.415 472.184 653.389 469.602 653.25 466.898C653.158 465.194 653.431 463.489 654.05 461.898C655.064 462.564 655.974 463.376 656.75 464.308C657.92 465.728 658.69 467.308 660.05 468.678C662.56 471.148 666.63 472.168 670.24 472.258C672.329 472.265 674.416 472.144 676.49 471.898V471.898Z" fill="black"/>
<path d="M68.3101 423.618C70.9201 418.778 67.9601 412.858 64.5601 408.548C61.1601 404.238 57.0001 399.728 57.0901 394.258C57.2201 386.368 65.6001 381.698 72.2901 377.518C77.2582 374.403 81.8401 370.711 85.9401 366.518C87.6547 364.904 89.0728 363.002 90.1301 360.898C91.5201 357.818 91.4801 354.298 91.3901 350.898C91.0967 339.638 90.5401 328.385 89.7201 317.138" stroke="#3F3D56" stroke-width="4" stroke-miterlimit="10"/>
<path d="M102.45 316.578C102.353 314.516 101.74 312.51 100.665 310.747C99.5901 308.984 98.0891 307.519 96.3 306.488L93.54 311.938L93.63 305.338C91.1269 304.601 88.4545 304.679 85.9983 305.559C83.5421 306.44 81.4293 308.079 79.9648 310.238C78.5004 312.398 77.76 314.967 77.8506 317.574C77.9411 320.182 78.858 322.694 80.4688 324.746C82.0796 326.799 84.301 328.287 86.8123 328.995C89.3237 329.703 91.9951 329.595 94.441 328.686C96.8869 327.777 98.9807 326.115 100.42 323.938C101.86 321.762 102.571 319.185 102.45 316.578Z" fill="#9E7837"/>
<path d="M81.2574 399.836C80.0191 402.243 78.022 404.175 75.5752 405.332C73.1284 406.49 70.3682 406.808 67.722 406.239C65.0758 405.67 62.691 404.244 60.9367 402.183C59.1824 400.121 58.1564 397.539 58.0174 394.836C57.9254 393.131 58.1982 391.427 58.8174 389.836C59.724 387.516 61.3126 385.525 63.3736 384.126C65.4346 382.727 67.8712 381.986 70.3621 382C72.853 382.014 75.2811 382.783 77.3261 384.205C79.3712 385.627 80.9371 387.636 81.8174 389.966L74.1274 396.226L82.5874 394.226C82.5971 396.175 82.1412 398.099 81.2574 399.836V399.836Z" fill="#9E7837"/>
<path d="M69.41 375.998C66.389 376.141 63.4213 375.166 61.0731 373.26C58.7248 371.354 57.1604 368.65 56.6782 365.664C56.1961 362.679 56.8299 359.62 58.4588 357.072C60.0878 354.524 62.5978 352.664 65.51 351.848L65.44 356.918L68.23 351.398C69.8453 351.323 71.4596 351.566 72.9808 352.115C74.502 352.663 75.9003 353.506 77.0959 354.594C78.2914 355.683 79.2608 356.997 79.9487 358.46C80.6366 359.923 81.0295 361.508 81.105 363.123C81.1805 364.739 80.9372 366.353 80.3888 367.874C79.8404 369.395 78.9978 370.794 77.909 371.989C76.8203 373.185 75.5067 374.154 74.0433 374.842C72.5799 375.53 70.9953 375.923 69.38 375.998H69.41Z" fill="#9E7837"/>
<path d="M104.3 356.108C102.391 356.207 100.486 355.86 98.7348 355.094C96.9836 354.329 95.4347 353.166 94.2107 351.699C92.9867 350.231 92.1212 348.498 91.6829 346.638C91.2446 344.778 91.2454 342.841 91.6853 340.981C92.1252 339.121 92.9921 337.39 94.2173 335.923C95.4425 334.456 96.9924 333.295 98.7443 332.531C100.496 331.767 102.402 331.421 104.31 331.522C106.219 331.622 108.078 332.165 109.74 333.108L107.57 339.108L112 334.728C113.792 336.371 115.057 338.507 115.636 340.868C116.216 343.229 116.083 345.708 115.255 347.994C114.427 350.28 112.942 352.269 110.985 353.711C109.028 355.153 106.688 355.984 104.26 356.098L104.3 356.108Z" fill="#9E7837"/>
<path opacity="0.1" d="M100.79 319.858C97.95 320.168 95.19 321.048 92.33 321.228C89.47 321.408 86.33 320.718 84.55 318.508C83.7129 317.22 82.9516 315.885 82.27 314.508C81.4926 313.295 80.4278 312.292 79.17 311.588C78.3736 313.148 77.9193 314.861 77.8375 316.61C77.7557 318.36 78.0483 320.107 78.6956 321.735C79.343 323.362 80.3302 324.833 81.5915 326.049C82.8527 327.264 84.3588 328.197 86.0091 328.784C87.6595 329.37 89.4161 329.598 91.1617 329.452C92.9072 329.306 94.6014 328.789 96.1311 327.936C97.6609 327.082 98.9908 325.912 100.032 324.504C101.074 323.095 101.802 321.481 102.17 319.768C101.72 319.778 101.25 319.808 100.79 319.858Z" fill="black"/>
<path opacity="0.1" d="M103.892 355.56C101.77 355.66 99.6572 355.21 97.7605 354.252C95.8638 353.294 94.2473 351.861 93.0684 350.093C91.8894 348.326 91.1882 346.283 91.0329 344.163C90.8776 342.044 91.2736 339.921 92.1822 338C93.1581 338.659 93.9969 339.501 94.6522 340.48C95.3876 341.882 96.2023 343.241 97.0922 344.55C99.0122 346.8 102.292 347.55 105.262 347.4C108.232 347.25 111.102 346.4 114.062 346.15C114.472 346.15 114.882 346.09 115.302 346.08C114.69 348.686 113.244 351.021 111.186 352.732C109.127 354.442 106.566 355.435 103.892 355.56Z" fill="black"/>
<path opacity="0.1" d="M69.41 375.998C67.3094 376.097 65.2186 375.655 63.337 374.716C61.4554 373.777 59.8457 372.372 58.6615 370.634C57.4772 368.896 56.7579 366.884 56.5721 364.789C56.3863 362.695 56.7402 360.587 57.6 358.668C58.6147 359.336 59.4991 360.183 60.21 361.168C61.0164 362.604 61.908 363.99 62.88 365.318C64.95 367.628 68.45 368.448 71.59 368.318C74.73 368.188 77.59 367.508 80.59 367.318C79.8434 369.738 78.3698 371.869 76.3696 373.422C74.3693 374.975 71.9394 375.875 69.41 375.998Z" fill="black"/>
<path opacity="0.1" d="M81.2574 400C80.0191 402.407 78.022 404.339 75.5752 405.496C73.1284 406.653 70.3682 406.972 67.722 406.403C65.0758 405.834 62.691 404.408 60.9367 402.347C59.1824 400.285 58.1564 397.703 58.0174 395C57.9254 393.295 58.1982 391.591 58.8174 390C59.8314 390.666 60.7413 391.478 61.5174 392.41C62.6874 393.83 63.4574 395.41 64.8174 396.78C67.3274 399.25 71.3974 400.27 75.0074 400.36C77.0961 400.366 79.1833 400.246 81.2574 400V400Z" fill="black"/>
<path d="M379.52 341.248C376.91 336.418 379.87 330.498 383.28 326.188C386.69 321.878 390.83 317.388 390.74 311.898C390.62 303.998 382.24 299.338 375.54 295.158C370.574 292.045 365.995 288.352 361.9 284.158C360.177 282.553 358.755 280.653 357.7 278.548C356.32 275.458 356.36 271.948 356.44 268.548C356.74 257.288 357.297 246.035 358.11 234.788" stroke="#3F3D56" stroke-width="4" stroke-miterlimit="10"/>
<path d="M346.39 234.218C346.485 232.156 347.097 230.151 348.17 228.388C349.243 226.625 350.742 225.16 352.53 224.128L355.29 229.578L355.21 222.978C356.524 222.596 357.892 222.431 359.26 222.488C361.692 222.602 364.035 223.433 365.994 224.879C367.954 226.324 369.44 228.317 370.266 230.607C371.093 232.897 371.221 235.381 370.636 237.744C370.051 240.107 368.778 242.243 366.979 243.883C365.18 245.523 362.935 246.592 360.528 246.957C358.121 247.321 355.66 246.963 353.456 245.928C351.252 244.894 349.405 243.229 348.147 241.145C346.889 239.061 346.278 236.65 346.39 234.218Z" fill="#9E7837"/>
<path d="M367.34 317.538C368.631 320.051 370.746 322.043 373.331 323.181C375.916 324.319 378.813 324.533 381.538 323.788C384.262 323.043 386.647 321.383 388.293 319.088C389.939 316.793 390.746 314.002 390.578 311.182C390.41 308.363 389.278 305.687 387.371 303.603C385.465 301.52 382.899 300.155 380.106 299.739C377.312 299.322 374.461 299.878 372.029 301.315C369.597 302.752 367.733 304.981 366.75 307.628L374.44 313.888L365.98 311.888C365.973 313.854 366.44 315.791 367.34 317.538V317.538Z" fill="#9E7837"/>
<path d="M378.42 293.638C381.442 293.784 384.412 292.811 386.762 290.906C389.113 289.001 390.679 286.297 391.163 283.31C391.647 280.323 391.013 277.263 389.384 274.714C387.755 272.164 385.244 270.304 382.33 269.488L382.39 274.558L379.6 269.038C376.339 268.878 373.148 270.019 370.729 272.212C368.31 274.404 366.861 277.467 366.7 280.728C366.63 282.149 366.809 283.57 367.23 284.928C367.968 287.358 369.44 289.499 371.444 291.058C373.447 292.618 375.884 293.519 378.42 293.638V293.638Z" fill="#9E7837"/>
<path d="M342.54 273.728C344.448 273.826 346.353 273.477 348.104 272.711C349.854 271.944 351.402 270.781 352.625 269.313C353.848 267.845 354.712 266.112 355.149 264.252C355.587 262.392 355.585 260.455 355.144 258.596C354.704 256.737 353.836 255.005 352.611 253.539C351.385 252.073 349.836 250.913 348.084 250.149C346.332 249.386 344.427 249.041 342.519 249.141C340.61 249.242 338.752 249.785 337.09 250.728L339.27 256.728L334.79 252.438C333.595 253.521 332.626 254.829 331.94 256.288C331.253 257.747 330.863 259.328 330.79 260.938C330.731 262.077 330.835 263.219 331.1 264.328C331.728 266.925 333.183 269.247 335.247 270.943C337.311 272.638 339.871 273.616 342.54 273.728Z" fill="#9E7837"/>
<path opacity="0.1" d="M366.996 232.395C367.635 231.41 368.474 230.573 369.458 229.939C370.079 231.303 370.436 232.775 370.507 234.276C370.586 235.956 370.305 237.633 369.684 239.196C369.063 240.758 368.115 242.17 366.904 243.337C365.693 244.504 364.247 245.398 362.663 245.961C361.078 246.524 359.392 246.742 357.716 246.601C356.041 246.459 354.415 245.961 352.947 245.141C351.479 244.32 350.203 243.196 349.205 241.843C348.337 240.666 347.696 239.339 347.314 237.932C347.536 237.949 347.764 237.971 347.996 237.995C349.249 238.132 350.486 238.382 351.748 238.637C351.889 238.665 352.031 238.694 352.173 238.722C353.574 239.004 355.006 239.275 356.469 239.367C359.388 239.552 362.74 238.857 364.679 236.463L364.695 236.442L364.71 236.42C365.549 235.124 366.312 233.78 366.996 232.395Z" fill="black" stroke="black"/>
<path opacity="0.1" d="M342.54 273.728C344.662 273.826 346.772 273.373 348.667 272.415C350.563 271.456 352.178 270.024 353.356 268.257C354.534 266.49 355.236 264.448 355.392 262.33C355.549 260.212 355.156 258.089 354.25 256.168C353.271 256.827 352.429 257.669 351.77 258.648C351.035 260.05 350.22 261.409 349.33 262.718C347.42 264.968 344.14 265.718 341.17 265.568C338.2 265.418 335.33 264.568 332.37 264.318C331.96 264.318 331.54 264.258 331.13 264.248C331.741 266.855 333.186 269.191 335.245 270.902C337.304 272.613 339.866 273.605 342.54 273.728V273.728Z" fill="black"/>
<path opacity="0.1" d="M378.42 293.638C380.522 293.74 382.614 293.3 384.497 292.362C386.38 291.423 387.991 290.018 389.176 288.279C390.361 286.541 391.08 284.527 391.265 282.431C391.449 280.335 391.093 278.227 390.23 276.308C389.217 276.974 388.335 277.822 387.63 278.808C386.824 280.244 385.932 281.63 384.96 282.958C382.88 285.268 379.39 286.088 376.24 285.958C373.09 285.828 370.24 285.148 367.24 284.958C367.983 287.38 369.455 289.514 371.456 291.068C373.457 292.621 375.889 293.519 378.42 293.638V293.638Z" fill="black"/>
<path opacity="0.1" d="M367.34 317.538C368.785 320.324 371.239 322.453 374.201 323.489C377.163 324.526 380.409 324.392 383.276 323.115C386.143 321.838 388.413 319.514 389.624 316.619C390.835 313.724 390.894 310.476 389.79 307.538C388.772 308.198 387.861 309.011 387.09 309.948C385.92 311.368 385.09 312.948 383.79 314.318C381.27 316.788 377.21 317.808 373.59 317.898C371.501 317.899 369.415 317.779 367.34 317.538V317.538Z" fill="black"/>
<path d="M836.39 419.728C839 414.898 836.04 408.968 832.63 404.658C829.22 400.348 825.08 395.868 825.17 390.368C825.29 382.478 833.67 377.818 840.37 373.628C845.337 370.516 849.916 366.823 854.01 362.628C855.73 361.021 857.152 359.122 858.21 357.018C859.59 353.928 859.55 350.418 859.47 347.018C859.177 335.752 858.62 324.498 857.8 313.258" stroke="#3F3D56" stroke-width="4" stroke-miterlimit="10"/>
<path d="M870.52 312.658C870.425 310.598 869.812 308.595 868.739 306.833C867.666 305.071 866.167 303.608 864.38 302.578L861.62 308.028L861.7 301.428C860.388 301.037 859.018 300.871 857.65 300.938C855.218 301.052 852.874 301.884 850.915 303.33C848.956 304.775 847.469 306.769 846.643 309.06C845.817 311.35 845.689 313.834 846.275 316.198C846.861 318.561 848.135 320.697 849.935 322.337C851.735 323.976 853.981 325.045 856.389 325.407C858.797 325.77 861.258 325.411 863.461 324.375C865.665 323.339 867.511 321.673 868.768 319.587C870.024 317.502 870.634 315.09 870.52 312.658Z" fill="#9E7837"/>
<path d="M848.57 395.988C847.279 398.5 845.163 400.491 842.578 401.628C839.994 402.765 837.096 402.978 834.373 402.233C831.649 401.488 829.264 399.828 827.619 397.533C825.973 395.239 825.166 392.448 825.334 389.629C825.502 386.81 826.633 384.134 828.539 382.051C830.446 379.967 833.01 378.602 835.803 378.185C838.596 377.768 841.447 378.323 843.879 379.758C846.311 381.194 848.176 383.422 849.16 386.068L841.47 392.328L849.93 390.328C849.938 392.297 849.472 394.239 848.57 395.988V395.988Z" fill="#9E7837"/>
<path d="M842.49 372.078C839.468 372.224 836.498 371.251 834.148 369.346C831.797 367.441 830.23 364.737 829.747 361.75C829.263 358.763 829.897 355.703 831.526 353.154C833.155 350.604 835.666 348.744 838.58 347.928L838.52 352.998L841.31 347.488C844.572 347.339 847.759 348.49 850.172 350.69C852.586 352.889 854.027 355.957 854.18 359.218C854.257 360.833 854.014 362.447 853.466 363.968C852.919 365.489 852.076 366.888 850.988 368.083C849.899 369.278 848.586 370.247 847.123 370.935C845.659 371.622 844.075 372.014 842.46 372.088L842.49 372.078Z" fill="#9E7837"/>
<path d="M872.37 352.198C870.462 352.296 868.557 351.947 866.806 351.181C865.056 350.414 863.508 349.251 862.285 347.783C861.062 346.315 860.198 344.582 859.761 342.722C859.323 340.862 859.325 338.925 859.766 337.066C860.206 335.207 861.073 333.475 862.299 332.009C863.524 330.543 865.074 329.383 866.826 328.619C868.578 327.856 870.483 327.511 872.391 327.611C874.3 327.712 876.158 328.255 877.82 329.198L875.64 335.198L880.12 330.898C881.314 331.982 882.281 333.291 882.968 334.749C883.654 336.208 884.046 337.788 884.12 339.398C884.18 340.537 884.076 341.679 883.81 342.788C883.183 345.386 881.728 347.709 879.664 349.407C877.6 351.104 875.04 352.084 872.37 352.198V352.198Z" fill="#9E7837"/>
<path opacity="0.1" d="M868.87 315.938C866.03 316.258 863.26 317.138 860.41 317.318C857.56 317.498 854.41 316.808 852.62 314.588C851.784 313.302 851.026 311.966 850.35 310.588C849.57 309.377 848.506 308.375 847.25 307.668C846.452 309.229 845.997 310.942 845.914 312.693C845.831 314.443 846.124 316.192 846.771 317.82C847.419 319.449 848.407 320.921 849.669 322.137C850.931 323.353 852.438 324.286 854.09 324.872C855.742 325.459 857.499 325.686 859.246 325.539C860.992 325.391 862.687 324.873 864.217 324.017C865.747 323.162 867.077 321.99 868.117 320.58C869.157 319.169 869.885 317.553 870.25 315.838C869.79 315.858 869.33 315.888 868.87 315.938Z" fill="black"/>
<path opacity="0.1" d="M872.37 352.198C870.248 352.296 868.138 351.843 866.242 350.885C864.347 349.926 862.732 348.494 861.554 346.727C860.376 344.96 859.674 342.918 859.517 340.8C859.361 338.682 859.754 336.559 860.66 334.638C861.638 335.294 862.481 336.132 863.14 337.108C863.871 338.513 864.686 339.872 865.58 341.178C867.49 343.438 870.77 344.178 873.74 344.038C876.71 343.898 879.58 343.038 882.54 342.788C882.95 342.788 883.37 342.718 883.78 342.708C883.169 345.316 881.725 347.653 879.666 349.366C877.607 351.079 875.045 352.073 872.37 352.198V352.198Z" fill="black"/>
<path opacity="0.1" d="M842.49 372.078C840.386 372.181 838.291 371.742 836.405 370.803C834.519 369.864 832.906 368.456 831.721 366.714C830.536 364.973 829.817 362.956 829.635 360.857C829.453 358.758 829.813 356.648 830.68 354.728C831.689 355.4 832.57 356.246 833.28 357.228C834.28 358.578 834.83 360.138 835.95 361.378C838.03 363.698 841.52 364.508 844.67 364.438C847.82 364.368 850.67 363.618 853.67 363.388C852.928 365.811 851.455 367.946 849.455 369.502C847.454 371.057 845.021 371.957 842.49 372.078V372.078Z" fill="black"/>
<path opacity="0.1" d="M848.57 395.988C847.102 398.735 844.648 400.824 841.702 401.834C838.756 402.845 835.537 402.702 832.692 401.435C829.847 400.167 827.587 397.87 826.368 395.004C825.149 392.138 825.06 388.917 826.12 385.988C827.136 386.651 828.046 387.464 828.82 388.398C830 389.828 830.77 391.398 832.12 392.778C834.64 395.248 838.7 396.258 842.32 396.358C844.409 396.356 846.496 396.233 848.57 395.988V395.988Z" fill="black"/>
<path d="M995.39 571.728C998 566.898 995.04 560.968 991.63 556.658C988.22 552.348 984.08 547.868 984.17 542.368C984.29 534.478 992.67 529.818 999.37 525.628C1004.34 522.516 1008.92 518.823 1013.01 514.628C1014.73 513.021 1016.15 511.122 1017.21 509.018C1018.59 505.928 1018.55 502.418 1018.47 499.018C1018.18 487.752 1017.63 476.498 1016.8 465.258" stroke="#3F3D56" stroke-width="4" stroke-miterlimit="10"/>
<path d="M1029.52 464.658C1029.42 462.598 1028.81 460.595 1027.74 458.833C1026.67 457.071 1025.17 455.608 1023.38 454.578L1020.62 460.028L1020.7 453.428C1019.4 453.042 1018.05 452.877 1016.7 452.938C1014.27 453.052 1011.92 453.884 1009.96 455.33C1008.01 456.775 1006.52 458.769 1005.69 461.06C1004.87 463.35 1004.74 465.834 1005.33 468.198C1005.91 470.561 1007.19 472.697 1008.99 474.337C1010.79 475.976 1013.03 477.045 1015.44 477.407C1017.85 477.77 1020.31 477.411 1022.51 476.375C1024.71 475.339 1026.56 473.673 1027.82 471.587C1029.07 469.502 1029.68 467.09 1029.57 464.658H1029.52Z" fill="#9E7837"/>
<path d="M1007.57 547.988C1006.28 550.5 1004.16 552.491 1001.58 553.628C998.994 554.765 996.096 554.978 993.373 554.233C990.649 553.488 988.264 551.828 986.619 549.533C984.973 547.239 984.166 544.448 984.334 541.629C984.502 538.81 985.633 536.134 987.539 534.051C989.445 531.967 992.01 530.602 994.803 530.185C997.596 529.768 1000.45 530.323 1002.88 531.758C1005.31 533.194 1007.18 535.422 1008.16 538.068L1000.47 544.328L1008.93 542.328C1008.94 544.297 1008.47 546.239 1007.57 547.988V547.988Z" fill="#9E7837"/>
<path d="M1001.49 524.078C998.468 524.224 995.498 523.251 993.148 521.346C990.797 519.441 989.23 516.737 988.747 513.75C988.263 510.763 988.897 507.703 990.526 505.154C992.155 502.604 994.666 500.744 997.58 499.928L997.52 504.998L1000.31 499.488C1003.57 499.339 1006.76 500.491 1009.17 502.69C1011.59 504.889 1013.03 507.957 1013.18 511.218C1013.26 512.833 1013.01 514.447 1012.47 515.968C1011.92 517.489 1011.08 518.888 1009.99 520.083C1008.9 521.278 1007.59 522.247 1006.12 522.935C1004.66 523.622 1003.07 524.014 1001.46 524.088L1001.49 524.078Z" fill="#9E7837"/>
<path d="M1031.37 504.198C1029.46 504.296 1027.56 503.947 1025.81 503.181C1024.06 502.414 1022.51 501.251 1021.29 499.783C1020.06 498.315 1019.2 496.582 1018.76 494.722C1018.32 492.862 1018.33 490.925 1018.77 489.066C1019.21 487.207 1020.07 485.475 1021.3 484.009C1022.52 482.543 1024.07 481.383 1025.83 480.619C1027.58 479.856 1029.48 479.511 1031.39 479.611C1033.3 479.712 1035.16 480.255 1036.82 481.198L1034.64 487.198L1039.12 482.898C1040.31 483.982 1041.28 485.291 1041.97 486.749C1042.65 488.208 1043.05 489.788 1043.12 491.398C1043.18 492.537 1043.08 493.679 1042.81 494.788C1042.18 497.386 1040.73 499.709 1038.66 501.407C1036.6 503.104 1034.04 504.084 1031.37 504.198V504.198Z" fill="#9E7837"/>
<path opacity="0.1" d="M1027.87 467.938C1025.03 468.258 1022.26 469.138 1019.41 469.318C1016.56 469.498 1013.41 468.808 1011.62 466.588C1010.78 465.302 1010.03 463.966 1009.35 462.588C1008.57 461.377 1007.51 460.375 1006.25 459.668C1005.45 461.229 1005 462.942 1004.91 464.693C1004.83 466.443 1005.12 468.192 1005.77 469.82C1006.42 471.449 1007.41 472.921 1008.67 474.137C1009.93 475.353 1011.44 476.286 1013.09 476.872C1014.74 477.459 1016.5 477.686 1018.25 477.539C1019.99 477.391 1021.69 476.873 1023.22 476.017C1024.75 475.162 1026.08 473.99 1027.12 472.58C1028.16 471.169 1028.88 469.553 1029.25 467.838C1028.79 467.858 1028.33 467.888 1027.87 467.938Z" fill="black"/>
<path opacity="0.1" d="M1031.37 504.198C1029.25 504.296 1027.14 503.843 1025.24 502.885C1023.35 501.926 1021.73 500.494 1020.55 498.727C1019.38 496.96 1018.67 494.918 1018.52 492.8C1018.36 490.682 1018.75 488.559 1019.66 486.638C1020.64 487.294 1021.48 488.132 1022.14 489.108C1022.87 490.513 1023.69 491.872 1024.58 493.178C1026.49 495.438 1029.77 496.178 1032.74 496.038C1035.71 495.898 1038.58 495.038 1041.54 494.788C1041.95 494.788 1042.37 494.718 1042.78 494.708C1042.17 497.316 1040.72 499.653 1038.67 501.366C1036.61 503.079 1034.05 504.073 1031.37 504.198Z" fill="black"/>
<path opacity="0.1" d="M1001.49 524.078C999.386 524.181 997.291 523.742 995.405 522.803C993.519 521.864 991.906 520.456 990.721 518.714C989.536 516.973 988.817 514.956 988.635 512.857C988.453 510.758 988.813 508.648 989.68 506.728C990.689 507.4 991.57 508.246 992.28 509.228C993.28 510.578 993.83 512.138 994.95 513.378C997.03 515.698 1000.52 516.508 1003.67 516.438C1006.82 516.368 1009.67 515.618 1012.67 515.388C1011.93 517.811 1010.46 519.946 1008.45 521.502C1006.45 523.057 1004.02 523.957 1001.49 524.078Z" fill="black"/>
<path opacity="0.1" d="M1007.57 547.988C1006.1 550.735 1003.65 552.824 1000.7 553.834C997.756 554.845 994.537 554.702 991.692 553.435C988.847 552.167 986.587 549.87 985.368 547.004C984.149 544.138 984.06 540.917 985.12 537.988C986.136 538.651 987.046 539.464 987.82 540.398C989 541.828 989.82 543.398 991.12 544.778C993.64 547.248 997.7 548.258 1001.32 548.358C1003.41 548.356 1005.5 548.233 1007.57 547.988V547.988Z" fill="black"/>
<path opacity="0.5" d="M69.5901 279.728C71.1777 276.957 71.9991 273.812 71.9701 270.618C71.9701 262.388 66.8701 255.718 60.5901 255.718C54.3101 255.718 49.2101 262.388 49.2101 270.618C49.178 273.811 49.996 276.956 51.5801 279.728C50.0256 282.511 49.2094 285.646 49.2094 288.833C49.2094 292.021 50.0256 295.155 51.5801 297.938C50.0256 300.721 49.2094 303.856 49.2094 307.043C49.2094 310.231 50.0256 313.365 51.5801 316.148C49.9928 318.92 49.1746 322.065 49.2101 325.258C49.2101 333.478 54.3001 340.158 60.5901 340.158C66.8801 340.158 72.0001 333.498 72.0001 325.278C72.032 322.084 71.2104 318.939 69.6201 316.168C71.1802 313.387 71.9995 310.252 71.9995 307.063C71.9995 303.875 71.1802 300.739 69.6201 297.958C71.1802 295.177 71.9995 292.042 71.9995 288.853C71.9995 285.665 71.1802 282.529 69.6201 279.748L69.5901 279.728Z" fill="#3F3D56"/>
<path opacity="0.1" d="M117.35 136.298C117.37 148.529 113.258 160.408 105.68 170.008C112.006 178.05 115.942 187.71 117.037 197.883C118.132 208.056 116.342 218.332 111.872 227.536C107.402 236.739 100.432 244.5 91.7599 249.929C83.0873 255.358 73.0619 258.237 62.8301 258.237C52.5982 258.237 42.5729 255.358 33.9003 249.929C25.2277 244.5 18.258 236.739 13.788 227.536C9.318 218.332 7.52819 208.056 8.6232 197.883C9.71821 187.71 13.6538 178.05 19.9801 170.008C12.6701 160.728 117.35 130.178 117.35 136.298Z" fill="black"/>
<path opacity="0.4" d="M20 101.588C18.4438 99.6091 17.027 97.524 15.76 95.3483L45.67 90.4383L13.3 90.7283C10.2038 83.9742 8.51819 76.6594 8.34624 69.2314C8.1743 61.8034 9.51965 54.4185 12.3 47.5283L55.7 70.0383L15.7 40.6183C19.4281 34.1003 24.4625 28.4226 30.4876 23.9412C36.5126 19.4598 43.3984 16.2713 50.7134 14.5756C58.0283 12.8799 65.6147 12.7135 72.997 14.0869C80.3793 15.4602 87.3983 18.3437 93.614 22.5566C99.8298 26.7695 105.108 32.221 109.119 38.5693C113.129 44.9176 115.785 52.0259 116.919 59.4486C118.054 66.8713 117.643 74.4484 115.713 81.7049C113.782 88.9614 110.373 95.7408 105.7 101.618C108.124 104.698 110.21 108.031 111.92 111.558L73.08 131.728L114.48 117.838C117.382 126.432 118.097 135.613 116.561 144.552C115.024 153.491 111.285 161.907 105.68 169.038C112.006 177.08 115.942 186.74 117.037 196.913C118.132 207.086 116.342 217.362 111.872 226.566C107.402 235.769 100.432 243.53 91.7598 248.959C83.0872 254.388 73.0618 257.267 62.83 257.267C52.5981 257.267 42.5728 254.388 33.9002 248.959C25.2276 243.53 18.2579 235.769 13.7879 226.566C9.3179 217.362 7.52809 207.086 8.62309 196.913C9.7181 186.74 13.6537 177.08 19.98 169.038C12.4197 159.428 8.30933 147.556 8.30933 135.328C8.30933 123.101 12.4197 111.228 19.98 101.618L20 101.588Z" fill="#121F2D"/>
<path d="M188.39 561.161C191 556.331 188.04 550.401 184.63 546.091C181.22 541.781 177.08 537.301 177.17 531.801C177.29 523.911 185.67 519.251 192.37 515.061C197.337 511.948 201.916 508.256 206.01 504.061C207.73 502.454 209.152 500.554 210.21 498.451C211.59 495.361 211.55 491.851 211.47 488.451C211.183 477.184 210.627 465.931 209.8 454.691" stroke="#3F3D56" stroke-width="4" stroke-miterlimit="10"/>
<path d="M222.52 454.091C222.425 452.03 221.812 450.027 220.739 448.266C219.666 446.504 218.167 445.041 216.38 444.011L213.62 449.461L213.7 442.861C212.403 442.475 211.051 442.309 209.7 442.371C207.268 442.484 204.924 443.316 202.965 444.762C201.006 446.208 199.519 448.202 198.693 450.492C197.867 452.783 197.739 455.267 198.325 457.63C198.911 459.993 200.185 462.13 201.985 463.769C203.785 465.409 206.031 466.477 208.439 466.84C210.847 467.203 213.308 466.844 215.511 465.808C217.715 464.772 219.561 463.106 220.818 461.02C222.074 458.934 222.684 456.523 222.57 454.091H222.52Z" fill="#9E7837"/>
<path d="M200.57 537.421C199.279 539.932 197.163 541.923 194.578 543.06C191.994 544.197 189.096 544.411 186.373 543.666C183.649 542.92 181.264 541.261 179.619 538.966C177.973 536.671 177.166 533.88 177.334 531.061C177.502 528.242 178.633 525.567 180.539 523.483C182.445 521.4 185.01 520.035 187.803 519.618C190.596 519.2 193.447 519.756 195.879 521.191C198.311 522.626 200.176 524.854 201.16 527.501L193.47 533.761L201.93 531.761C201.938 533.73 201.472 535.671 200.57 537.421V537.421Z" fill="#9E7837"/>
<path d="M194.49 513.511C191.468 513.656 188.498 512.684 186.148 510.778C183.797 508.873 182.23 506.169 181.747 503.183C181.263 500.196 181.897 497.136 183.526 494.586C185.155 492.037 187.666 490.177 190.58 489.361L190.52 494.431L193.31 488.921C196.572 488.772 199.759 489.923 202.172 492.123C204.586 494.322 206.027 497.389 206.18 500.651C206.257 502.266 206.014 503.88 205.466 505.401C204.919 506.922 204.076 508.32 202.988 509.516C201.899 510.711 200.586 511.68 199.123 512.367C197.659 513.054 196.075 513.447 194.46 513.521L194.49 513.511Z" fill="#9E7837"/>
<path d="M224.37 493.631C222.462 493.728 220.557 493.38 218.807 492.613C217.056 491.847 215.508 490.684 214.285 489.215C213.062 487.747 212.198 486.014 211.761 484.154C211.323 482.294 211.325 480.358 211.766 478.499C212.206 476.639 213.074 474.908 214.299 473.442C215.525 471.976 217.075 470.815 218.826 470.052C220.578 469.288 222.483 468.943 224.392 469.044C226.3 469.144 228.158 469.688 229.82 470.631L227.64 476.631L232.12 472.331C233.314 473.415 234.282 474.723 234.968 476.182C235.654 477.641 236.046 479.221 236.12 480.831C236.18 481.97 236.076 483.112 235.81 484.221C235.183 486.819 233.728 489.142 231.664 490.839C229.6 492.537 227.04 493.517 224.37 493.631V493.631Z" fill="#9E7837"/>
<path opacity="0.1" d="M220.87 457.371C218.03 457.691 215.26 458.571 212.41 458.751C209.56 458.931 206.41 458.241 204.62 456.021C203.784 454.734 203.026 453.399 202.35 452.021C201.57 450.81 200.506 449.807 199.25 449.101C198.452 450.662 197.997 452.374 197.914 454.125C197.832 455.876 198.124 457.624 198.771 459.253C199.419 460.882 200.407 462.353 201.669 463.57C202.931 464.786 204.438 465.718 206.09 466.305C207.741 466.892 209.499 467.119 211.246 466.971C212.992 466.824 214.687 466.305 216.217 465.45C217.747 464.595 219.077 463.423 220.117 462.012C221.157 460.602 221.885 458.985 222.25 457.271C221.79 457.291 221.33 457.321 220.87 457.371Z" fill="black"/>
<path opacity="0.1" d="M224.37 493.631C222.248 493.728 220.138 493.276 218.243 492.317C216.347 491.359 214.732 489.926 213.554 488.159C212.376 486.392 211.674 484.351 211.518 482.233C211.361 480.115 211.754 477.992 212.66 476.071C213.639 476.726 214.481 477.565 215.14 478.541C215.871 479.945 216.686 481.304 217.58 482.611C219.49 484.871 222.77 485.611 225.74 485.471C228.71 485.331 231.58 484.471 234.54 484.221C234.95 484.221 235.37 484.151 235.78 484.141C235.169 486.749 233.725 489.086 231.666 490.799C229.607 492.511 227.045 493.506 224.37 493.631Z" fill="black"/>
<path opacity="0.1" d="M194.49 513.511C192.386 513.614 190.291 513.175 188.405 512.235C186.519 511.296 184.906 509.888 183.721 508.147C182.536 506.405 181.817 504.389 181.635 502.29C181.453 500.191 181.813 498.081 182.68 496.161C183.689 496.832 184.57 497.679 185.28 498.661C186.28 500.011 186.83 501.571 187.95 502.811C190.03 505.131 193.52 505.941 196.67 505.871C199.82 505.801 202.67 505.051 205.67 504.821C204.928 507.244 203.456 509.379 201.455 510.934C199.454 512.49 197.021 513.389 194.49 513.511Z" fill="black"/>
<path opacity="0.1" d="M200.57 537.421C199.102 540.168 196.648 542.256 193.702 543.267C190.756 544.277 187.537 544.135 184.692 542.867C181.847 541.6 179.587 539.302 178.368 536.437C177.149 533.571 177.06 530.35 178.12 527.421C179.136 528.084 180.046 528.896 180.82 529.831C182 531.261 182.82 532.831 184.12 534.211C186.64 536.681 190.7 537.691 194.32 537.791C196.409 537.789 198.496 537.665 200.57 537.421V537.421Z" fill="black"/>
</svg>
