<svg width="85" height="85" viewBox="0 0 85 85" fill="none" xmlns="http://www.w3.org/2000/svg">
<path d="M0 0H85V85H0V0Z" fill="#0076B2"/>
<path d="M73.3679 23.5246L57.3531 41.7524C57.3249 41.7826 57.3025 41.8188 57.2872 41.859C57.2719 41.8991 57.264 41.9423 57.264 41.9859C57.264 42.0295 57.2719 42.0727 57.2872 42.1128C57.3025 42.1529 57.3249 42.1891 57.3531 42.2193L68.5897 55.5864C68.8585 55.8894 69.0413 56.2745 69.1152 56.6933C69.1891 57.1121 69.1507 57.5461 69.005 57.9406C68.8592 58.3351 68.6126 58.6727 68.296 58.911C67.9793 59.1492 67.6068 59.2776 67.2252 59.2798C66.7117 59.2786 66.2194 59.0506 65.8554 58.6453L54.6777 45.3261C54.6206 45.2633 54.5437 45.228 54.4637 45.228C54.3836 45.228 54.3067 45.2633 54.2496 45.3261L51.5261 48.403C50.411 49.6788 49.0792 50.6924 47.609 51.3842C46.1388 52.0761 44.5598 52.4322 42.9649 52.4317C41.3397 52.4233 39.7323 52.0526 38.2367 51.3414C36.741 50.6301 35.387 49.5925 34.2538 48.2893L31.6373 45.2962C31.5803 45.2333 31.5034 45.1981 31.4233 45.1981C31.3432 45.1981 31.2663 45.2333 31.2093 45.2962L20.0583 58.5855C19.8788 58.7866 19.6657 58.9461 19.4311 59.0549C19.1966 59.1638 18.9451 59.2198 18.6911 59.2198C18.4372 59.2198 18.1857 59.1638 17.9511 59.0549C17.7165 58.9461 17.5034 58.7866 17.324 58.5855C17.1436 58.3852 17.0005 58.1469 16.9028 57.8844C16.8051 57.6219 16.7548 57.3404 16.7548 57.056C16.7548 56.7717 16.8051 56.4901 16.9028 56.2276C17.0005 55.9651 17.1436 55.7269 17.324 55.5266L28.5178 42.1894C28.5675 42.1243 28.5949 42.0415 28.5949 41.9559C28.5949 41.8703 28.5675 41.7876 28.5178 41.7225L12.503 23.4947C12.4618 23.4483 12.4093 23.4168 12.352 23.404C12.2948 23.3912 12.2354 23.3977 12.1815 23.4227C12.1276 23.4477 12.0815 23.4901 12.0492 23.5445C12.0169 23.5989 11.9998 23.6628 12 23.7281V60.2017C12.0042 61.6117 12.5068 62.9625 13.3979 63.9595C14.2891 64.9565 15.4966 65.5187 16.7568 65.5234H69.1248C70.385 65.5187 71.5925 64.9565 72.4837 63.9595C73.3748 62.9625 73.8774 61.6117 73.8816 60.2017V23.758C73.8842 23.6902 73.8681 23.623 73.8353 23.5658C73.8024 23.5086 73.7546 23.4642 73.6983 23.4386C73.6421 23.4131 73.5801 23.4076 73.5209 23.423C73.4618 23.4384 73.4083 23.4739 73.3679 23.5246V23.5246Z" fill="white"/>
<path d="M43.1362 48.4515C44.2218 48.4635 45.2984 48.2311 46.3021 47.7684C47.3059 47.3056 48.2163 46.6219 48.9792 45.7578L72.3032 19.1972C71.4752 18.4299 70.4354 18.0069 69.3603 18H16.9549C15.8793 18.0039 14.8386 18.4273 14.012 19.1972L37.3413 45.7578C38.0974 46.617 38.9998 47.298 39.9951 47.7607C40.9904 48.2234 42.0584 48.4583 43.1362 48.4515V48.4515Z" fill="white"/>
</svg>
