<svg width="85" height="85" viewBox="0 0 85 85" fill="none" xmlns="http://www.w3.org/2000/svg">
<path d="M0 0H85V85H0V0Z" fill="#3F91CB"/>
<path fill-rule="evenodd" clip-rule="evenodd" d="M42.4999 19.29C36.8502 19.2953 31.3865 21.3102 27.0861 24.9745C22.7858 28.6388 19.9292 33.7134 19.0273 39.2907C18.1254 44.868 19.2371 50.5843 22.1634 55.4172C25.0897 60.2501 29.6398 63.8843 34.9999 65.67C36.1899 65.89 36.6199 65.15 36.6199 64.53C36.6199 63.91 36.6199 62.08 36.6199 60.1C29.9999 61.53 28.6199 57.29 28.6199 57.29C27.5399 54.54 25.9799 53.8 25.9799 53.8C23.8199 52.33 26.14 52.36 26.14 52.36C26.8948 52.4633 27.616 52.7377 28.2486 53.1623C28.8812 53.587 29.4085 54.1505 29.79 54.81C31.91 58.45 35.3599 57.4 36.7199 56.81C36.8211 55.602 37.3577 54.4719 38.2299 53.63C32.9399 53.03 27.38 50.98 27.38 41.86C27.3467 39.4957 28.228 37.21 29.8399 35.48C29.1062 33.4282 29.1885 31.1729 30.0699 29.18C30.0699 29.18 32.0699 28.54 36.6099 31.62C40.5117 30.5533 44.6282 30.5533 48.53 31.62C53.08 28.54 55.0699 29.18 55.0699 29.18C55.9513 31.1729 56.0337 33.4282 55.3 35.48C56.9091 37.211 57.7869 39.4969 57.7499 41.86C57.7499 51.01 52.19 53.02 46.89 53.61C47.4561 54.1886 47.8925 54.8811 48.1701 55.6415C48.4477 56.4019 48.5601 57.2128 48.4999 58.02C48.4999 61.2 48.4999 63.76 48.4999 64.55C48.4999 65.18 48.93 65.92 50.14 65.69C55.5034 63.9033 60.0557 60.2657 62.9818 55.4286C65.9078 50.5916 67.0165 44.8709 66.1093 39.291C65.2022 33.711 62.3384 28.6361 58.0308 24.9751C53.7232 21.314 48.2531 19.3058 42.5999 19.31L42.4999 19.29Z" fill="white"/>
<path d="M27.7099 53.46C27.7099 53.58 27.48 53.61 27.31 53.53C27.14 53.45 27.0399 53.29 27.0899 53.17C27.1399 53.05 27.33 53.02 27.5 53.1C27.67 53.18 27.7699 53.34 27.7099 53.46Z" fill="white"/>
<path d="M28.68 54.53C28.57 54.64 28.3399 54.59 28.1899 54.42C28.1198 54.3614 28.0739 54.2789 28.061 54.1884C28.048 54.098 28.069 54.0059 28.1199 53.93C28.2399 53.82 28.4499 53.87 28.6099 54.04C28.7699 54.21 28.8 54.43 28.68 54.53Z" fill="white"/>
<path d="M29.62 55.91C29.47 56.01 29.23 55.91 29.09 55.7C28.95 55.49 28.94 55.23 29.09 55.13C29.24 55.03 29.47 55.13 29.62 55.33C29.77 55.53 29.77 55.8 29.62 55.91Z" fill="white"/>
<path d="M30.9001 57.23C30.7701 57.37 30.4901 57.33 30.2901 57.14C30.0901 56.95 30.0201 56.67 30.1601 56.53C30.3001 56.39 30.5701 56.43 30.7701 56.62C30.9701 56.81 31.0401 57.09 30.9001 57.23Z" fill="white"/>
<path d="M32.6801 58C32.6201 58.18 32.35 58.27 32.08 58.19C31.81 58.11 31.64 57.89 31.69 57.7C31.74 57.51 32.0201 57.43 32.2901 57.51C32.5601 57.59 32.7301 57.81 32.6801 58Z" fill="white"/>
<path d="M34.62 58.14C34.62 58.34 34.4 58.5 34.12 58.5C33.84 58.5 33.6 58.35 33.6 58.16C33.6 57.97 33.82 57.8 34.11 57.79C34.4 57.78 34.62 57.95 34.62 58.14Z" fill="white"/>
<path d="M36.44 57.83C36.44 58.02 36.27 58.22 35.99 58.27C35.71 58.32 35.4601 58.21 35.4301 58.02C35.4001 57.83 35.5901 57.62 35.8701 57.57C36.1501 57.52 36.4 57.64 36.44 57.83Z" fill="white"/>
</svg>
