<svg width="85" height="85" viewBox="0 0 85 85" fill="none" xmlns="http://www.w3.org/2000/svg">
<path d="M0 0H85V85H0V0Z" fill="#152536"/>
<path fill-rule="evenodd" clip-rule="evenodd" d="M42.5 19.29C36.8485 19.2905 31.3816 21.3021 27.0776 24.9648C22.7736 28.6275 19.9135 33.7022 19.009 39.2809C18.1045 44.8595 19.2147 50.5779 22.1408 55.4129C25.067 60.2479 29.6182 63.8838 34.9799 65.67C36.1699 65.89 36.5999 65.15 36.5999 64.53C36.5999 63.91 36.5999 62.08 36.5999 60.1C29.9799 61.53 28.5999 57.29 28.5999 57.29C27.5199 54.54 25.9599 53.8 25.9599 53.8C23.7999 52.33 26.12 52.36 26.12 52.36C26.8748 52.4633 27.596 52.7377 28.2286 53.1624C28.8612 53.587 29.3885 54.1505 29.77 54.81C31.89 58.45 35.3399 57.4 36.6999 56.81C36.8011 55.602 37.3377 54.4719 38.2099 53.63C32.9199 53.03 27.36 50.98 27.36 41.86C27.3267 39.4957 28.208 37.21 29.8199 35.48C29.0862 33.4282 29.1686 31.1729 30.05 29.18C30.05 29.18 32.0499 28.54 36.5899 31.62C40.4917 30.5533 44.6082 30.5533 48.51 31.62C53.06 28.54 55.05 29.18 55.05 29.18C55.9314 31.1729 56.0137 33.4282 55.28 35.48C56.8891 37.211 57.7669 39.4969 57.7299 41.86C57.7299 51.01 52.17 53.02 46.87 53.61C47.4361 54.1886 47.8725 54.8811 48.1501 55.6415C48.4277 56.4019 48.5401 57.2127 48.4799 58.02C48.4799 61.2 48.4799 63.76 48.4799 64.55C48.4799 65.18 48.91 65.92 50.12 65.69C55.4834 63.9033 60.0357 60.2657 62.9618 55.4286C65.8878 50.5916 66.9965 44.8709 66.0893 39.291C65.1822 33.711 62.3185 28.6361 58.011 24.9751C53.7034 21.314 48.2331 19.3058 42.5799 19.31L42.5 19.29Z" fill="white"/>
<path d="M27.7099 53.46C27.7099 53.58 27.48 53.61 27.31 53.53C27.14 53.45 27.0399 53.29 27.0899 53.17C27.1399 53.05 27.33 53.02 27.5 53.1C27.67 53.18 27.7699 53.34 27.7099 53.46Z" fill="white"/>
<path d="M28.68 54.53C28.57 54.64 28.3399 54.59 28.1899 54.42C28.1198 54.3614 28.0739 54.2789 28.061 54.1884C28.048 54.098 28.069 54.0059 28.1199 53.93C28.2399 53.82 28.4499 53.87 28.6099 54.04C28.7699 54.21 28.8 54.43 28.68 54.53Z" fill="white"/>
<path d="M29.62 55.91C29.47 56.01 29.23 55.91 29.09 55.7C28.95 55.49 28.94 55.23 29.09 55.13C29.24 55.03 29.47 55.13 29.62 55.33C29.77 55.53 29.77 55.8 29.62 55.91Z" fill="white"/>
<path d="M30.9001 57.23C30.7701 57.37 30.4901 57.33 30.2901 57.14C30.0901 56.95 30.0201 56.67 30.1601 56.53C30.3001 56.39 30.5701 56.43 30.7701 56.62C30.9701 56.81 31.0401 57.09 30.9001 57.23Z" fill="white"/>
<path d="M32.6801 58C32.6201 58.18 32.35 58.27 32.08 58.19C31.81 58.11 31.64 57.89 31.69 57.7C31.74 57.51 32.0201 57.43 32.2901 57.51C32.5601 57.59 32.7301 57.81 32.6801 58Z" fill="white"/>
<path d="M34.62 58.14C34.62 58.34 34.4 58.5 34.12 58.5C33.84 58.5 33.6 58.35 33.6 58.16C33.6 57.97 33.82 57.8 34.11 57.79C34.4 57.78 34.62 57.95 34.62 58.14Z" fill="white"/>
<path d="M36.44 57.83C36.44 58.02 36.27 58.22 35.99 58.27C35.71 58.32 35.4601 58.21 35.4301 58.02C35.4001 57.83 35.5901 57.62 35.8701 57.57C36.1501 57.52 36.4 57.64 36.44 57.83Z" fill="white"/>
</svg>
