<svg width="355" height="502" viewBox="0 0 355 502" fill="none" xmlns="http://www.w3.org/2000/svg">
<path d="M252.792 430.602L244.611 451.895L158.587 430.472L170.661 399.045L252.792 430.602Z" fill="#FFB7B7"/>
<path d="M275.519 433.101L249.14 501.759L248.271 501.425C241.184 498.702 235.469 493.275 232.382 486.338C229.296 479.401 229.092 471.523 231.814 464.435L231.815 464.433L247.926 422.499L275.519 433.101Z" fill="#BE6F72"/>
<path d="M122.075 163.992L84.5865 167.502L82.7268 279.044C83.2238 284.511 85.8416 289.565 90.0197 293.125C94.1978 296.685 99.6039 298.467 105.08 298.09L128.848 296.453L122.075 163.992Z" fill="#E5E5E5"/>
<path d="M254.237 158.502L228.587 158.172L227.067 290.707C232.735 290.897 238.382 289.916 243.654 287.826C248.926 285.736 253.712 282.583 257.711 278.562C261.711 274.541 264.839 269.739 266.901 264.455C268.962 259.172 269.913 253.52 269.694 247.853L254.237 158.502Z" fill="#E5E5E5"/>
<path d="M105.401 337.791C104.793 341.636 103.911 345.431 102.762 349.15C101.468 352.79 99.4694 356.156 98.286 359.833C94.5136 371.554 99.7433 384.623 108.096 393.67C115.339 401.485 124.689 407.037 135.017 409.656C142.552 411.552 150.387 411.824 158.152 412.088C179.655 412.817 201.711 413.469 222.086 406.559C228.523 404.322 234.741 401.497 240.661 398.12C242.53 397.23 244.176 395.933 245.48 394.325C247.034 392.113 247.233 389.244 247.22 386.54C247.174 377.425 245.326 368.355 245.765 359.25C246.008 354.207 246.952 349.168 246.487 344.14C245.844 338.43 243.452 333.058 239.638 328.759C235.825 324.461 230.776 321.446 225.183 320.128C219.403 318.887 213.408 319.563 207.524 320.129C192.249 321.596 176.909 322.282 161.564 322.184C145.885 322.084 130.304 319.69 114.703 319.44C110.09 319.366 110.183 320.789 108.714 325.254C107.361 329.363 106.255 333.55 105.401 337.791Z" fill="#2F2E41"/>
<path d="M44.0919 330.383C39.8759 329.323 35.5318 328.861 31.1872 329.011C26.6224 329.263 22.1637 330.484 18.1074 332.593C14.0511 334.702 10.4903 337.651 7.6617 341.242C4.83309 344.834 2.80153 348.987 1.70207 353.424C0.602625 357.862 0.460484 362.483 1.28511 366.979C2.33788 371.85 4.05867 376.553 6.39864 380.953C9.82101 387.898 13.9256 394.827 20.2613 399.278C23.9675 401.882 28.257 403.505 32.4955 405.101L65.8642 417.672C70.7731 419.521 75.6827 421.371 80.6402 423.086C105.546 431.694 131.513 436.857 157.817 438.429C165.83 438.906 173.964 439.039 181.78 437.214C183.635 436.782 185.614 436.136 186.688 434.563C187.324 433.455 187.699 432.216 187.784 430.941L189.838 416.567C190.127 414.543 190.405 412.412 189.663 410.507C188.722 408.091 186.365 406.572 184.117 405.28C162.179 392.68 136.564 385.729 118.099 368.436C113.752 364.365 110.114 357.912 104.833 355.147C98.8435 352.011 91.7901 350.221 85.5994 347.331C72.0658 341.014 58.7597 333.754 44.0919 330.383Z" fill="#2F2E41"/>
<path opacity="0.1" d="M77.4057 349.762C89.2001 353.458 138.996 379.062 147.531 388.002C146.387 388.414 107.57 366.66 106.406 366.311C95.8181 363.133 85.1716 359.935 75.1172 355.284C73.0945 354.349 61.9767 349.952 62.4802 347.4C63.0484 344.52 75.3119 349.106 77.4057 349.762Z" fill="black"/>
<path d="M148.587 126.502L116.831 150.613C116.831 150.613 83.3221 151.662 84.4543 173.082C85.5866 194.502 98.9976 295.919 98.9976 295.919L101.907 330.815L157.1 346.541C186.922 355.038 218.428 355.714 248.587 348.502L242.028 313.494C242.028 313.494 268.587 154.502 252.587 147.502C236.587 140.502 226.587 142.502 226.587 142.502L206.531 125.002L148.587 126.502Z" fill="#E5E5E5"/>
<path d="M242.587 87.5553C242.587 118.856 213.644 114.122 177.941 114.122C142.238 114.122 113.295 118.856 113.295 87.5553C113.295 56.2542 127.433 0.770691 177.941 0.770691C230.189 0.770691 242.587 56.2542 242.587 87.5553Z" fill="#2F2E41"/>
<path d="M211.545 98.163C228.533 81.175 228.533 53.6321 211.545 36.6442C194.557 19.6562 167.014 19.6562 150.027 36.6442C133.039 53.6321 133.039 81.1751 150.026 98.163C167.014 115.151 194.557 115.151 211.545 98.163Z" fill="#FFB7B7"/>
<path d="M127.464 66.3019H144.669L152.26 45.0485L153.777 66.3019H162.001L166.429 53.9041L167.314 66.3019H228.418C228.418 54.0889 223.566 42.3762 214.93 33.7404C206.294 25.1045 194.582 20.2529 182.369 20.2529H173.513C161.3 20.2529 149.587 25.1045 140.952 33.7404C132.316 42.3762 127.464 54.0889 127.464 66.3019Z" fill="#2F2E41"/>
<path d="M221.587 131.502H134.587V236.502H221.587V131.502Z" fill="#6C63FF"/>
<path d="M139.381 429.602L147.563 450.895L233.587 429.472L221.512 398.045L139.381 429.602Z" fill="#FFB7B7"/>
<path d="M144.247 421.499L160.359 463.433V463.435C163.082 470.523 162.877 478.401 159.791 485.338C156.705 492.275 150.989 497.702 143.902 500.425L143.034 500.759L116.654 432.101L144.247 421.499Z" fill="#BE6F72"/>
<path d="M311.335 322.232C318.245 320.499 325.409 320.01 332.492 320.787C338.148 321.41 343.975 322.984 348.105 326.899C353.131 331.664 354.746 339.033 354.881 345.957C355.102 359.749 350.527 373.19 341.939 383.984C339.842 386.714 337.348 389.115 334.54 391.107C331.511 393.002 328.282 394.558 324.913 395.746L250.185 425.221C230.526 432.975 210.797 440.752 190.292 445.864C189.177 446.402 187.894 446.475 186.725 446.068C185.556 445.66 184.597 444.804 184.059 443.689C184.042 443.655 184.026 443.621 184.011 443.587C177.463 434.234 171.97 424.187 167.632 413.627C167.427 413.376 167.285 413.079 167.219 412.761C167.152 412.444 167.163 412.115 167.251 411.803C167.338 411.491 167.5 411.204 167.721 410.967C167.943 410.731 168.219 410.551 168.525 410.443L221.38 380.074C225.166 377.899 228.995 375.692 232.138 372.662C234.423 370.448 236.293 367.844 237.661 364.972C238.757 362.684 238.859 357.284 240.259 355.592C241.629 353.936 246.316 353.804 248.481 353.153C251.534 352.217 254.524 351.087 257.432 349.769C269.255 344.479 279.784 336.794 291.118 330.601C297.475 326.966 304.268 324.154 311.335 322.232Z" fill="#2F2E41"/>
<path opacity="0.1" d="M281.37 344.912C272.289 351.732 260.531 358.002 251.531 365.002C248.46 367.391 197.255 396.178 196.531 400.002C204.928 401.416 258.414 363.999 266.067 360.265C273.72 356.531 280.503 351.266 287.225 346.039C288.939 344.707 296.199 340.704 291.281 339.215C288.511 338.377 283.415 343.548 281.37 344.912Z" fill="black"/>
<path opacity="0.17" d="M104.587 198.502L105.788 189.232C105.788 189.232 150.587 192.502 143.587 203.502C136.587 214.502 119.587 215.502 119.587 215.502L104.587 198.502Z" fill="#2F2E41"/>
<path d="M138.403 158.194C140.969 158.477 143.441 159.324 145.641 160.675C147.841 162.026 149.714 163.847 151.127 166.008C152.415 167.979 153.29 170.191 153.702 172.51C154.113 174.828 154.051 177.206 153.52 179.5C152.99 181.794 152.001 183.958 150.613 185.86C149.225 187.762 147.467 189.365 145.444 190.571C144.703 191.009 143.929 191.389 143.129 191.709L115.593 275.936C114.795 277.598 113.676 279.086 112.301 280.314C110.927 281.543 109.323 282.487 107.581 283.093C105.84 283.7 103.997 283.956 102.156 283.847C100.316 283.738 98.5153 283.267 96.8577 282.46C95.2002 281.653 93.7184 280.526 92.4977 279.145C91.277 277.763 90.3415 276.154 89.7448 274.41C89.148 272.665 88.902 270.82 89.0208 268.981C89.1395 267.141 89.6208 265.343 90.4368 263.69L119.721 180.397C118.923 177.641 118.817 174.731 119.412 171.925C120.007 169.118 121.284 166.501 123.131 164.306C124.979 162.111 127.338 160.405 130.002 159.339C132.666 158.273 135.551 157.88 138.403 158.194Z" fill="#FFB7B7"/>
<path d="M104.998 190.022C104.998 190.022 120.776 216.979 143.587 203.502L121.48 288.1H102.854L83.5867 284.502L88.9816 249.549L104.998 190.022Z" fill="#E5E5E5"/>
<path d="M217.658 208.447L204.587 190.502C204.587 190.502 210.869 171.889 235.228 178.695C235.228 178.695 250.728 213.392 217.658 208.447Z" fill="#E5E5E5"/>
<path opacity="0.17" d="M217.658 208.447L204.587 190.502C204.587 190.502 210.869 171.889 235.228 178.695C235.228 178.695 250.728 213.392 217.658 208.447Z" fill="#2F2E41"/>
<path d="M221.118 145.751C224.889 147.504 227.905 150.552 229.619 154.341C231.332 158.13 231.628 162.408 230.453 166.397L259.737 249.69C260.553 251.343 261.034 253.141 261.153 254.981C261.272 256.821 261.026 258.666 260.429 260.41C259.832 262.155 258.897 263.764 257.676 265.146C256.455 266.527 254.974 267.654 253.316 268.461C251.658 269.268 249.857 269.739 248.017 269.848C246.177 269.957 244.333 269.7 242.592 269.094C240.851 268.488 239.247 267.543 237.872 266.315C236.497 265.087 235.378 263.598 234.581 261.936L207.044 177.709C206.245 177.389 205.471 177.009 204.729 176.571C202.706 175.365 200.948 173.762 199.56 171.86C198.173 169.958 197.184 167.794 196.653 165.5C196.122 163.206 196.06 160.828 196.472 158.51C196.883 156.191 197.759 153.979 199.046 152.008C200.459 149.847 202.333 148.026 204.533 146.675C206.733 145.324 209.205 144.477 211.771 144.195C214.971 143.832 218.208 144.371 221.118 145.751Z" fill="#FFB7B7"/>
<path d="M204.587 190.502C204.587 190.502 226.152 203.587 235.228 178.695L265.617 258.709L256.587 274.502L255.281 274.611C249.894 275.06 244.478 274.195 239.5 272.089C234.521 269.984 230.128 266.702 226.697 262.524C219.7 254.004 214.936 243.874 212.837 233.05L204.587 190.502Z" fill="#E5E5E5"/>
</svg>
