<svg width="85" height="85" viewBox="0 0 85 85" fill="none" xmlns="http://www.w3.org/2000/svg">
<path d="M0 0H85V85H0V0Z" fill="#0076B2"/>
<path d="M19.31 35.36H29.18V67.1H19.31V35.36ZM24.25 19.59C25.3813 19.59 26.4872 19.9255 27.4279 20.554C28.3685 21.1825 29.1017 22.0759 29.5346 23.121C29.9675 24.1662 30.0808 25.3163 29.8601 26.4259C29.6394 27.5355 29.0946 28.5547 28.2947 29.3546C27.4947 30.1546 26.4755 30.6994 25.3659 30.9201C24.2563 31.1408 23.1062 31.0275 22.061 30.5946C21.0158 30.1617 20.1225 29.4285 19.494 28.4879C18.8655 27.5472 18.53 26.4413 18.53 25.31C18.53 23.793 19.1326 22.3381 20.2053 21.2654C21.278 20.1926 22.733 19.59 24.25 19.59Z" fill="white"/>
<path d="M35.37 35.36H44.82V39.7H45C45.9466 38.0825 47.3143 36.752 48.9573 35.8504C50.6003 34.9487 52.4572 34.5097 54.33 34.58C64.33 34.58 66.16 41.15 66.16 49.69V67.1H56.3V51.67C56.3 47.99 56.24 43.25 51.18 43.25C46.12 43.25 45.26 47.25 45.26 51.4V67.1H35.41L35.37 35.36Z" fill="white"/>
</svg>
