<svg width="133" height="93" viewBox="0 0 133 93" fill="none" xmlns="http://www.w3.org/2000/svg">
<path d="M102.558 65.71C90.8775 66.41 79.3376 62.99 67.6376 62.63C66.1853 62.5344 64.7268 62.6251 63.2976 62.9C61.8094 63.3035 60.368 63.8633 58.9975 64.57C52.7275 67.49 46.2375 69.91 39.7575 72.32L32.3075 75.09C30.8585 75.7445 29.2875 76.0853 27.6976 76.09C26.9876 76.09 26.1176 75.94 25.6976 76.53C24.4876 78.33 25.0576 80.96 25.8576 82.98C26.1176 83.63 26.5575 84.34 27.2575 84.41C27.7488 84.3769 28.2299 84.2549 28.6775 84.05C30.0275 83.69 31.3775 84.6 32.7775 84.75C34.4975 84.93 36.0975 83.95 37.7275 83.35C40.4275 82.35 43.3675 82.35 46.2075 81.91C50.9575 81.12 55.3675 78.91 59.4875 76.4C60.9856 75.3324 62.6618 74.5401 64.4375 74.06C66.5412 73.8119 68.6737 74.0549 70.6676 74.77C75.5131 76.1373 80.2831 77.7596 84.9575 79.63C87.3877 80.6876 89.8788 81.5992 92.4175 82.36C97.9591 83.8098 103.818 83.4595 109.148 81.36C111.018 80.62 113.048 79.36 113.148 77.3C113.218 76.15 112.318 75.14 111.728 74.15C111.348 73.52 110.958 72.89 110.548 72.28C108.548 69.38 106.108 65.5 102.558 65.71Z" fill="#2F2E41"/>
<path d="M44.4301 78.34C46.2567 78.96 48.1001 79.5333 49.9601 80.06C50.9601 78.35 52.96 77.16 53.39 75.2C53.415 75.1152 53.415 75.0249 53.39 74.94C53.3407 74.857 53.2676 74.7908 53.1801 74.75C51.843 74.0159 50.3619 73.5825 48.84 73.4801C47.64 73.4101 47.09 74.66 46.55 75.54C46.34 75.93 44.9201 78.53 44.4301 78.34Z" fill="#FBBEBE"/>
<path d="M46.1076 76.95C45.561 76.8575 45.0397 76.6523 44.5766 76.3476C44.1135 76.0429 43.7188 75.6453 43.4176 75.18C43.1676 74.73 42.8876 74.12 42.3676 74.18C41.8476 74.24 41.6776 74.78 41.5676 75.25C41.2214 77.0219 40.716 78.759 40.0576 80.44C39.3977 82.1298 38.279 83.6018 36.8276 84.69C36.1476 85.16 35.3976 85.51 34.7276 86.01C34.1729 86.5015 33.5811 86.9494 32.9576 87.35C32.5163 87.5477 32.0619 87.7148 31.5976 87.85C30.9144 88.1071 30.2634 88.4427 29.6576 88.85C29.1182 89.1597 28.6618 89.5955 28.3276 90.12C28.1623 90.3824 28.0664 90.6825 28.0489 90.9921C28.0314 91.3017 28.0929 91.6106 28.2276 91.89C28.3675 92.1201 28.555 92.3177 28.7774 92.4694C28.9999 92.6212 29.2523 92.7237 29.5176 92.77C30.0513 92.8498 30.5939 92.8498 31.1276 92.77C33.2576 92.62 35.3876 92.43 37.5176 92.24C38.4154 92.182 39.3078 92.0583 40.1876 91.87L41.5776 91.49C42.3717 91.2801 43.1867 91.1594 44.0076 91.13C44.2465 91.1081 44.4875 91.1318 44.7176 91.2C45.2076 91.36 45.5576 91.85 46.0676 91.95C46.4065 91.9826 46.7483 91.9381 47.0676 91.82C48.622 91.4869 50.2079 91.3226 51.7976 91.33C52.4976 91.33 53.3176 91.15 53.6376 90.53C54.0376 89.75 53.3776 88.88 53.1076 88.04C52.9784 87.5057 52.9047 86.9594 52.8876 86.41C52.7682 85.05 52.3699 83.7293 51.7176 82.53C51.1776 81.53 50.4376 80.43 50.8176 79.37C51.0066 79.0332 51.1288 78.6631 51.1776 78.28C51.0276 76.56 47.0876 77.17 46.1076 76.95Z" fill="#2F2E41"/>
<path d="M86.9301 45.14C84.8573 44.2315 83.1964 42.5849 82.2701 40.52C82.0801 40.08 81.92 39.61 81.73 39.17C81.1199 37.6798 80.1676 36.354 78.95 35.3001C78.8216 35.1639 78.6666 35.0554 78.4946 34.9814C78.3226 34.9075 78.1373 34.8696 77.95 34.8701C77.7642 34.9261 77.5968 35.0306 77.4649 35.173C77.3331 35.3154 77.2416 35.4905 77.2 35.6801C77.0883 36.0869 77.0611 36.5123 77.12 36.9301C77.2217 37.9134 77.3887 38.8889 77.62 39.85L78.19 42.4301C78.2655 42.8247 78.3829 43.2102 78.54 43.58C78.7839 44.0124 79.106 44.3956 79.4901 44.71C80.0101 45.19 80.54 45.6501 81.07 46.1101C81.3765 46.3767 81.7119 46.6082 82.07 46.8001C82.6286 47.0665 83.2261 47.2421 83.84 47.32C86.2261 47.6306 88.503 48.5085 90.48 49.88C90.48 49.88 90.48 48.15 90.48 47.96C90.4548 47.4574 90.2807 46.9736 89.98 46.57C89.0641 45.9029 88.0287 45.4175 86.9301 45.14V45.14Z" fill="#FBBEBE"/>
<path opacity="0.1" d="M87.0476 44.97C84.9749 44.0615 83.3139 42.4148 82.3876 40.35C82.1976 39.91 82.0376 39.44 81.8476 39C81.2375 37.5097 80.2851 36.184 79.0676 35.13C78.9391 34.9938 78.7841 34.8854 78.6121 34.8114C78.4401 34.7374 78.2548 34.6996 78.0676 34.7C77.8818 34.756 77.7143 34.8606 77.5825 35.003C77.4506 35.1454 77.3592 35.3205 77.3176 35.51C77.2059 35.9168 77.1786 36.3423 77.2376 36.76C77.3393 37.7434 77.5063 38.7188 77.7376 39.68L78.3076 42.26C78.3831 42.6547 78.5004 43.0402 78.6576 43.41C78.9014 43.8423 79.2236 44.2255 79.6076 44.54C80.1276 45.02 80.6576 45.48 81.1876 45.94C81.4941 46.2067 81.8295 46.4381 82.1876 46.63C82.7461 46.8965 83.3437 47.072 83.9576 47.15C86.3436 47.4606 88.6206 48.3384 90.5976 49.71C90.5976 49.71 90.5976 47.98 90.5976 47.79C90.5723 47.2873 90.3983 46.8035 90.0976 46.4C89.1816 45.7329 88.1463 45.2474 87.0476 44.97V44.97Z" fill="black"/>
<path d="M108.95 20.82C108.19 20.6376 107.389 20.752 106.71 21.14C106.382 21.4317 106.12 21.7896 105.94 22.19C105.304 23.2841 104.807 24.4531 104.46 25.67C104.21 26.67 104.17 27.8 103.85 28.83C103.27 30.73 101.78 32.34 101.61 34.32C101.53 35.21 101.68 36.25 101.03 36.85C100.871 36.9877 100.7 37.1115 100.52 37.22C100.07 37.5202 99.6882 37.9121 99.4001 38.37C99.2042 38.7778 98.9366 39.147 98.61 39.46C98.03 39.89 97.07 39.85 96.79 40.46C96.51 41.07 97.24 41.9 97.07 42.62C96.9 43.34 96.27 43.48 95.82 43.88C95.2899 44.4397 94.9173 45.1297 94.7401 45.88C93.7896 46.0631 92.8108 46.0373 91.8714 45.8042C90.932 45.5711 90.0546 45.1363 89.3 44.53C89.9599 46.5343 90.248 48.6422 90.1501 50.75C90.1998 51.0872 90.1812 51.431 90.0953 51.7608C90.0094 52.0907 89.858 52.3999 89.6501 52.67C91.9059 52.838 94.1399 53.2265 96.32 53.83C97.2645 54.1449 98.2856 54.1449 99.23 53.83C99.7358 53.5586 100.189 53.1997 100.57 52.77C101.77 51.55 103.03 50.22 103.32 48.53C103.392 47.5751 103.409 46.6169 103.37 45.66C103.484 44.4733 103.729 43.3029 104.1 42.17C104.733 39.8186 105.158 37.416 105.37 34.99C105.5 33.49 106.8 32.29 107.48 30.99C108.76 28.46 110.08 25.83 110.17 22.99C110.21 22.07 109.89 20.92 108.95 20.82Z" fill="#2F2E41"/>
<path opacity="0.1" d="M109.068 20.6499C108.307 20.4675 107.506 20.582 106.828 20.97C106.5 21.2617 106.237 21.6195 106.058 22.0199C105.422 23.114 104.925 24.2831 104.578 25.5C104.328 26.5 104.288 27.63 103.968 28.66C103.388 30.56 101.898 32.1699 101.728 34.1499C101.648 35.0399 101.798 36.08 101.148 36.68C100.988 36.8177 100.818 36.9414 100.638 37.05C100.187 37.3501 99.8058 37.742 99.5176 38.2C99.3218 38.6078 99.0542 38.977 98.7276 39.29C98.1476 39.72 97.1876 39.68 96.9076 40.29C96.6276 40.9 97.3576 41.73 97.1876 42.45C97.0176 43.17 96.3876 43.3099 95.9376 43.7099C95.4075 44.2697 95.0349 44.9597 94.8576 45.7099C93.9072 45.8931 92.9283 45.8673 91.9889 45.6341C91.0495 45.401 90.1721 44.9662 89.4176 44.36C90.0775 46.3642 90.3655 48.4721 90.2676 50.5799C90.3174 50.9171 90.2987 51.2609 90.2128 51.5908C90.1269 51.9207 89.9755 52.2299 89.7676 52.5C92.0235 52.6679 94.2575 53.0564 96.4376 53.66C97.382 53.9749 98.4032 53.9749 99.3476 53.66C99.8534 53.3885 100.307 53.0297 100.688 52.6C101.888 51.38 103.148 50.05 103.438 48.36C103.509 47.4051 103.526 46.4468 103.488 45.49C103.602 44.3033 103.846 43.1329 104.218 42C104.851 39.6485 105.276 37.2459 105.488 34.82C105.618 33.32 106.918 32.12 107.598 30.82C108.878 28.29 110.198 25.66 110.288 22.82C110.328 21.9 110.008 20.7499 109.068 20.6499Z" fill="black"/>
<path d="M112 15.8701C112.489 16.8519 112.575 17.9856 112.24 19.03C111.895 20.0557 111.421 21.0334 110.83 21.94C110.322 22.874 109.708 23.7465 109 24.54C112.38 24.7 115.65 23.38 118.62 21.78C121.02 20.49 123.41 18.9001 124.69 16.4901C124.308 16.581 123.911 16.5906 123.525 16.5182C123.139 16.4459 122.773 16.2932 122.45 16.07C121.805 15.6265 121.229 15.0908 120.74 14.48L119.05 12.58C118.667 12.162 118.331 11.7025 118.05 11.21C117.679 10.5363 117.522 9.76529 117.6 9C116.926 9.70273 116.175 10.3268 115.36 10.86C114.15 11.65 112.82 12.22 111.6 13C111.18 13.28 110.22 13.72 110.47 14.28C110.72 14.84 111.66 15.2701 112 15.8701Z" fill="#FBBEBE"/>
<path opacity="0.1" d="M110.98 13.8701C111.469 14.8519 111.555 15.9856 111.22 17.03C110.875 18.0557 110.401 19.0334 109.81 19.94C109.302 20.874 108.688 21.7465 107.98 22.54C111.36 22.7 114.63 21.38 117.6 19.78C120 18.49 122.39 16.9001 123.67 14.4901C123.288 14.581 122.891 14.5906 122.505 14.5182C122.119 14.4459 121.753 14.2932 121.43 14.07C120.785 13.6265 120.209 13.0908 119.72 12.48L118.03 10.58C117.647 10.162 117.311 9.70253 117.03 9.21002C116.659 8.53631 116.502 7.76529 116.58 7C115.906 7.70273 115.155 8.32677 114.34 8.86005C113.13 9.65005 111.8 10.22 110.58 11C110.16 11.28 109.2 11.72 109.45 12.28C109.7 12.84 110.64 13.2701 110.98 13.8701Z" fill="black"/>
<path d="M112.138 14.03C111.795 14.5121 111.611 15.0887 111.611 15.68C111.611 16.2713 111.795 16.8479 112.138 17.33C112.238 17.45 112.597 18.2 112.747 18.21C112.821 18.2038 112.893 18.183 112.958 18.1486C113.023 18.1143 113.081 18.0671 113.128 18.01C113.896 17.2083 114.611 16.3564 115.268 15.46C115.937 14.5658 116.9 13.9358 117.987 13.68C119.335 13.6286 120.659 14.0416 121.737 14.85C122.239 15.0789 122.681 15.4212 123.028 15.85C123.269 16.2908 123.412 16.7786 123.448 17.28C123.774 20.2983 123.901 23.3349 123.828 26.37C123.885 28.5619 123.741 30.7544 123.398 32.92C123.178 34.03 122.858 35.12 122.708 36.25C122.59 37.2455 122.543 38.248 122.568 39.25V43.43C122.541 44.1968 122.594 44.9643 122.727 45.72C122.927 46.63 123.358 47.48 123.648 48.37C123.947 49.3924 124.151 50.4401 124.258 51.5L124.828 55.82C125.008 57.18 125.148 58.67 124.318 59.82C123.948 60.31 123.458 60.71 123.078 61.2C121.668 63.04 122.078 65.67 121.528 67.92C121.064 69.5669 120.108 71.0325 118.788 72.12C118.317 72.5859 117.749 72.9428 117.126 73.1657C116.502 73.3885 115.837 73.472 115.177 73.41C113.417 73.08 112.368 71.25 111.888 69.52C111.408 67.79 111.238 65.91 110.198 64.45C109.243 63.3449 108.115 62.4025 106.858 61.66C105.585 60.9062 104.651 59.6927 104.247 58.27C104.137 57.64 104.248 56.99 104.138 56.35C104.044 55.5445 103.735 54.7791 103.244 54.1336C102.754 53.488 102.098 52.986 101.348 52.68C100.448 52.33 99.3475 52.2 98.8275 51.38C100.115 50.5739 101.053 49.3143 101.457 47.85C101.855 46.3957 102.07 44.8975 102.098 43.39L102.397 38.39C102.537 36.14 102.597 33.92 103.587 31.9C104.027 31 104.588 30.15 105.038 29.26C105.647 28.0094 106.165 26.7159 106.587 25.39C107.307 23.33 108.028 21.27 108.668 19.19C108.917 18.1802 109.301 17.2083 109.807 16.3C110.347 15.36 111.128 14.23 112.138 14.03Z" fill="#E8E8F0"/>
<path d="M101.988 46.67H103.318L103.598 44.67C103.634 44.2685 103.728 43.8744 103.878 43.5C104.097 43.1026 104.355 42.7275 104.648 42.38C105.948 40.53 105.858 38.08 106.178 35.83C106.757 32.8572 107.74 29.9774 109.098 27.27L111.678 21.52C111.912 21.0497 112.1 20.5573 112.238 20.05C112.346 19.4898 112.399 18.9205 112.398 18.35C112.398 17.46 112.678 14.22 112.708 13.35C112.708 13.02 111.978 13.2 111.828 12.91C111.508 12.27 111.068 14 110.458 14.38C109.884 14.8174 109.467 15.4274 109.268 16.12C108.708 17.56 108.368 19.12 107.848 20.55C107.395 22.0425 106.565 23.3928 105.438 24.47C104.908 24.93 104.298 25.3 103.798 25.8C102.198 27.38 102.038 29.89 101.988 32.15C101.948 33.53 101.688 46.67 101.988 46.67Z" fill="#2F2E41"/>
<path d="M120.128 18.6399C119.509 18.9632 118.974 19.4246 118.563 19.9882C118.152 20.5518 117.876 21.2026 117.758 21.8899C117.529 23.2689 117.126 24.613 116.558 25.8899C114.938 28.7099 110.808 29.53 109.658 32.58C109.368 33.6056 109.214 34.6645 109.198 35.73C108.998 37.92 108.278 40.03 108.058 42.21C107.948 43.9068 107.988 45.6102 108.178 47.3L109.628 64.52C109.905 67.053 109.76 69.6146 109.198 72.1C110.684 72.312 112.199 72.0606 113.538 71.38C114.888 70.76 116.128 69.91 117.438 69.19C119.678 67.95 122.158 67.08 124.128 65.43C124.481 65.1486 124.785 64.8107 125.028 64.43C125.329 63.7073 125.531 62.947 125.628 62.17C125.798 61.5607 126.015 60.9655 126.278 60.3899C126.999 58.6516 127.627 56.8758 128.158 55.07C128.518 53.8754 128.806 52.6598 129.018 51.43C129.178 50.43 129.267 49.43 129.347 48.43C129.452 46.8794 129.761 45.3494 130.268 43.88C131.522 40.3685 132.234 36.6861 132.378 32.96C132.416 32.4241 132.379 31.8855 132.268 31.36C132.048 30.7172 131.752 30.1029 131.388 29.53C130.788 28.4 130.388 27.16 129.868 26.01C128.449 23.4772 126.417 21.3417 123.958 19.8C122.798 19.01 121.438 18.1699 120.128 18.6399Z" fill="#2F2E41"/>
<path d="M89.9176 49.74C88.8912 49.201 87.9618 48.4946 87.1676 47.65C86.8076 47.23 86.5076 46.76 86.1676 46.34C85.2403 45.3423 84.035 44.6456 82.7076 44.34C81.3945 44.0513 80.0517 43.9204 78.7076 43.95C77.8054 43.8895 76.8999 43.998 76.0376 44.27C75.6076 44.414 75.2204 44.6633 74.9113 44.9951C74.6021 45.3269 74.3809 45.7308 74.2676 46.17C74.2313 46.7136 74.3366 47.2573 74.5732 47.7481C74.8098 48.2389 75.1697 48.6598 75.6176 48.97C76.3983 49.6107 77.3204 50.0564 78.3076 50.27C79.1114 50.4127 79.9228 50.5095 80.7376 50.56C85.5176 51.06 89.7876 53.66 93.9776 56.03C97.6576 58.1233 101.411 60.07 105.238 61.87C105.386 60.7262 105.449 59.5731 105.428 58.42C105.428 57.56 105.358 56.24 104.548 55.73C103.395 55.2477 102.195 54.889 100.968 54.66C98.4999 53.8539 96.0908 52.8783 93.7576 51.74C92.4376 51.17 91.1676 50.47 89.9176 49.74Z" fill="#FBBEBE"/>
<path d="M27.9173 78.9407C27.4294 78.5144 27.0389 77.9881 26.7722 77.3976C26.5055 76.8071 26.3689 76.1661 26.3717 75.5182C26.3722 74.2153 26.0924 72.9276 25.5512 71.7425C25.3698 71.713 25.1839 71.7303 25.0111 71.7926C24.8383 71.855 24.6842 71.9604 24.5635 72.099C24.2977 72.3522 24.0871 72.6643 23.8022 72.9117C23.2529 73.3396 22.5016 73.4023 21.8829 73.7149C21.2643 74.0275 20.7579 74.6568 20.0981 74.9672C19.228 75.2728 18.2935 75.3471 17.3861 75.1826C15.9636 75.0755 14.5332 75.1542 13.131 75.417C12.6078 75.5461 12.0712 75.6135 11.5322 75.6177C10.9621 75.5322 10.4078 75.3625 9.88758 75.1141L6.20223 73.6928C5.90158 73.5437 5.5786 73.4448 5.24605 73.4C4.81896 73.4212 4.41132 73.5851 4.08844 73.8655C3.76557 74.1459 3.54614 74.5264 3.46525 74.9463C3.38636 75.3632 3.39676 75.792 3.49579 76.2045C3.59482 76.617 3.78024 77.0038 4.03976 77.3394C4.55032 78.0098 5.15998 78.5985 5.8478 79.0853C8.74963 81.3251 11.8333 83.3188 15.0666 85.0457L14.8383 85.7916C16.8738 87.7009 19.3196 89.1188 21.988 89.9366C22.1804 90.0084 22.3865 90.0358 22.591 90.0166C22.8911 89.9087 23.1421 89.6958 23.2974 89.4172C25.0125 87.0537 26.3872 84.4612 27.3814 81.7154C27.6598 81.0257 27.8234 80.2951 27.8659 79.5525C27.8634 78.8092 28.4832 79.3127 27.915 78.8459" fill="#2F2E41"/>
<path opacity="0.1" d="M104.12 65.41C92.4403 66.11 80.9003 62.69 69.2003 62.33C67.748 62.2344 66.2895 62.3251 64.8603 62.6C63.3721 63.0035 61.9307 63.5634 60.5603 64.27C54.2903 67.19 47.8003 69.61 41.3203 72.02L33.8703 74.79C32.4213 75.4445 30.8503 75.7853 29.2603 75.79C28.5503 75.79 27.6803 75.64 27.2603 76.23C26.0503 78.03 26.6203 80.66 27.4203 82.68C27.6803 83.33 28.1203 84.04 28.8203 84.11C29.3115 84.0769 29.7926 83.9549 30.2403 83.75C31.5903 83.39 32.9403 84.3 34.3403 84.45C36.0603 84.63 37.6603 83.65 39.2903 83.05C41.9903 82.05 44.9303 82.05 47.7703 81.61C52.5203 80.82 56.9303 78.61 61.0503 76.1C62.5483 75.0324 64.2245 74.2401 66.0003 73.76C68.1039 73.5119 70.2364 73.7549 72.2303 74.47C77.0759 75.8373 81.8458 77.4596 86.5203 79.33C88.9504 80.3876 91.4415 81.2992 93.9803 82.06C99.5219 83.5098 105.381 83.1596 110.71 81.06C112.58 80.32 114.61 79.06 114.71 77C114.78 75.85 113.88 74.84 113.29 73.85C112.91 73.22 112.52 72.59 112.11 71.98C110.11 69.08 107.67 65.2 104.12 65.41Z" fill="black"/>
<path d="M103.97 62.87C101.54 61.71 99.7603 59.56 97.7903 57.71C94.0403 54.18 89.4503 51.71 85.5003 48.38C82.8803 46.19 80.5003 43.64 77.6703 41.8C75.1354 40.1929 72.2647 39.1904 69.2803 38.87C68.9513 38.7943 68.6094 38.7943 68.2803 38.87C67.9024 39.0307 67.5744 39.2897 67.3303 39.62C66.055 41.0586 64.9198 42.6157 63.9403 44.27C58.9403 52.77 51.8303 59.91 45.9403 67.81C45.8051 67.974 45.7062 68.1649 45.6503 68.37C45.6254 68.6764 45.7028 68.9823 45.8703 69.24L47.0703 71.58C47.7403 72.9 48.8203 74.43 50.2603 74.17C50.9088 73.9823 51.4888 73.6107 51.9303 73.1L57.3103 67.95L62.9503 62.56C66.2503 59.41 69.6103 56.18 71.7703 52.14C73.4503 55.06 76.4403 56.97 78.4803 59.64C79.2603 60.64 79.9003 61.77 80.6003 62.85C81.7103 64.57 82.9803 66.19 84.2403 67.85L90.7103 76.1C91.5302 77.2652 92.5451 78.2801 93.7103 79.1C95.3056 79.9684 97.0845 80.4449 98.9003 80.49C101.331 80.7066 103.771 80.7934 106.21 80.75C108.079 80.8252 109.94 80.4836 111.66 79.75C112.518 79.3731 113.25 78.7603 113.772 77.983C114.295 77.2058 114.585 76.2961 114.61 75.36C114.511 74.3914 114.193 73.458 113.68 72.63C111.34 68.46 108.32 64.94 103.97 62.87Z" fill="#2F2E41"/>
<path d="M111.39 21.42C116.096 21.42 119.91 17.5831 119.91 12.85C119.91 8.1169 116.096 4.27997 111.39 4.27997C106.685 4.27997 102.87 8.1169 102.87 12.85C102.87 17.5831 106.685 21.42 111.39 21.42Z" fill="#FBBEBE"/>
<path d="M123.12 30.05C122.44 31.0049 121.886 32.0435 121.47 33.14C120.47 35.3 118.77 37.14 117.94 39.43C117.11 41.72 117.1 44.66 115.39 46.53C115.048 46.8163 114.789 47.1893 114.64 47.61C114.634 47.8717 114.607 48.1324 114.56 48.39C114.31 49.07 113.2 49.1 112.99 49.8C112.93 50 112.99 50.22 112.89 50.42C112.72 50.87 112.12 50.94 111.73 51.21C110.9 51.77 111.07 53.07 110.48 53.88C110.223 54.1817 109.89 54.4099 109.516 54.5416C109.142 54.6733 108.74 54.7038 108.35 54.63C107.575 54.4718 106.829 54.1916 106.14 53.8C105.893 53.6645 105.621 53.5795 105.34 53.55C105.009 53.5617 104.688 53.6732 104.42 53.87C103.666 54.4255 103.062 55.1592 102.66 56.0056C102.259 56.8519 102.073 57.7845 102.12 58.72C102.235 60.5939 102.682 62.4326 103.44 64.15C103.525 64.4475 103.671 64.7236 103.87 64.96C104.168 65.1938 104.529 65.3338 104.906 65.3623C105.284 65.3907 105.661 65.3064 105.99 65.12C106.643 64.7325 107.337 64.4205 108.06 64.19C109.38 63.95 110.67 64.86 112.01 64.78C112.986 64.636 113.905 64.2318 114.67 63.61C116.016 62.8072 117.225 61.7944 118.25 60.61C118.83 59.84 119.25 58.97 119.77 58.15C120.432 57.1534 121.15 56.1951 121.92 55.28L126.84 49.28C127.329 48.7101 127.771 48.1015 128.16 47.46C128.598 46.5845 128.933 45.6618 129.16 44.71C129.686 43.1254 130.022 41.4839 130.16 39.82C130.191 38.4443 130.07 37.0693 129.8 35.72C129.651 34.3764 129.315 33.0603 128.8 31.81C127.73 29.55 125.13 27.71 123.12 30.05Z" fill="#2F2E41"/>
<path d="M121.45 15.5C121.458 13.9809 122.135 15.3675 121.45 14.0116C120.765 12.6556 121.728 11.8301 120.728 10.8301C120.688 8.13133 120.45 10 120.95 8C121.2 7 120.95 6 120.95 5.5C120.95 1.67639 120.731 4.62669 118.69 3C116.65 1.37331 116.19 1 114.19 0.5C111.582 0.570573 114.19 0.5 110.69 0C108.741 1.73465 106.934 -0.532782 106.56 2.05007C103.02 1.25007 99.7804 2.29005 99.1904 4.47005C98.6004 6.65005 101.1 9.47005 104.83 10.4701C106.007 10.7996 107.232 10.9214 108.45 10.8301C109.319 12.1098 110.445 13.1935 111.758 14.0116C113.07 14.8296 114.539 15.364 116.07 15.5801C116.524 17.6416 116.981 17.4847 118.45 19.0001C119.92 20.5154 118.644 17.9832 120.69 18.5001C121.142 16.4305 120.69 18.0477 120.69 17.5001C118.93 17.5001 118.897 19.0791 119.69 18.5C117.875 19.8254 119.19 19.0346 119.19 19.5C119.69 20.5346 118.521 18.8651 119.19 19.5346C119.507 20.5692 119.874 20.0346 119.69 19.5346C120.69 19.5346 119.744 19.5 120.69 19.5C120.007 17.0345 119.816 19.4419 120.69 19.0795C120.69 18.0795 120.521 19.1261 121.19 18.4566C121.378 18.0238 121.088 18.8073 121.45 17.9326C120.95 16.4326 121.19 18.4469 121.19 17.5001C119.93 17.8818 121.906 18.2051 121.45 17.2033C121.58 16.0668 121.473 17.2481 121.45 15.5Z" fill="#CB6E00"/>
<path opacity="0.1" d="M126.998 28.76C126.983 28.4869 126.983 28.2131 126.998 27.94C125.871 26.9772 124.991 25.7604 124.428 24.39C122.378 23.8754 120.513 22.7986 119.043 21.2808C117.573 19.763 116.556 17.8648 116.108 15.8C114.575 15.5882 113.104 15.0568 111.789 14.2402C110.475 13.4237 109.347 12.3403 108.478 11.06C107.768 11.1191 107.053 11.099 106.348 11C107.223 12.1778 108.324 13.1703 109.585 13.9204C110.847 14.6705 112.244 15.1632 113.698 15.37C114.151 17.4315 115.17 19.3259 116.639 20.8413C118.109 22.3567 119.971 23.4331 122.018 23.95C122.587 25.3166 123.467 26.5319 124.588 27.5C124.588 27.77 124.588 28.05 124.588 28.33C124.555 30.2682 125.291 32.1406 126.634 33.5382C127.978 34.9359 129.82 35.7453 131.758 35.79C130.344 35.2411 129.13 34.2741 128.28 33.0181C127.429 31.7621 126.982 30.2768 126.998 28.76V28.76Z" fill="black"/>
<path d="M116.8 16.5795C117.376 16.1419 117.37 15.1632 116.785 14.3936C116.2 13.6239 115.259 13.3548 114.683 13.7924C114.107 14.23 114.114 15.2087 114.699 15.9783C115.283 16.748 116.224 17.0171 116.8 16.5795Z" fill="#FBBEBE"/>
<path d="M80 35L82.18 35.44L89.61 46.43L86.34 46.87L80 35Z" fill="#2F2E41"/>
</svg>
