<svg width="644" height="493" viewBox="0 0 644 493" fill="none" xmlns="http://www.w3.org/2000/svg">
<path d="M350.232 90.4248H292.719C286.103 90.4248 280.737 84.4697 280.737 77.127V13.2978C280.737 5.95508 286.103 0 292.719 0H350.232C356.848 0 362.214 5.95508 362.214 13.2978V77.127C362.214 84.4697 356.848 90.4248 350.232 90.4248Z" fill="#152536"/>
<path d="M308.191 65.6216L291.521 47.1203C290.583 46.0796 290.583 44.403 291.521 43.3623L308.191 24.861C309.129 23.8203 310.64 23.8203 311.578 24.861C312.515 25.9017 312.515 27.5784 311.578 28.6191L296.574 45.2702L311.578 61.9213C312.515 62.962 312.515 64.6387 311.578 65.6794C310.64 66.6623 309.129 66.6622 308.191 65.6216Z" fill="white"/>
<path d="M331.374 65.621C330.436 64.5803 330.436 62.9036 331.374 61.8629L346.377 45.2118L331.374 28.5607C330.436 27.52 330.436 25.8433 331.374 24.8026C332.311 23.762 333.822 23.762 334.76 24.8026L351.43 43.3039C352.368 44.3446 352.368 46.0213 351.43 47.0619L334.76 65.5632C333.822 66.6617 332.311 66.6617 331.374 65.621Z" fill="white"/>
<path d="M317.985 66.3153C316.683 66.0262 315.797 64.6387 316.058 63.1932L322.153 26.133C322.413 24.6876 323.664 23.7047 324.966 23.9938C326.268 24.2829 327.154 25.6704 326.894 27.1159L320.798 64.1761C320.538 65.6215 319.288 66.6044 317.985 66.3153Z" fill="#8C8F98"/>
<path d="M254.548 99.4428C258.28 99.4428 259.852 100.7 259.852 102.814V104.471C259.852 106.643 258.084 107.786 254.351 107.786H251.994V113.215H249.342V99.4999H254.548V99.4428ZM254.253 106.357C256.218 106.357 257.102 105.843 257.102 104.529V102.7C257.102 101.443 256.316 100.814 254.45 100.814H251.896V106.357H254.253Z" fill="#152536"/>
<path d="M267.219 99.4424C270.952 99.4424 272.425 100.528 272.425 102.585V103.728C272.425 105.214 271.541 106.185 269.478 106.528C271.639 106.928 272.425 107.9 272.425 109.385V111.5C272.425 112.128 272.425 112.7 272.916 113.157H270.264C269.969 112.757 269.871 112.414 269.871 111.5V109.328C269.871 107.785 268.594 107.271 266.433 107.271H264.567V113.1H261.915V99.3852H267.219V99.4424ZM266.531 105.9C268.594 105.9 269.871 105.5 269.871 104.014V102.7C269.871 101.442 269.085 100.814 267.121 100.814H264.567V105.9H266.531V105.9Z" fill="#152536"/>
<path d="M274.979 102.757C274.979 100.643 276.747 99.3285 280.381 99.3285C284.016 99.3285 285.784 100.7 285.784 102.757V109.843C285.784 111.9 284.016 113.272 280.381 113.272C276.747 113.272 274.979 111.9 274.979 109.843V102.757ZM277.631 109.957C277.631 111.215 278.515 111.957 280.381 111.957C282.346 111.957 283.132 111.215 283.132 109.957V102.7C283.132 101.443 282.248 100.7 280.381 100.7C278.515 100.7 277.631 101.443 277.631 102.7V109.957Z" fill="#152536"/>
<path d="M298.652 102.757V103.957H296.196V102.7C296.196 101.442 295.312 100.7 293.445 100.7C291.579 100.7 290.695 101.442 290.695 102.7V109.957C290.695 111.214 291.579 111.957 293.445 111.957C295.41 111.957 296.196 111.214 296.196 109.957V107.214H293.74V105.843H298.652V109.9C298.652 111.957 296.982 113.328 293.347 113.328C289.713 113.328 288.043 111.957 288.043 109.9V102.814C288.043 100.757 289.713 99.3852 293.347 99.3852C296.982 99.3281 298.652 100.7 298.652 102.757Z" fill="#152536"/>
<path d="M306.411 99.4424C310.144 99.4424 311.617 100.528 311.617 102.585V103.728C311.617 105.214 310.733 106.185 308.67 106.528C310.831 106.928 311.617 107.9 311.617 109.385V111.5C311.617 112.128 311.617 112.7 312.108 113.157H309.456C309.162 112.757 309.063 112.414 309.063 111.5V109.328C309.063 107.785 307.786 107.271 305.625 107.271H303.759V113.1H301.107V99.3852H306.411V99.4424ZM305.724 105.9C307.786 105.9 309.063 105.5 309.063 104.014V102.7C309.063 101.442 308.277 100.814 306.313 100.814H303.759V105.9H305.724V105.9Z" fill="#152536"/>
<path d="M317.118 110.414L316.234 113.157H313.779L318.297 99.442H322.128L326.646 113.157H323.994L323.11 110.414H317.118ZM317.413 109.099H322.619L319.967 101.213L317.413 109.099Z" fill="#152536"/>
<path d="M337.352 113.157H334.799L330.87 102.242V113.157H328.61V99.442H332.245L336.076 110.414L339.808 99.442H343.442V113.157H340.987V102.128L337.352 113.157Z" fill="#152536"/>
<path d="M354.935 113.157H352.381L348.452 102.242V113.157H346.193V99.442H349.827L353.658 110.414L357.391 99.442H361.025V113.157H358.569V102.128L354.935 113.157Z" fill="#152536"/>
<path d="M366.526 99.442V113.157H363.874V99.442H366.526Z" fill="#152536"/>
<path d="M371.536 113.157H369.178V99.442H372.518L377.92 109.328V99.442H380.278V113.157H377.527L371.536 102.071V113.157Z" fill="#152536"/>
<path d="M393.342 102.757V103.957H390.886V102.7C390.886 101.442 390.002 100.7 388.136 100.7C386.269 100.7 385.385 101.442 385.385 102.7V109.957C385.385 111.214 386.269 111.957 388.136 111.957C390.1 111.957 390.886 111.214 390.886 109.957V107.214H388.43V105.843H393.342V109.9C393.342 111.957 391.672 113.328 388.038 113.328C384.403 113.328 382.733 111.957 382.733 109.9V102.814C382.733 100.757 384.403 99.3852 388.038 99.3852C391.672 99.3281 393.342 100.7 393.342 102.757Z" fill="#152536"/>
<path d="M485.263 39.3729V56.7178H487.243V39.3729C489.639 38.8526 491.411 36.5399 491.411 33.7648C491.411 30.5849 489.118 28.0409 486.253 28.0409C483.388 28.0409 481.096 30.5849 481.096 33.7648C481.096 36.5399 482.867 38.8526 485.263 39.3729ZM486.253 30.238C488.024 30.238 489.431 31.799 489.431 33.7648C489.431 35.7305 488.024 37.2916 486.253 37.2916C484.482 37.2916 483.075 35.7305 483.075 33.7648C483.075 31.799 484.482 30.238 486.253 30.238Z" fill="#8C8F98"/>
<path d="M475.574 56.7757H477.553V45.6171C477.553 44.9811 477.084 44.5186 476.563 44.5186H469.843C469.374 41.859 467.29 39.8933 464.79 39.8933C461.925 39.8933 459.632 42.4372 459.632 45.6171C459.632 48.797 461.925 51.3409 464.79 51.3409C467.29 51.3409 469.374 49.3752 469.843 46.7156H475.574V56.7757V56.7757ZM464.79 49.0861C463.019 49.0861 461.612 47.525 461.612 45.5593C461.612 43.5935 463.019 42.0325 464.79 42.0325C466.561 42.0325 467.968 43.5935 467.968 45.5593C467.916 47.525 466.509 49.0861 464.79 49.0861Z" fill="#8C8F98"/>
<path d="M507.716 39.8355C505.216 39.8355 503.132 41.8013 502.663 44.4608H495.943C495.37 44.4608 494.953 44.9811 494.953 45.5593V56.7179H496.933V46.6578H502.663C503.132 49.3174 505.216 51.2831 507.716 51.2831C510.582 51.2831 512.874 48.7392 512.874 45.5593C512.874 42.4372 510.582 39.8355 507.716 39.8355ZM507.716 49.0861C505.945 49.0861 504.539 47.5251 504.539 45.5593C504.539 43.5936 505.945 42.0325 507.716 42.0325C509.488 42.0325 510.894 43.5936 510.894 45.5593C510.894 47.5251 509.436 49.0861 507.716 49.0861Z" fill="#8C8F98"/>
<path d="M480.262 104.301H492.192V116.847H480.262V104.301Z" fill="#8C8F98"/>
<path d="M521.001 109.273H451.506C448.172 109.273 445.515 106.266 445.515 102.624V61.7479C445.515 58.0476 448.224 55.099 451.506 55.099H521.001C524.335 55.099 526.992 58.1054 526.992 61.7479V102.624C526.992 106.324 524.283 109.273 521.001 109.273Z" fill="#152536"/>
<path d="M522.98 94.0094V61.8057C522.98 60.5916 522.095 59.6087 521.001 59.6087H451.505C450.411 59.6087 449.526 60.5916 449.526 61.8057V94.0094C449.526 95.2235 450.411 96.2064 451.505 96.2064H521.001C522.095 96.2064 522.98 95.2235 522.98 94.0094Z" fill="white"/>
<path d="M497.089 118.466H475.365C474.584 118.466 473.958 117.772 473.958 116.905C473.958 116.037 474.584 115.344 475.365 115.344H497.089C497.87 115.344 498.495 116.037 498.495 116.905C498.548 117.772 497.922 118.466 497.089 118.466Z" fill="#152536"/>
<path d="M417.602 127.312V141.188H415.347V127.312H417.602Z" fill="#152536"/>
<path d="M427.291 141.129H425.119L421.778 130.086V141.129H419.857V127.253H422.948L426.205 138.354L429.379 127.253H432.47V141.129H430.382V129.971L427.291 141.129Z" fill="#152536"/>
<path d="M439.236 127.311C442.41 127.311 443.746 128.583 443.746 130.722V132.399C443.746 134.596 442.243 135.752 439.069 135.752H437.064V141.245H434.809V127.369H439.236V127.311ZM439.069 134.307C440.739 134.307 441.491 133.786 441.491 132.456V130.606C441.491 129.334 440.823 128.698 439.236 128.698H437.064V134.307H439.069Z" fill="#152536"/>
<path d="M445.584 141.129V127.253H447.839V139.684H453.602V141.072H445.584V141.129Z" fill="#152536"/>
<path d="M462.289 133.44V134.827H457.361V139.742H463.375V141.129H455.106V127.253H463.375V128.641H457.361V133.382H462.289V133.44Z" fill="#152536"/>
<path d="M472.897 141.129H470.725L467.384 130.086V141.129H465.463V127.253H468.554L471.811 138.354L474.985 127.253H478.075V141.129H475.987V129.971L472.897 141.129Z" fill="#152536"/>
<path d="M487.598 133.44V134.827H482.669V139.742H488.684V141.129H480.414V127.253H488.684V128.641H482.669V133.382H487.598V133.44Z" fill="#152536"/>
<path d="M492.776 141.129H490.771V127.253H493.611L498.289 137.256V127.253H500.293V141.129H497.955L492.86 129.913V141.129H492.776Z" fill="#152536"/>
<path d="M505.389 141.129V128.698H501.714V127.311H511.319V128.698H507.644V141.129H505.389Z" fill="#152536"/>
<path d="M513.992 138.354L513.24 141.129H511.152L514.994 127.253H518.252L522.094 141.129H519.839L519.087 138.354H513.992ZM514.326 137.024H518.753L516.498 129.046L514.326 137.024Z" fill="#152536"/>
<path d="M526.772 141.129V128.698H523.096V127.311H532.702V128.698H529.027V141.129H526.772Z" fill="#152536"/>
<path d="M536.461 127.311V141.187H534.206V127.311H536.461Z" fill="#152536"/>
<path d="M538.549 130.665C538.549 128.526 540.052 127.196 543.143 127.196C546.233 127.196 547.736 128.584 547.736 130.665V137.834C547.736 139.916 546.233 141.303 543.143 141.303C540.052 141.303 538.549 139.916 538.549 137.834V130.665ZM540.804 137.892C540.804 139.164 541.556 139.916 543.143 139.916C544.813 139.916 545.481 139.164 545.481 137.892V130.549C545.481 129.277 544.73 128.526 543.143 128.526C541.556 128.526 540.804 129.277 540.804 130.549V137.892Z" fill="#152536"/>
<path d="M551.829 141.129H549.825V127.253H552.665L557.342 137.256V127.253H559.347V141.129H557.008L551.913 129.913V141.129H551.829Z" fill="#152536"/>
<path d="M625.66 202.473L617.898 203.456L615.606 208.139L610.709 207.098L600.759 217.332L601.905 222.419L597.477 225.773L594.195 222.94L585.234 229.3L584.922 235.717L579.452 236.411L578.253 229.184L569.137 222.419L565.646 224.443V268.962H629.776V206.231L625.66 202.473Z" fill="#8C8F98"/>
<path d="M635.089 272.72H560.385C558.509 272.72 556.998 271.043 556.998 268.962C556.998 266.88 558.509 265.204 560.385 265.204H635.089C636.965 265.204 638.476 266.88 638.476 268.962C638.476 271.043 636.965 272.72 635.089 272.72Z" fill="#152536"/>
<path d="M565.646 226.235C562.468 226.235 559.864 223.345 559.864 219.818C559.864 216.291 562.468 213.4 565.646 213.4C568.824 213.4 571.429 216.291 571.429 219.818C571.429 223.345 568.824 226.235 565.646 226.235ZM565.646 216.985C564.24 216.985 563.094 218.257 563.094 219.818C563.094 221.379 564.24 222.651 565.646 222.651C567.053 222.651 568.199 221.379 568.199 219.818C568.251 218.257 567.053 216.985 565.646 216.985Z" fill="#152536"/>
<path d="M581.692 238.203C578.514 238.203 575.909 235.313 575.909 231.786C575.909 228.259 578.514 225.368 581.692 225.368C584.869 225.368 587.474 228.259 587.474 231.786C587.474 235.313 584.869 238.203 581.692 238.203ZM581.692 228.953C580.285 228.953 579.139 230.225 579.139 231.786C579.139 233.347 580.285 234.619 581.692 234.619C583.098 234.619 584.244 233.347 584.244 231.786C584.244 230.225 583.098 228.953 581.692 228.953Z" fill="#152536"/>
<path d="M597.737 226.871C594.559 226.871 591.955 223.981 591.955 220.454C591.955 216.927 594.559 214.036 597.737 214.036C600.915 214.036 603.52 216.927 603.52 220.454C603.52 223.981 600.915 226.871 597.737 226.871ZM597.737 217.621C596.331 217.621 595.184 218.893 595.184 220.454C595.184 222.015 596.331 223.287 597.737 223.287C599.144 223.287 600.29 222.015 600.29 220.454C600.29 218.893 599.144 217.621 597.737 217.621Z" fill="#152536"/>
<path d="M613.782 210.394C610.605 210.394 608 207.503 608 203.976C608 200.449 610.605 197.558 613.782 197.558C616.96 197.558 619.565 200.449 619.565 203.976C619.565 207.503 616.96 210.394 613.782 210.394ZM613.782 201.143C612.376 201.143 611.23 202.415 611.23 203.976C611.23 205.537 612.376 206.809 613.782 206.809C615.189 206.809 616.335 205.537 616.335 203.976C616.335 202.415 615.189 201.143 613.782 201.143Z" fill="#152536"/>
<path d="M629.776 208.312C626.598 208.312 623.993 205.421 623.993 201.895C623.993 198.368 626.598 195.477 629.776 195.477C632.954 195.477 635.558 198.368 635.558 201.895C635.558 205.421 632.954 208.312 629.776 208.312ZM629.776 199.062C628.369 199.062 627.223 200.334 627.223 201.895C627.223 203.456 628.369 204.728 629.776 204.728C631.182 204.728 632.328 203.456 632.328 201.895C632.38 200.334 631.234 199.062 629.776 199.062Z" fill="#152536"/>
<path d="M564.865 224.443H566.48V268.962H564.865V224.443Z" fill="#152536"/>
<path d="M628.994 206.231H630.609V268.962H628.994V206.231Z" fill="#152536"/>
<path d="M617.826 202.603L625.588 201.603L625.772 203.383L618.01 204.384L617.826 202.603Z" fill="#152536"/>
<path d="M600.211 216.67L610.103 206.491L611.198 207.807L601.307 217.986L600.211 216.67Z" fill="#152536"/>
<path d="M584.757 228.59L593.759 222.217L594.625 223.729L585.623 230.103L584.757 228.59Z" fill="#152536"/>
<path d="M568.694 223.154L569.594 221.667L578.708 228.484L577.808 229.972L568.694 223.154Z" fill="#152536"/>
<path d="M558.578 292.781L557.695 295.556H555.242L559.755 281.68H563.581L568.094 295.556H565.445L564.562 292.781H558.578ZM558.872 291.451H564.072L561.423 283.472L558.872 291.451Z" fill="#152536"/>
<path d="M572.41 295.557H570.056V281.681H573.391L578.885 291.683V281.681H581.24V295.557H578.493L572.509 284.34V295.557H572.41Z" fill="#152536"/>
<path d="M586.439 292.782L585.556 295.557H583.104L587.617 281.681H591.443L595.956 295.557H593.307L592.424 292.782H586.439ZM586.832 291.452H592.031L589.383 283.473L586.832 291.452Z" fill="#152536"/>
<path d="M598.016 295.557V281.681H600.665V294.111H607.434V295.499H598.016V295.557Z" fill="#152536"/>
<path d="M611.456 290.585L606.453 281.681H609.2L612.83 288.503L616.558 281.681H619.01L614.007 290.585V295.557H611.456V290.585V290.585Z" fill="#152536"/>
<path d="M631.175 295.557H620.482V294.169L628.526 283.068H620.874V281.681H631.273V283.068L623.131 294.169H631.175V295.557Z" fill="#152536"/>
<path d="M641.967 287.81V289.197H636.178V294.112H643.242V295.499H633.529V281.623H643.242V283.011H636.178V287.752H641.967V287.81Z" fill="#152536"/>
<path d="M518.083 405.582L523.189 376.963L500.579 351.87L474.792 357.536C472.187 358.114 470.052 360.312 469.374 363.202L456.455 417.897C456.298 418.533 456.455 419.226 456.871 419.689C457.549 420.44 458.591 420.44 459.268 419.689L485.159 390.954C484.013 388.352 484.43 385.057 486.462 382.918C488.806 380.432 492.609 380.432 494.953 382.918C497.506 385.577 497.558 390.029 495.057 392.804C493.13 394.943 490.265 395.348 487.92 394.076L462.029 422.811C461.352 423.563 461.352 424.719 462.029 425.47C462.446 425.933 463.071 426.107 463.644 425.933L512.926 411.595C515.583 410.843 517.562 408.53 518.083 405.582Z" fill="#8C8F98"/>
<path d="M523.605 383.496L494.693 351.408C493.338 349.905 493.338 347.418 494.693 345.915L501.413 338.457C502.767 336.954 505.007 336.954 506.362 338.457L535.275 370.545C536.629 372.048 536.629 374.534 535.275 376.038L528.555 383.496C527.2 385.057 524.96 385.057 523.605 383.496Z" fill="#152536"/>
<path d="M467.356 434.837C471.196 434.837 472.961 436.167 472.961 438.306V445.302C472.961 447.441 471.196 448.713 467.356 448.713H461.543V434.837H467.356ZM467.252 447.325C469.224 447.325 470.159 446.631 470.159 445.359V438.248C470.159 436.976 469.224 436.282 467.148 436.282H464.138V447.325H467.252V447.325Z" fill="#152536"/>
<path d="M484.483 441.022V442.41H478.359V447.324H485.832V448.712H475.556V434.836H485.832V436.224H478.359V440.965H484.483V441.022Z" fill="#152536"/>
<path d="M499.119 438.19V438.595H496.524V438.132C496.524 436.86 495.694 436.167 493.721 436.167C491.749 436.167 490.919 436.918 490.919 438.132C490.919 441.254 499.327 441.543 499.327 445.417C499.327 447.499 497.562 448.886 493.721 448.886C489.881 448.886 488.116 447.499 488.116 445.417V444.608H490.711V445.475C490.711 446.747 491.645 447.441 493.618 447.441C495.59 447.441 496.524 446.689 496.524 445.475C496.524 442.411 488.22 442.064 488.22 438.19C488.22 436.051 489.984 434.721 493.721 434.721C497.354 434.721 499.119 436.109 499.119 438.19Z" fill="#152536"/>
<path d="M504.413 434.836V448.712H501.61V434.836H504.413Z" fill="#152536"/>
<path d="M518.219 438.19V439.404H515.624V438.132C515.624 436.86 514.689 436.108 512.717 436.108C510.745 436.108 509.811 436.86 509.811 438.132V445.475C509.811 446.747 510.745 447.498 512.717 447.498C514.793 447.498 515.624 446.747 515.624 445.475V442.699H513.028V441.312H518.219V445.417C518.219 447.498 516.454 448.886 512.613 448.886C508.773 448.886 507.008 447.498 507.008 445.417V438.248C507.008 436.166 508.773 434.779 512.613 434.779C516.454 434.721 518.219 436.108 518.219 438.19Z" fill="#152536"/>
<path d="M523.305 448.712H520.814V434.836H524.343L530.052 444.838V434.836H532.543V448.712H529.637L523.305 437.496V448.712Z" fill="#152536"/>
<path d="M362.214 441.544V445.359C362.214 447.788 360.443 449.811 358.203 449.811H284.696C282.508 449.811 280.685 447.845 280.685 445.359V442.064C280.685 417.087 298.762 396.447 321.319 396.331C343.929 396.215 362.214 416.509 362.214 441.544Z" fill="#152536"/>
<path d="M321.476 412.751C320.382 412.751 319.444 411.768 319.444 410.496V402.922C319.444 401.708 320.33 400.667 321.476 400.667C322.57 400.667 323.507 401.65 323.507 402.922V410.496C323.507 411.768 322.57 412.751 321.476 412.751Z" fill="white"/>
<path d="M339.813 421.192C339.032 420.325 339.032 418.937 339.813 418.012L344.606 412.693C345.387 411.826 346.638 411.826 347.471 412.693C348.253 413.56 348.253 414.948 347.471 415.873L342.678 421.192C341.845 422.059 340.595 422.059 339.813 421.192Z" fill="white"/>
<path d="M347.419 441.544C347.419 440.329 348.305 439.289 349.451 439.289H356.275C357.369 439.289 358.307 440.272 358.307 441.544C358.307 442.758 357.421 443.798 356.275 443.798H349.451C348.305 443.798 347.419 442.758 347.419 441.544Z" fill="white"/>
<path d="M284.696 441.544C284.696 440.329 285.582 439.289 286.728 439.289H293.553C294.647 439.289 295.584 440.272 295.584 441.544C295.584 442.758 294.699 443.798 293.553 443.798H286.728C285.634 443.798 284.696 442.758 284.696 441.544Z" fill="white"/>
<path d="M295.48 412.693C296.261 411.826 297.512 411.826 298.345 412.693L303.138 418.012C303.92 418.879 303.92 420.267 303.138 421.192C302.357 422.059 301.106 422.059 300.273 421.192L295.48 415.873C294.699 415.006 294.699 413.56 295.48 412.693Z" fill="white"/>
<path d="M321.476 442.873C321.319 442.873 321.163 442.815 321.059 442.758C320.434 442.469 320.121 441.717 320.382 441.023L327.05 422.291C327.31 421.597 327.988 421.25 328.613 421.539C329.238 421.828 329.551 422.58 329.29 423.274L322.622 442.006C322.413 442.584 321.945 442.873 321.476 442.873Z" fill="white"/>
<path d="M326.373 441.543C326.373 442.985 325.857 444.367 324.938 445.386C324.02 446.406 322.774 446.978 321.476 446.978C320.177 446.978 318.931 446.406 318.013 445.386C317.095 444.367 316.579 442.985 316.579 441.543C316.579 440.102 317.095 438.72 318.013 437.701C318.931 436.681 320.177 436.109 321.476 436.109C322.774 436.109 324.02 436.681 324.938 437.701C325.857 438.72 326.373 440.102 326.373 441.543V441.543Z" fill="#8C8F98"/>
<path d="M281.572 472.707V460.276H277.221V458.888H288.593V460.276H284.242V472.707H281.572Z" fill="#152536"/>
<path d="M298.877 464.959V466.346H293.043V471.261H300.163V472.648H290.373V458.772H300.163V460.16H293.043V464.901H298.877V464.959Z" fill="#152536"/>
<path d="M312.919 462.184V462.589H310.447V462.126C310.447 460.854 309.656 460.16 307.777 460.16C305.898 460.16 305.107 460.912 305.107 462.126C305.107 465.248 313.117 465.537 313.117 469.411C313.117 471.492 311.436 472.88 307.777 472.88C304.118 472.88 302.437 471.492 302.437 469.411V468.602H304.909V469.469C304.909 470.741 305.799 471.435 307.678 471.435C309.557 471.435 310.447 470.683 310.447 469.469C310.447 466.405 302.536 466.058 302.536 462.184C302.536 460.045 304.217 458.715 307.777 458.715C311.238 458.715 312.919 460.103 312.919 462.184Z" fill="#152536"/>
<path d="M318.654 472.705V460.275H314.303V458.887H325.675V460.275H321.324V472.705H318.654Z" fill="#152536"/>
<path d="M330.125 458.83V472.706H327.455V458.83H330.125Z" fill="#152536"/>
<path d="M335.268 472.706H332.894V458.83H336.257L341.794 468.832V458.83H344.168V472.706H341.3L335.268 461.489V472.706Z" fill="#152536"/>
<path d="M357.221 462.184V463.398H354.749V462.126C354.749 460.854 353.859 460.102 351.98 460.102C350.101 460.102 349.211 460.854 349.211 462.126V469.468C349.211 470.74 350.101 471.492 351.98 471.492C353.958 471.492 354.749 470.74 354.749 469.468V466.693H352.276V465.306H357.221V469.411C357.221 471.492 355.54 472.88 351.881 472.88C348.222 472.88 346.541 471.492 346.541 469.411V462.241C346.541 460.16 348.222 458.772 351.881 458.772C355.54 458.715 357.221 460.102 357.221 462.184Z" fill="#152536"/>
<path d="M170.243 359.56C169.982 357.421 168.159 355.917 166.232 356.264C164.825 356.553 163.366 355.802 162.637 354.356L160.709 350.598C159.98 349.211 160.136 347.476 161.022 346.204C162.272 344.528 162.012 342.041 160.501 340.712C158.573 339.035 156.49 337.705 154.197 336.665C152.374 335.855 150.29 336.838 149.613 338.862C149.092 340.365 147.79 341.348 146.331 341.348H142.424C140.965 341.348 139.663 340.365 139.142 338.862C138.465 336.838 136.381 335.797 134.558 336.665C132.265 337.705 130.182 339.035 128.254 340.712C126.691 342.041 126.483 344.528 127.733 346.204C128.671 347.476 128.775 349.211 128.046 350.598L126.118 354.356C125.389 355.744 123.982 356.496 122.524 356.264C120.596 355.917 118.773 357.363 118.512 359.56C118.356 360.89 118.252 362.219 118.252 363.607C118.252 364.995 118.356 366.324 118.512 367.654C118.773 369.793 120.596 371.297 122.524 370.95C123.93 370.661 125.389 371.412 126.118 372.858L128.046 376.616C128.775 378.003 128.619 379.738 127.733 381.01C126.483 382.686 126.743 385.173 128.254 386.502C130.182 388.179 132.265 389.509 134.558 390.549C136.381 391.359 138.465 390.376 139.142 388.352C139.663 386.849 140.965 385.866 142.424 385.866H146.331C147.79 385.866 149.092 386.849 149.613 388.352C150.29 390.376 152.374 391.417 154.197 390.549C156.49 389.509 158.573 388.179 160.501 386.502C162.064 385.173 162.272 382.686 161.022 381.01C160.084 379.738 159.98 378.003 160.709 376.616L162.637 372.858C163.366 371.47 164.773 370.718 166.232 370.95C168.159 371.297 169.982 369.851 170.243 367.654C170.399 366.324 170.503 364.995 170.503 363.607C170.503 362.277 170.399 360.89 170.243 359.56ZM144.351 379.333C136.537 379.333 130.234 372.337 130.234 363.665C130.234 354.992 136.537 347.997 144.351 347.997C152.166 347.997 158.469 354.992 158.469 363.665C158.469 372.279 152.166 379.333 144.351 379.333Z" fill="#152536"/>
<path d="M148.807 358.707C149.392 359.357 149.856 360.129 150.172 360.979C150.488 361.828 150.651 362.738 150.651 363.658C150.651 364.577 150.488 365.487 150.172 366.337C149.856 367.186 149.392 367.958 148.807 368.608C148.222 369.258 147.528 369.774 146.764 370.126C146 370.478 145.182 370.659 144.355 370.659C143.528 370.659 142.709 370.478 141.945 370.126C141.181 369.774 140.487 369.258 139.903 368.608C138.722 367.295 138.058 365.514 138.058 363.658C138.058 361.801 138.722 360.02 139.903 358.707C141.083 357.394 142.685 356.657 144.355 356.657C146.025 356.657 147.626 357.394 148.807 358.707V358.707Z" fill="#8C8F98"/>
<path d="M168.94 426.685C170.295 426.453 171.181 425.066 170.972 423.62C170.816 422.522 171.285 421.423 172.17 420.845L174.515 419.342C175.4 418.764 176.494 418.88 177.224 419.573C178.266 420.498 179.828 420.325 180.662 419.169C181.704 417.723 182.537 416.104 183.163 414.312C183.683 412.924 183.058 411.306 181.756 410.785C180.818 410.38 180.193 409.398 180.193 408.299V405.293C180.193 404.194 180.818 403.153 181.756 402.807C183.006 402.286 183.631 400.667 183.163 399.28C182.537 397.545 181.652 395.926 180.662 394.423C179.828 393.267 178.266 393.036 177.224 394.018C176.442 394.712 175.348 394.828 174.515 394.25L172.17 392.746C171.285 392.168 170.816 391.07 170.972 389.971C171.181 388.468 170.295 387.081 168.94 386.907C168.107 386.791 167.273 386.734 166.44 386.734C165.606 386.734 164.721 386.791 163.939 386.907C162.585 387.138 161.699 388.526 161.908 389.971C162.064 391.07 161.595 392.168 160.709 392.746L158.365 394.25C157.479 394.828 156.385 394.712 155.656 394.018C154.614 393.093 153.051 393.267 152.218 394.423C151.176 395.869 150.342 397.487 149.717 399.28C149.196 400.667 149.821 402.286 151.124 402.807C152.062 403.211 152.687 404.194 152.687 405.293V408.299C152.687 409.398 152.062 410.438 151.124 410.785C149.874 411.306 149.248 412.924 149.717 414.312C150.342 416.046 151.228 417.665 152.218 419.169C153.051 420.325 154.614 420.556 155.656 419.573C156.438 418.88 157.532 418.764 158.365 419.342L160.709 420.845C161.595 421.423 162.064 422.522 161.908 423.62C161.699 425.124 162.585 426.511 163.939 426.685C164.773 426.8 165.606 426.858 166.44 426.858C167.273 426.916 168.107 426.858 168.94 426.685ZM156.646 406.854C156.646 400.899 161.022 396.042 166.388 396.042C171.754 396.042 176.13 400.899 176.13 406.854C176.13 412.809 171.754 417.665 166.388 417.665C161.022 417.665 156.646 412.809 156.646 406.854Z" fill="#152536"/>
<path d="M169.481 403.432C170.301 404.343 170.761 405.58 170.761 406.869C170.761 408.158 170.301 409.394 169.481 410.305C168.661 411.217 167.549 411.729 166.39 411.729C165.231 411.729 164.119 411.217 163.299 410.305C162.48 409.394 162.019 408.158 162.019 406.869C162.019 405.58 162.48 404.343 163.299 403.432C164.119 402.521 165.231 402.008 166.39 402.008C167.549 402.008 168.661 402.521 169.481 403.432Z" fill="#8C8F98"/>
<path d="M103.04 435.704C106.225 435.704 107.689 437.034 107.689 439.173V446.169C107.689 448.308 106.225 449.58 103.04 449.58H98.22V435.704H103.04ZM103.04 448.192C104.676 448.192 105.451 447.498 105.451 446.227V439.115C105.451 437.843 104.676 437.149 102.954 437.149H100.458V448.192H103.04V448.192Z" fill="#152536"/>
<path d="M117.244 441.832V443.22H112.165V448.134H118.363V449.522H109.841V435.646H118.363V437.033H112.165V441.774H117.244V441.832Z" fill="#152536"/>
<path d="M122.236 435.703L125.593 447.787L128.95 435.703H131.102L127.229 449.579H123.871L119.998 435.703H122.236Z" fill="#152536"/>
<path d="M140.226 441.832V443.22H135.148V448.134H141.345V449.522H132.824V435.646H141.345V437.033H135.148V441.774H140.226V441.832Z" fill="#152536"/>
<path d="M143.325 439.057C143.325 436.918 144.874 435.588 148.059 435.588C151.244 435.588 152.793 436.976 152.793 439.057V446.227C152.793 448.308 151.244 449.696 148.059 449.696C144.874 449.696 143.325 448.308 143.325 446.227V439.057ZM145.563 446.342C145.563 447.614 146.337 448.366 147.973 448.366C149.694 448.366 150.383 447.614 150.383 446.342V439C150.383 437.728 149.608 436.976 147.973 436.976C146.337 436.976 145.563 437.728 145.563 439V446.342Z" fill="#152536"/>
<path d="M159.421 435.703C162.692 435.703 164.069 436.975 164.069 439.114V440.791C164.069 442.988 162.52 444.144 159.249 444.144H157.183V449.637H154.859V435.761H159.421V435.703ZM159.249 442.757C160.97 442.757 161.745 442.236 161.745 440.907V438.999C161.745 437.727 161.057 437.091 159.421 437.091H157.183V442.699H159.249V442.757Z" fill="#152536"/>
<path d="M173.624 449.579H171.386L167.943 438.536V449.579H165.963V435.703H169.148L172.505 446.804L175.776 435.703H178.961V449.579H176.809V438.421L173.624 449.579Z" fill="#152536"/>
<path d="M188.774 441.832V443.22H183.695V448.134H189.893V449.522H181.371V435.646H189.893V437.033H183.695V441.774H188.774V441.832Z" fill="#152536"/>
<path d="M194.025 449.579H191.959V435.703H194.886L199.706 445.705V435.703H201.772V449.579H199.362L194.111 438.363V449.579H194.025Z" fill="#152536"/>
<path d="M207.109 449.579V437.148H203.321V435.761H213.22V437.148H209.433V449.579H207.109Z" fill="#152536"/>
<path d="M73.9707 279.369H16.4575C9.8414 279.369 4.47559 273.414 4.47559 266.071V202.184C4.47559 194.841 9.8414 188.886 16.4575 188.886H73.9707C80.5868 188.886 85.9526 194.841 85.9526 202.184V266.013C85.9526 273.414 80.5868 279.369 73.9707 279.369Z" fill="#152536"/>
<path d="M17.2367 223.343C17.8098 223.979 18.5912 224.326 19.3727 224.326C20.1541 224.326 20.8834 223.979 21.5086 223.343L25.8325 218.544L30.1564 223.343C30.7294 223.979 31.5109 224.326 32.2923 224.326C33.0737 224.326 33.8031 223.979 34.4282 223.343C35.5743 222.071 35.5743 219.932 34.4282 218.66L30.1043 213.861L34.4282 209.063C35.5743 207.791 35.5743 205.651 34.4282 204.379C33.2821 203.107 31.3546 203.107 30.2085 204.379L25.8846 209.178L21.5607 204.379C20.4146 203.107 18.487 203.107 17.3409 204.379C16.1948 205.651 16.1948 207.791 17.3409 209.063L21.6648 213.861L17.3409 218.66C16.0906 219.932 16.0906 222.071 17.2367 223.343Z" fill="#8C8F98"/>
<path d="M67.7193 255.722L72.0432 250.923C73.1893 249.651 73.1893 247.512 72.0432 246.24C70.8971 244.968 68.9696 244.968 67.8235 246.24L63.4996 251.039L59.1757 246.24C58.0296 244.968 56.102 244.968 54.9559 246.24C53.8099 247.512 53.8099 249.651 54.9559 250.923L59.2799 255.722L54.9559 260.52C53.8099 261.792 53.8099 263.932 54.9559 265.204C55.529 265.84 56.3104 266.186 57.0919 266.186C57.8733 266.186 58.6026 265.84 59.2278 265.204L63.5517 260.405L67.8756 265.204C68.4486 265.84 69.2301 266.186 70.0115 266.186C70.7929 266.186 71.5223 265.84 72.1474 265.204C73.2935 263.932 73.2935 261.792 72.1474 260.52L67.7193 255.722Z" fill="#8C8F98"/>
<path d="M63.4996 224.327C68.7091 224.327 72.9288 219.644 72.9288 213.863C72.9288 208.081 68.7091 203.398 63.4996 203.398C58.29 203.398 54.0703 208.081 54.0703 213.863C54.0703 219.644 58.29 224.327 63.4996 224.327ZM63.4996 210.047C65.375 210.047 66.9379 211.781 66.9379 213.863C66.9379 215.944 65.375 217.679 63.4996 217.679C61.6241 217.679 60.0613 215.944 60.0613 213.863C60.0613 211.781 61.572 210.047 63.4996 210.047Z" fill="white"/>
<path d="M50.4758 231.265C50.4758 231.208 50.4758 231.15 50.4758 231.15C50.4758 231.092 50.4758 231.034 50.4758 230.976C50.4758 230.919 50.4758 230.861 50.4237 230.803C50.4237 230.745 50.4237 230.687 50.3716 230.629C50.3716 230.572 50.3195 230.514 50.3195 230.456C50.3195 230.398 50.2674 230.34 50.2674 230.283C50.2674 230.225 50.2153 230.167 50.2153 230.167C50.2153 230.109 50.1632 230.051 50.1632 229.993C50.1632 229.936 50.1111 229.878 50.1111 229.878C50.059 229.82 50.059 229.762 50.0069 229.704C49.9548 229.647 49.9548 229.589 49.9027 229.589C49.8506 229.531 49.8506 229.531 49.7985 229.473C49.7464 229.415 49.6944 229.3 49.5902 229.242C49.5381 229.184 49.4339 229.126 49.3818 229.011C49.3297 228.953 49.3297 228.953 49.2776 228.895C49.2255 228.837 49.1734 228.837 49.1734 228.779C49.1213 228.721 49.0692 228.721 49.0692 228.721C49.0171 228.721 48.965 228.664 48.965 228.664C48.9129 228.664 48.8608 228.606 48.8608 228.606C48.8087 228.606 48.7566 228.548 48.7045 228.548C48.6524 228.548 48.6003 228.49 48.6003 228.49C48.5482 228.49 48.4962 228.432 48.4441 228.432C48.392 228.432 48.3399 228.432 48.3399 228.375C48.2878 228.375 48.2357 228.317 48.1836 228.317C48.1315 228.317 48.0794 228.317 48.0273 228.317C47.9752 228.317 47.9231 228.317 47.871 228.317C47.8189 228.317 47.7147 228.317 47.6626 228.317H47.6105H34.8993C33.2322 228.317 31.8778 229.82 31.8778 231.67C31.8778 233.52 33.2322 235.023 34.8993 235.023H40.3693L17.239 260.463C16.0929 261.735 16.0929 263.874 17.239 265.146C17.812 265.782 18.5934 266.129 19.3749 266.129C20.1563 266.129 20.8856 265.782 21.5108 265.146L44.5369 239.591V245.662C44.5369 247.512 45.8914 249.015 47.5584 249.015C49.2255 249.015 50.58 247.512 50.58 245.662V231.554C50.4758 231.497 50.4758 231.381 50.4758 231.265Z" fill="white"/>
<path d="M4.97217 288.041C8.53712 288.041 10.0381 289.313 10.0381 291.452V293.129C10.0381 295.326 8.34947 296.482 4.78453 296.482H2.53299V301.975H0V288.099H4.97217V288.041ZM4.78453 295.037C6.66082 295.037 7.50515 294.516 7.50515 293.187V291.337C7.50515 290.065 6.75464 289.429 4.97217 289.429H2.53299V295.037H4.78453Z" fill="#152536"/>
<path d="M12.1023 301.916V288.04H14.6353V300.471H21.1085V301.858H12.1023V301.916Z" fill="#152536"/>
<path d="M25.5174 299.141L24.6731 301.916H22.3278L26.6432 288.04H30.302L34.6174 301.916H32.0844L31.2401 299.141H25.5174ZM25.7989 297.811H30.771L28.238 289.833L25.7989 297.811Z" fill="#152536"/>
<path d="M38.745 301.916H36.4934V288.04H39.6831L44.9367 298.043V288.04H47.1882V301.916H44.5614L38.8388 290.7V301.916H38.745Z" fill="#152536"/>
<path d="M51.8792 301.916H49.6277V288.04H52.8174L58.071 298.043V288.04H60.3225V301.916H57.6957L51.973 290.7V301.916H51.8792Z" fill="#152536"/>
<path d="M65.295 288.04V301.916H62.762V288.04H65.295Z" fill="#152536"/>
<path d="M70.0794 301.916H67.8278V288.04H71.0175L76.2711 298.043V288.04H78.5226V301.916H75.8958L70.1732 290.7V301.916H70.0794Z" fill="#152536"/>
<path d="M91.0001 291.394V292.609H88.6547V291.337C88.6547 290.065 87.8104 289.313 86.028 289.313C84.2455 289.313 83.4012 290.065 83.4012 291.337V298.679C83.4012 299.951 84.2455 300.703 86.028 300.703C87.9042 300.703 88.6547 299.951 88.6547 298.679V295.904H86.3094V294.459H91.0001V298.564C91.0001 300.645 89.4053 302.033 85.9341 302.033C82.463 302.033 80.8682 300.645 80.8682 298.564V291.394C80.8682 289.313 82.463 287.925 85.9341 287.925C89.3114 287.925 91.0001 289.313 91.0001 291.394Z" fill="#152536"/>
<path d="M162.064 28.0409C139.559 28.0409 121.325 48.2767 121.325 73.2533C121.325 98.23 139.559 118.466 162.064 118.466C184.569 118.466 202.802 98.23 202.802 73.2533C202.802 48.2767 184.569 28.0409 162.064 28.0409ZM162.064 112.279C142.216 112.279 126.118 94.4141 126.118 72.3861C126.118 50.3581 142.216 32.4928 162.064 32.4928C181.912 32.4928 198.01 50.3581 198.01 72.3861C198.01 94.4141 181.912 112.279 162.064 112.279Z" fill="#152536"/>
<path d="M199.989 73.2533C199.989 84.4164 195.994 95.1222 188.881 103.016C181.769 110.909 172.122 115.344 162.064 115.344C152.005 115.344 142.359 110.909 135.247 103.016C128.134 95.1222 124.139 84.4164 124.139 73.2533C124.139 62.0903 128.134 51.3845 135.247 43.491C142.359 35.5975 152.005 31.163 162.064 31.163C172.122 31.163 181.769 35.5975 188.881 43.491C195.994 51.3845 199.989 62.0903 199.989 73.2533V73.2533Z" fill="#8C8F98"/>
<path d="M193.894 73.2533C193.894 77.8924 193.071 82.486 191.471 86.7719C189.872 91.0578 187.527 94.9521 184.571 98.2324C181.616 101.513 178.107 104.115 174.245 105.89C170.383 107.665 166.244 108.579 162.064 108.579C153.622 108.579 145.526 104.857 139.557 98.2324C133.587 91.6075 130.234 82.6223 130.234 73.2533C130.234 68.6143 131.057 64.0206 132.657 59.7347C134.256 55.4488 136.601 51.5545 139.557 48.2742C142.512 44.9939 146.021 42.3918 149.883 40.6165C153.745 38.8413 157.884 37.9275 162.064 37.9275C166.244 37.9275 170.383 38.8413 174.245 40.6165C178.107 42.3918 181.616 44.9939 184.571 48.2742C187.527 51.5545 189.872 55.4488 191.471 59.7347C193.071 64.0206 193.894 68.6143 193.894 73.2533V73.2533Z" fill="#152536"/>
<path d="M151.801 94.9923C150.499 94.9923 149.248 94.4719 148.259 93.3734L139.559 83.7181C137.631 81.5789 137.631 78.0521 139.559 75.8551C141.486 73.7159 144.664 73.7159 146.644 75.8551L151.801 81.5789L177.484 53.0754C179.412 50.9362 182.589 50.9362 184.569 53.0754C186.497 55.2146 186.497 58.7414 184.569 60.9385L155.396 93.3156C154.354 94.4719 153.104 94.9923 151.801 94.9923Z" fill="white"/>
<path d="M87.6891 127.42L91.1261 138.787L94.5631 127.42H96.7663L92.8005 140.473H89.3636L85.3978 127.42H87.6891Z" fill="#152536"/>
<path d="M100.115 137.862L99.3222 140.472H97.119L101.173 127.42H104.61L108.664 140.472H106.284L105.491 137.862H100.115ZM100.468 136.611H105.139L102.759 129.106L100.468 136.611Z" fill="#152536"/>
<path d="M110.514 140.472V127.42H112.894V139.113H118.974V140.418H110.514V140.472Z" fill="#152536"/>
<path d="M123.028 127.42V140.472H120.649V127.42H123.028Z" fill="#152536"/>
<path d="M130.343 127.42C133.604 127.42 135.102 128.67 135.102 130.683V137.263C135.102 139.276 133.604 140.472 130.343 140.472H125.408V127.42H130.343ZM130.343 139.167C132.018 139.167 132.811 138.514 132.811 137.318V130.628C132.811 129.432 132.018 128.779 130.255 128.779H127.699V139.167H130.343V139.167Z" fill="#152536"/>
<path d="M139.772 137.862L138.979 140.472H136.776L140.83 127.42H144.267L148.321 140.472H145.941L145.148 137.862H139.772ZM140.037 136.611H144.708L142.328 129.106L140.037 136.611Z" fill="#152536"/>
<path d="M153.168 140.472V128.779H149.291V127.474H159.425V128.779H155.548V140.472H153.168Z" fill="#152536"/>
<path d="M163.39 127.42V140.472H161.099V127.42H163.39Z" fill="#152536"/>
<path d="M165.682 130.575C165.682 128.562 167.269 127.312 170.529 127.312C173.79 127.312 175.377 128.617 175.377 130.575V137.319C175.377 139.276 173.79 140.582 170.529 140.582C167.269 140.582 165.682 139.276 165.682 137.319V130.575ZM167.974 137.427C167.974 138.624 168.767 139.331 170.441 139.331C172.204 139.331 172.909 138.624 172.909 137.427V130.52C172.909 129.324 172.116 128.617 170.441 128.617C168.767 128.617 167.974 129.324 167.974 130.52V137.427Z" fill="#152536"/>
<path d="M179.693 140.472H177.578V127.42H180.575L185.51 136.828V127.42H187.625V140.472H185.157L179.781 129.921V140.472H179.693Z" fill="#152536"/>
<path d="M196.966 137.862L196.173 140.472H193.97L198.024 127.42H201.461L205.515 140.472H203.135L202.342 137.862H196.966ZM197.319 136.611H201.99L199.61 129.106L197.319 136.611Z" fill="#152536"/>
<path d="M209.481 140.472H207.366V127.42H210.362L215.298 136.828V127.42H217.413V140.472H214.857L209.481 129.921V140.472Z" fill="#152536"/>
<path d="M224.639 127.42C227.9 127.42 229.398 128.67 229.398 130.683V137.263C229.398 139.276 227.9 140.472 224.639 140.472H219.704V127.42H224.639ZM224.639 139.167C226.313 139.167 227.106 138.514 227.106 137.318V130.628C227.106 129.432 226.313 128.779 224.551 128.779H221.995V139.167H224.639V139.167Z" fill="#152536"/>
<path d="M100.908 145.15L104.345 156.517L107.782 145.15H109.985L106.02 158.203H102.583L98.6169 145.15H100.908Z" fill="#152536"/>
<path d="M119.327 150.915V152.22H114.127V156.843H120.472V158.148H111.748V145.096H120.472V146.401H114.127V150.861H119.327V150.915Z" fill="#152536"/>
<path d="M127.346 145.15C130.695 145.15 132.017 146.183 132.017 148.141V149.229C132.017 150.643 131.224 151.568 129.373 151.894C131.312 152.275 132.017 153.199 132.017 154.613V156.626C132.017 157.224 132.017 157.768 132.458 158.203H130.078C129.814 157.822 129.726 157.496 129.726 156.626V154.559C129.726 153.09 128.58 152.601 126.641 152.601H124.967V158.148H122.587V145.096H127.346V145.15ZM126.729 151.296C128.58 151.296 129.726 150.915 129.726 149.501V148.25C129.726 147.054 129.021 146.455 127.258 146.455H124.967V151.296H126.729V151.296Z" fill="#152536"/>
<path d="M136.864 145.15V158.203H134.485V145.15H136.864Z" fill="#152536"/>
<path d="M146.558 151.241V152.547H141.711V158.203H139.331V145.15H147.703V146.455H141.622V151.187H146.558V151.241Z" fill="#152536"/>
<path d="M151.934 145.15V158.203H149.555V145.15H151.934Z" fill="#152536"/>
<path d="M163.655 148.305V149.501H161.452V148.25C161.452 147.054 160.658 146.347 158.984 146.347C157.31 146.347 156.516 147.054 156.516 148.25V155.103C156.516 156.299 157.31 157.006 158.984 157.006C160.747 157.006 161.452 156.299 161.452 155.103V153.417H163.655V155.048C163.655 157.006 162.157 158.312 158.896 158.312C155.635 158.312 154.137 157.006 154.137 155.048V148.305C154.137 146.347 155.635 145.041 158.896 145.041C162.157 145.041 163.655 146.347 163.655 148.305Z" fill="#152536"/>
<path d="M168.237 155.538L167.444 158.148H165.241L169.295 145.096H172.732L176.785 158.148H174.406L173.613 155.538H168.237ZM168.501 154.341H173.172L170.793 146.836L168.501 154.341Z" fill="#152536"/>
<path d="M181.633 158.203V146.51H177.755V145.205H187.89V146.51H184.012V158.203H181.633Z" fill="#152536"/>
<path d="M191.856 145.15V158.203H189.477V145.15H191.856Z" fill="#152536"/>
<path d="M194.147 148.305C194.147 146.292 195.733 145.041 198.994 145.041C202.255 145.041 203.841 146.347 203.841 148.305V155.048C203.841 157.006 202.255 158.312 198.994 158.312C195.733 158.312 194.147 157.006 194.147 155.048V148.305ZM196.438 155.103C196.438 156.299 197.232 157.006 198.906 157.006C200.669 157.006 201.374 156.299 201.374 155.103V148.196C201.374 146.999 200.58 146.292 198.906 146.292C197.232 146.292 196.438 146.999 196.438 148.196V155.103Z" fill="#152536"/>
<path d="M208.159 158.203H206.044V145.15H209.041L213.976 154.559V145.15H216.091V158.203H213.623L208.247 147.652V158.203H208.159Z" fill="#152536"/>
<path d="M327.831 126.56C327.831 128.431 327.162 130.225 325.97 131.548C324.778 132.87 323.161 133.614 321.476 133.614C319.79 133.614 318.173 132.87 316.982 131.548C315.79 130.225 315.12 128.431 315.12 126.56C315.12 124.689 315.79 122.895 316.982 121.572C318.173 120.25 319.79 119.506 321.476 119.506C323.161 119.506 324.778 120.25 325.97 121.572C327.162 122.895 327.831 124.689 327.831 126.56Z" fill="#152536"/>
<path d="M168.315 173.507C168.315 175.378 167.646 177.172 166.454 178.495C165.262 179.817 163.645 180.56 161.96 180.56C160.274 180.56 158.657 179.817 157.466 178.495C156.274 177.172 155.604 175.378 155.604 173.507C155.604 171.636 156.274 169.842 157.466 168.519C158.657 167.196 160.274 166.453 161.96 166.453C163.645 166.453 165.262 167.196 166.454 168.519C167.646 169.842 168.315 171.636 168.315 173.507Z" fill="#152536"/>
<path d="M492.609 154.543C492.609 156.414 491.939 158.208 490.747 159.531C489.555 160.854 487.939 161.597 486.253 161.597C484.568 161.597 482.951 160.854 481.759 159.531C480.567 158.208 479.898 156.414 479.898 154.543C479.898 152.672 480.567 150.878 481.759 149.555C482.951 148.233 484.568 147.49 486.253 147.49C487.939 147.49 489.555 148.233 490.747 149.555C491.939 150.878 492.609 152.672 492.609 154.543Z" fill="#152536"/>
<path d="M604.093 308.797C604.093 309.723 603.928 310.641 603.609 311.496C603.29 312.352 602.821 313.13 602.231 313.785C601.641 314.44 600.94 314.959 600.169 315.314C599.398 315.668 598.572 315.851 597.737 315.851C596.052 315.851 594.435 315.108 593.243 313.785C592.051 312.462 591.382 310.668 591.382 308.797C591.382 306.926 592.051 305.132 593.243 303.809C594.435 302.487 596.052 301.744 597.737 301.744C598.572 301.744 599.398 301.926 600.169 302.28C600.94 302.635 601.641 303.154 602.231 303.809C602.821 304.464 603.29 305.242 603.609 306.098C603.928 306.954 604.093 307.871 604.093 308.797Z" fill="#152536"/>
<path d="M502.715 461.953C502.715 462.879 502.551 463.796 502.231 464.652C501.912 465.508 501.444 466.285 500.854 466.94C500.263 467.595 499.563 468.115 498.792 468.469C498.021 468.824 497.194 469.006 496.359 469.006C494.674 469.006 493.057 468.263 491.865 466.94C490.673 465.618 490.004 463.823 490.004 461.953C490.004 460.082 490.673 458.288 491.865 456.965C493.057 455.642 494.674 454.899 496.359 454.899C497.194 454.899 498.021 455.082 498.792 455.436C499.563 455.791 500.263 456.31 500.854 456.965C501.444 457.62 501.912 458.398 502.231 459.253C502.551 460.109 502.715 461.026 502.715 461.953Z" fill="#152536"/>
<path d="M327.831 485.946C327.831 487.817 327.162 489.611 325.97 490.934C324.778 492.257 323.161 493 321.476 493C319.79 493 318.173 492.257 316.982 490.934C315.79 489.611 315.12 487.817 315.12 485.946C315.12 484.076 315.79 482.282 316.982 480.959C318.173 479.636 319.79 478.893 321.476 478.893C323.161 478.893 324.778 479.636 325.97 480.959C327.162 482.282 327.831 484.076 327.831 485.946Z" fill="#152536"/>
<path d="M157.375 462.82C157.375 464.691 156.706 466.485 155.514 467.808C154.322 469.13 152.705 469.874 151.02 469.874C149.334 469.874 147.718 469.13 146.526 467.808C145.334 466.485 144.664 464.691 144.664 462.82C144.664 460.949 145.334 459.155 146.526 457.832C147.718 456.509 149.334 455.766 151.02 455.766C152.705 455.766 154.322 456.509 155.514 457.832C156.706 459.155 157.375 460.949 157.375 462.82Z" fill="#152536"/>
<path d="M51.5698 315.157C51.5698 316.083 51.4054 317 51.086 317.856C50.7666 318.712 50.2984 319.49 49.7083 320.144C49.1181 320.799 48.4174 321.319 47.6463 321.673C46.8752 322.028 46.0488 322.21 45.2141 322.21C43.5285 322.21 41.9119 321.467 40.72 320.144C39.5281 318.822 38.8585 317.028 38.8585 315.157C38.8585 313.286 39.5281 311.492 40.72 310.169C41.9119 308.846 43.5285 308.103 45.2141 308.103C46.0488 308.103 46.8752 308.286 47.6463 308.64C48.4174 308.995 49.1181 309.514 49.7083 310.169C50.2984 310.824 50.7666 311.602 51.086 312.458C51.4054 313.313 51.5698 314.231 51.5698 315.157Z" fill="#152536"/>
<path d="M321.091 160C320.205 160 319.476 159.635 319.476 159.192V129.808C319.476 129.365 320.205 129 321.091 129C321.976 129 322.706 129.365 322.706 129.808V159.192C322.706 159.635 321.976 160 321.091 160Z" fill="#152536"/>
<path d="M218.796 222.824H161.96C161.074 222.824 160.345 222.015 160.345 221.032V173.565C160.345 172.582 161.074 171.772 161.96 171.772C162.845 171.772 163.575 172.582 163.575 173.565V219.24H218.796C219.681 219.24 220.411 220.049 220.411 221.032C220.411 222.015 219.681 222.824 218.796 222.824Z" fill="#152536"/>
<path d="M198.791 316.949H45.2141C44.3285 316.949 43.5992 316.14 43.5992 315.157C43.5992 314.174 44.3285 313.365 45.2141 313.365H198.791C199.677 313.365 200.406 314.174 200.406 315.157C200.406 316.14 199.677 316.949 198.791 316.949Z" fill="#152536"/>
<path d="M241.666 464.612H151.02C150.134 464.612 149.405 463.803 149.405 462.82C149.405 461.837 150.134 461.028 151.02 461.028H240.051V322.153C240.051 321.17 240.78 320.36 241.666 320.36C242.551 320.36 243.281 321.17 243.281 322.153V462.82C243.281 463.803 242.551 464.612 241.666 464.612Z" fill="#152536"/>
<path d="M373.05 487.739H321.476C320.59 487.739 319.861 486.929 319.861 485.946C319.861 484.964 320.59 484.154 321.476 484.154H371.435V322.153C371.435 321.17 372.164 320.36 373.05 320.36C373.936 320.36 374.665 321.17 374.665 322.153V485.946C374.665 486.929 373.936 487.739 373.05 487.739Z" fill="#152536"/>
<path d="M496.36 463.745H403.109C402.223 463.745 401.494 462.936 401.494 461.953V322.153C401.494 321.17 402.223 320.36 403.109 320.36C403.995 320.36 404.724 321.17 404.724 322.153V460.16H496.36C497.245 460.16 497.975 460.97 497.975 461.953C497.975 462.936 497.245 463.745 496.36 463.745Z" fill="#152536"/>
<path d="M597.737 310.589H442.754C441.868 310.589 441.139 309.78 441.139 308.797C441.139 307.814 441.868 307.005 442.754 307.005H597.737C598.623 307.005 599.352 307.814 599.352 308.797C599.352 309.78 598.623 310.589 597.737 310.589Z" fill="#152536"/>
<path d="M486.253 227.218H422.072C421.186 227.218 420.457 226.409 420.457 225.426C420.457 224.443 421.186 223.634 422.072 223.634H484.638V154.543C484.638 153.56 485.367 152.751 486.253 152.751C487.139 152.751 487.868 153.56 487.868 154.543V225.426C487.868 226.409 487.139 227.218 486.253 227.218Z" fill="#152536"/>
<path d="M330.946 309.5C330.801 310.741 330.118 311.931 328.967 312.852C327.658 313.899 325.864 314.5 323.976 314.5H319.976C318.087 314.5 316.293 313.899 314.985 312.852C313.833 311.931 313.15 310.741 313.005 309.5H330.946Z" fill="#152536" stroke="white"/>
<path d="M330.908 304.5H313.043C312.753 304.5 312.479 304.39 312.28 304.199C312.082 304.01 311.976 303.758 311.976 303.5C311.976 303.242 312.082 302.99 312.28 302.801C312.479 302.61 312.753 302.5 313.043 302.5H330.908C331.198 302.5 331.472 302.61 331.671 302.801C331.869 302.99 331.976 303.242 331.976 303.5C331.976 303.758 331.869 304.01 331.671 304.199C331.472 304.39 331.198 304.5 330.908 304.5Z" fill="#152536" stroke="white"/>
<path d="M335.852 297.5H308.099C307.789 297.5 307.498 297.386 307.29 297.193C307.084 297.002 306.976 296.752 306.976 296.5C306.976 296.248 307.084 295.998 307.29 295.807C307.498 295.614 307.789 295.5 308.099 295.5H335.852C336.163 295.5 336.453 295.614 336.661 295.807C336.868 295.998 336.976 296.248 336.976 296.5C336.976 296.752 336.868 297.002 336.661 297.193C336.453 297.386 336.163 297.5 335.852 297.5Z" fill="#152536" stroke="white"/>
<path d="M280.869 218C280.481 218 280.106 217.89 279.814 217.688L266.026 208.216C265.867 208.107 265.737 207.974 265.643 207.826C265.549 207.677 265.494 207.515 265.479 207.35C265.465 207.184 265.492 207.018 265.559 206.86C265.627 206.703 265.733 206.558 265.872 206.433C266.01 206.308 266.179 206.205 266.368 206.131C266.557 206.058 266.763 206.014 266.973 206.003C267.184 205.992 267.395 206.013 267.595 206.066C267.795 206.12 267.979 206.203 268.138 206.312L281.926 215.785C282.172 215.954 282.347 216.178 282.427 216.427C282.507 216.677 282.488 216.94 282.373 217.18C282.258 217.421 282.053 217.629 281.784 217.775C281.515 217.922 281.196 218 280.87 218H280.869Z" fill="#152536"/>
<path d="M320.976 202C320.578 202 320.196 201.873 319.915 201.647C319.634 201.421 319.476 201.115 319.476 200.796V180.204C319.476 179.885 319.634 179.579 319.915 179.353C320.196 179.127 320.578 179 320.976 179C321.373 179 321.755 179.127 322.036 179.353C322.318 179.579 322.476 179.885 322.476 180.204V200.796C322.476 201.115 322.318 201.421 322.036 201.647C321.755 201.873 321.373 202 320.976 202Z" fill="#152536"/>
<path d="M363.082 218C362.755 218 362.436 217.922 362.167 217.775C361.898 217.629 361.693 217.421 361.578 217.18C361.463 216.939 361.444 216.677 361.524 216.427C361.604 216.178 361.779 215.953 362.025 215.784L375.815 206.311C376.136 206.091 376.555 205.98 376.979 206.003C377.404 206.026 377.8 206.18 378.08 206.433C378.359 206.685 378.501 207.014 378.472 207.349C378.443 207.683 378.247 207.994 377.927 208.215L364.137 217.688C363.845 217.89 363.47 218 363.082 218Z" fill="#152536"/>
<path d="M335.818 291C335.691 291 335.564 290.98 335.446 290.942C335.329 290.904 335.221 290.848 335.131 290.777C335.041 290.707 334.969 290.623 334.921 290.53C334.872 290.438 334.847 290.339 334.847 290.239V284.82C334.847 278.45 342.871 272.504 348.73 268.162C349.216 267.801 349.689 267.451 350.143 267.111C358.248 261.044 362.532 252.802 362.532 243.275C362.532 225.469 344.718 211.522 321.975 211.522C321.937 211.522 321.899 211.522 321.861 211.522C311.158 211.531 300.896 214.858 293.317 220.775C285.739 226.691 281.461 234.717 281.419 243.096V243.273C281.419 252.604 285.933 261.29 293.803 267.107C294.202 267.402 294.616 267.706 295.041 268.017C300.976 272.368 309.104 278.326 309.104 284.82V290.239C309.104 290.441 309.002 290.635 308.82 290.777C308.637 290.92 308.39 291 308.133 291C307.875 291 307.628 290.92 307.446 290.777C307.263 290.635 307.161 290.441 307.161 290.239V284.82C307.161 278.985 299.389 273.288 293.713 269.128C293.286 268.815 292.87 268.51 292.469 268.214C284.212 262.11 279.476 253.021 279.476 243.275V243.093C279.541 224.827 298.544 210 321.858 210C321.899 210 321.937 210 321.978 210C327.567 209.978 333.107 210.823 338.276 212.487C343.445 214.151 348.142 216.601 352.094 219.696C356.046 222.79 359.175 226.467 361.3 230.515C363.425 234.562 364.504 238.899 364.475 243.275C364.475 253.227 359.983 261.85 351.486 268.21C351.03 268.552 350.554 268.904 350.066 269.266C344.463 273.418 336.79 279.105 336.79 284.82V290.239C336.79 290.339 336.765 290.438 336.716 290.53C336.667 290.623 336.595 290.707 336.505 290.777C336.415 290.848 336.308 290.904 336.19 290.942C336.072 290.98 335.946 291 335.818 291Z" fill="white"/>
<path d="M335.809 291V285.545C335.809 278.955 344.899 272.72 350.795 268.273C359.107 262.007 363.476 253.589 363.476 243.727C363.476 235.063 359.119 226.753 351.361 220.618C343.603 214.483 333.077 211.024 322.091 211C311.104 210.976 300.554 214.388 292.753 220.489C284.952 226.59 280.537 234.881 280.476 243.545C280.476 243.606 280.476 243.667 280.476 243.727C280.476 253.236 285.032 262.225 293.156 268.273C299.021 272.639 308.142 278.886 308.142 285.545V291" fill="#152536"/>
</svg>
