<svg width="48" height="133" viewBox="0 0 48 133" fill="none" xmlns="http://www.w3.org/2000/svg">
<path opacity="0.1" d="M25.9288 22.7969C26.2861 23.508 26.8288 24.133 27.5119 24.6198C27.9516 24.9106 28.4609 25.1068 29 25.193C28.0712 25.6722 27.0581 26.0293 26.1293 26.5085C24.6684 27.3827 23.2594 28.3236 21.9077 29.3275C20.5255 30.3168 18.8333 30.901 17.0633 31C17.6845 30.2546 18.074 29.3766 18.1926 28.4544C18.3111 27.5323 18.1546 26.5986 17.7388 25.7474C17.3588 25.1896 17.1076 24.5698 17 23.9245C17 22.8627 18.0554 22.0452 19.0369 21.4814C19.8285 21.0022 20.6411 20.5418 21.4644 20.0813C22.1082 19.7243 23.0791 18.9726 23.8918 19.0008C24.7045 19.029 24.7994 19.6679 24.9472 20.3256C25.1562 21.1829 25.4861 22.0132 25.9288 22.7969V22.7969Z" fill="black"/>
<path d="M11.1764 28.7871C9.70198 30.1852 9.45876 32.3995 9.30676 34.4173L9.07876 37.3722C8.99639 38.168 8.97859 38.9691 9.02555 39.7678C9.02555 40.259 9.14713 40.7578 9.19273 41.2793C9.23833 41.8007 9.25356 42.4582 9.26116 43.0552V47.4233C9.18914 48.3247 9.3569 49.2292 9.74758 50.0457C9.95614 50.4406 10.306 50.7435 10.728 50.8946C11.1501 51.0457 11.6138 51.034 12.0276 50.8619C12.4998 50.5 12.8326 49.9877 12.9701 49.4109C13.7113 47.6387 14.2221 45.7797 14.4901 43.879C14.5509 43.2215 14.5585 42.564 14.6193 41.9065C14.6801 41.249 14.7941 40.5613 14.8929 39.8963C15.3185 37.1152 15.5085 34.3039 15.6985 31.5001C15.7517 30.6688 16.5041 27.3966 15.4097 27.0338C14.8777 26.86 13.7757 27.4041 13.2665 27.5855C12.4955 27.8419 11.7846 28.2507 11.1764 28.7871V28.7871Z" fill="#BE6F72"/>
<path opacity="0.1" d="M12.001 19C11.3245 20.1579 10.9786 21.4792 11.001 22.82C11.0035 23.3498 11.0878 23.876 11.251 24.38C11.5241 25.087 11.9525 25.7237 12.5047 26.243C13.0568 26.7622 13.7186 27.1508 14.441 27.38" stroke="black" stroke-miterlimit="10"/>
<path d="M42.3808 33.3269C41.5941 31.6281 40.7872 29.9343 39.96 28.2457C39.2785 26.598 38.2771 25.0681 37.0011 23.7249C36.5164 23.2415 35.9261 22.8498 35.2657 22.5735C34.5391 22.3365 33.7749 22.2018 33.0011 22.1744C31.8213 22.0428 30.6297 22.0145 29.4436 22.09C28.9837 21.9672 28.4631 21.806 27.9511 21.6218C30.5185 21.0251 32.8014 19.7147 34.4635 17.8838C36.1256 16.0529 37.079 13.7982 37.1833 11.4518C37.1833 11.2983 37.1833 11.1371 37.1833 10.9836C37.1902 9.54727 36.8772 8.1238 36.2621 6.79448C35.6471 5.46515 34.742 4.25602 33.5987 3.23609C32.4554 2.21617 31.0961 1.4054 29.5986 0.850158C28.1011 0.294912 26.4946 0.00605474 24.8709 1.97146e-05C22.5851 -0.00385267 20.3445 0.562815 18.4066 1.6349C15.8474 1.12136 13.167 1.3905 10.8031 2.39842C8.43916 3.40633 6.53137 5.09344 5.39126 7.18425C3.95396 8.40045 2.81833 9.8678 2.05651 11.4931C1.29469 13.1184 0.923361 14.866 0.966077 16.6251C0.966077 16.7862 0.966077 16.9551 0.966077 17.1086C1.19168 23.0725 5.54746 27.8543 11.0486 28.3378C10.4606 28.5716 9.92097 28.8906 9.45203 29.2819C7.76872 30.7172 7.49109 32.9969 7.30887 35.0692L7.1787 36.6043L4.26328 37.5253C4.17052 37.5546 4.08861 37.6058 4.0265 37.6734C3.96438 37.741 3.92447 37.8224 3.91105 37.9087C3.89762 37.995 3.91123 38.0829 3.95039 38.1628C3.98956 38.2428 4.05273 38.3117 4.1331 38.362L6.9184 40.1197C6.9184 40.2655 6.9184 40.4113 6.9184 40.5572C6.9184 40.703 6.9184 40.8872 6.97046 41.0561C6.49469 41.4267 6.12583 41.8925 5.89454 42.4146C5.6233 43.2203 5.53775 44.066 5.64293 44.9015L5.74704 47.0429C5.73338 48.6548 5.98174 50.2601 6.48456 51.8094C6.84899 52.7612 8.42817 55.0561 9.56484 55.0715C8.51494 59.293 8.2373 68.1965 8.2373 68.1965C8.10715 68.3117 8.47158 68.4191 9.10499 68.5112C9.72973 72.7481 11.7688 84.6297 15.387 89.8567C15.9565 91.561 16.4114 93.2935 16.7493 95.0453C16.7493 95.0453 17.7819 106.336 19.1441 109.69C20.3068 112.545 21.2266 119.591 21.4782 121.633C21.2424 121.687 21.0278 121.797 20.8579 121.951C20.688 122.106 20.5694 122.298 20.5151 122.508C19.8296 124.335 15.387 127.113 15.387 127.113C14.0253 127.715 12.7397 128.443 11.5519 129.286C10.1549 130.399 10.2069 131.404 16.4109 130.775C28.385 129.554 30.4327 126.169 30.4327 126.169C30.4327 126.169 30.2418 125.601 29.9555 124.865C29.5898 123.718 29.0622 122.617 28.385 121.587C28.2114 121.441 28.0379 121.687 27.8297 122.071C26.9262 117.173 26.6525 112.201 27.014 107.249C27.014 107.249 27.3525 102.061 25.6431 98.3995C25.2626 96.4825 25.2626 94.5215 25.6431 92.6045C26.3286 90.1637 22.9099 78.2591 22.9099 78.2591L20.9489 69.4937C21.2162 69.7929 21.4031 70.142 21.4955 70.5145L21.5476 70.6911L21.5997 70.9444C21.6192 71.0338 21.6675 71.1164 21.7385 71.1823C23.0748 76.0946 26.7364 89.7032 26.7364 91.6988C26.7364 94.1396 30.1551 100.242 30.1551 100.242C30.1551 100.242 31.5173 110.312 33.9122 114.272C35.7343 117.289 35.7777 121.71 35.6909 123.659C35.6909 123.659 35.2831 126.169 34.5977 126.776C34.0528 127.375 33.6165 128.046 33.3048 128.764L33.2267 128.909C33.2267 128.909 32.2028 130.744 32.8883 131.051C35.4956 131.956 38.3172 132.27 41.0966 131.964C41.0966 131.964 42.4676 130.429 42.4676 129.831C42.4391 129.465 42.3869 129.101 42.3114 128.741C42.0597 127.298 41.5912 125.026 41.5825 125.003C41.8689 124.02 40.7148 121.288 40.7148 121.288L40.3677 112.745C41.003 106.961 40.1852 101.124 37.9729 95.6517C37.9729 95.6517 36.2376 90.1637 36.6107 88.6363C36.9838 87.1089 35.9252 70.9367 35.9252 70.9367L35.8211 70.7064C35.7285 69.5625 35.7634 68.4133 35.9252 67.2755C36.2636 63.6143 34.9013 55.9849 34.5542 55.6855C34.2712 54.8656 34.1079 54.0169 34.0683 53.1603C34.1464 52.5232 34.3807 50.6581 34.7018 48.3401C38.0753 48.2381 41.4407 47.9819 44.7843 47.5726C45.1074 47.5726 45.418 47.4626 45.652 47.2655C45.7891 47.0813 45.8587 46.8642 45.8515 46.6438C46.2507 42.0462 44.3504 37.5791 42.3808 33.3269ZM35.5 43.0056C35.8558 40.8181 36.2375 38.6997 36.6193 37.1263L36.6714 37.2644C37.3283 38.8461 37.8788 40.4607 38.32 42.0999C37.4091 42.4685 36.4661 42.7714 35.5 43.0056Z" fill="url(#paint0_linear_104_49)"/>
<path d="M33.2571 38.3082C37.5891 38.3082 41.101 35.2017 41.101 31.3696C41.101 27.5375 37.5891 24.431 33.2571 24.431C28.925 24.431 25.4132 27.5375 25.4132 31.3696C25.4132 35.2017 28.925 38.3082 33.2571 38.3082Z" fill="#BE6F72"/>
<path d="M6.12447 39.4289L13.1701 43.8423C13.2594 43.9003 13.3673 43.9315 13.4781 43.9315C13.5889 43.9315 13.6968 43.9003 13.7861 43.8423L15.695 42.5758C15.7537 42.5311 15.8009 42.4758 15.8332 42.4135C15.8655 42.3513 15.8821 42.2836 15.8821 42.2151C15.8821 42.1466 15.8655 42.0788 15.8332 42.0166C15.8009 41.9543 15.7537 41.899 15.695 41.8543L10.272 37.5944C10.2017 37.5378 10.1152 37.4993 10.0219 37.483C9.92856 37.4668 9.83204 37.4735 9.74272 37.5023L6.26328 38.6076C6.17178 38.6355 6.09066 38.6851 6.02878 38.7509C5.9669 38.8167 5.92663 38.8963 5.91232 38.981C5.89801 39.0656 5.91019 39.1522 5.94759 39.2311C5.98499 39.3101 6.0462 39.3785 6.12447 39.4289V39.4289Z" fill="#3F3D56"/>
<path d="M10.0551 67.7129C10.0551 67.7129 12.1028 84.0079 16.5367 90.3402C17.1064 92.0236 17.5612 93.7358 17.8989 95.4674C17.8989 95.4674 18.9228 106.628 20.2851 109.943C21.6473 113.259 22.6712 122.316 22.6712 122.316C22.6712 122.316 27.4435 127.136 29.1529 123.222C28.0793 118.05 27.7354 112.78 28.129 107.533C28.129 107.533 28.4674 102.406 26.7667 98.7832C26.3863 96.8894 26.3863 94.9511 26.7667 93.0573C27.4435 90.6396 24.0335 78.8807 24.0335 78.8807L21.309 67.1143L10.0551 67.7129Z" fill="#BE6F72"/>
<path d="M31.539 126.238C31.539 126.238 29.4913 129.554 17.5606 130.759C11.3653 131.381 11.3219 130.391 12.7189 129.286C13.9029 128.453 15.1826 127.733 16.5367 127.136C16.5367 127.136 20.9705 124.427 21.6473 122.616C22.3241 120.804 24.719 122.316 24.719 122.316C28.129 126.837 28.8145 121.104 29.4913 121.71C30.1706 122.722 30.6985 123.809 31.0618 124.941C31.3481 125.67 31.539 126.238 31.539 126.238Z" fill="#FF6F61"/>
<path opacity="0.1" d="M31.539 126.238C31.539 126.238 29.4913 129.554 17.5606 130.759C11.3653 131.381 11.3219 130.391 12.7189 129.286C13.6907 129.831 15.6516 130.053 19.5996 128.649C25.283 126.592 29.4045 125.402 31.0618 124.941C31.3481 125.67 31.539 126.238 31.539 126.238Z" fill="black"/>
<path opacity="0.1" d="M28.1291 107.533C28.1291 107.533 28.4675 102.406 26.7668 98.7832C26.3864 96.8894 26.3864 94.9511 26.7668 93.0573C27.4436 90.6396 24.0336 78.8807 24.0336 78.8807L21.3091 67.1143L18.949 67.237L21.6475 78.8807C21.6475 78.8807 25.0575 90.6396 24.3807 93.0573C24.0003 94.9511 24.0003 96.8894 24.3807 98.7832C26.1161 102.406 25.743 107.533 25.743 107.533C25.3494 112.78 25.6933 118.05 26.7668 123.222C26.5821 123.713 26.2381 124.146 25.7777 124.465C27.0445 124.972 28.3807 124.949 29.153 123.222C28.0795 118.05 27.7356 112.78 28.1291 107.533V107.533Z" fill="black"/>
<path d="M25.9077 1.50436C23.6325 1.5002 21.4017 2.06139 19.4694 3.12392C16.9181 2.60276 14.2425 2.86161 11.8789 3.85825C9.51526 4.85489 7.60302 6.53049 6.45411 8.61185C5.02297 9.80918 3.89076 11.258 3.13016 12.8654C2.36956 14.4728 1.99742 16.2031 2.03761 17.9452C2.03761 24.3619 6.9227 29.5582 12.9444 29.5582C17.2829 29.5582 21.0834 26.8257 22.8274 22.8729C23.8297 23.1077 24.8622 23.2264 25.899 23.2259C29.1553 23.2259 32.2782 22.0817 34.5807 20.0449C36.8832 18.0081 38.1768 15.2456 38.1768 12.3652C38.1768 9.4847 36.8832 6.72222 34.5807 4.68543C32.2782 2.64864 29.1553 1.50436 25.899 1.50436H25.9077Z" fill="#3F3D56"/>
<path d="M35.9728 69.225L36.9967 71.6351C36.9967 71.6351 38.0206 87.6231 37.6735 89.1352C37.3265 90.6473 39.0445 96.0431 39.0445 96.0431C41.2495 101.445 42.0647 107.214 41.4306 112.929L41.769 121.372C41.769 121.372 43.1313 124.688 42.4545 125.294C41.7777 125.901 36.6323 124.757 36.6323 124.757C36.6323 124.757 37.3178 118.425 34.8969 114.503C32.4761 110.58 31.1485 100.625 31.1485 100.625C31.1485 100.625 27.7385 94.5924 27.7385 92.1823C27.7385 89.7722 22.2808 70.1614 22.2808 70.1614L35.9728 69.225Z" fill="#BE6F72"/>
<path d="M9.36962 68.9257C9.36962 68.9257 9.71669 58.0649 11.105 54.7491C11.8114 53.1997 12.3207 51.5856 12.6234 49.9366C12.6234 49.9366 33.2657 53.237 34.9751 52.032C34.9751 52.032 35.3135 56.2535 35.6605 56.5528C36.0076 56.8522 37.3959 64.3972 37.0228 68.02C36.6497 71.6428 37.0228 71.6351 37.0228 71.6351C37.0228 71.6351 23.0357 73.4465 22.6973 71.6351C22.3589 69.8237 21.335 69.8314 21.335 69.8314C21.335 69.8314 8.69282 69.4937 9.36962 68.9257Z" fill="#3F3D56"/>
<g opacity="0.1">
<path opacity="0.1" d="M20.6236 68.9257C20.6236 68.9257 11.9987 68.7184 9.39567 68.304C9.39567 68.6954 9.39567 68.9257 9.39567 68.9257C8.71888 69.5244 21.3351 69.8314 21.3351 69.8314C21.5067 69.8452 21.6698 69.904 21.8036 70.0002C21.3437 68.9256 20.6236 68.9257 20.6236 68.9257Z" fill="black"/>
<path opacity="0.1" d="M35.6345 56.5528C35.2874 56.2535 34.9491 52.032 34.9491 52.032C34.7723 52.1292 34.5741 52.192 34.3677 52.2162C34.4892 53.4903 34.7235 55.4476 34.9491 55.6471C35.1747 55.8467 36.6844 63.4915 36.3113 67.1143C35.9382 70.7371 36.3113 70.7294 36.3113 70.7294C36.3113 70.7294 25.2483 72.1647 22.5671 71.2053C22.5671 71.3358 22.6452 71.4816 22.6713 71.6351C23.0097 73.4465 36.9968 71.6351 36.9968 71.6351C36.9968 71.6351 36.6497 71.6351 36.9968 68.02C37.3439 64.4048 35.9729 56.8599 35.6345 56.5528Z" fill="black"/>
</g>
<path d="M43.4697 129.854C43.4697 130.46 42.1074 131.964 42.1074 131.964C39.3373 132.265 36.5261 131.954 33.9252 131.059C33.2397 130.759 34.2636 128.948 34.2636 128.948L34.3416 128.802C34.6543 128.092 35.0905 127.429 35.6345 126.837C36.3113 126.238 36.7191 123.767 36.7191 123.767C38.8362 120.697 42.5933 125.095 42.5933 125.095C42.5933 125.095 43.0706 127.397 43.3222 128.794C43.409 129.293 43.4697 129.7 43.4697 129.854Z" fill="#FF6F61"/>
<path opacity="0.1" d="M43.4697 129.854C43.4697 130.46 42.1074 131.964 42.1074 131.964C39.3373 132.265 36.5261 131.954 33.9252 131.059C33.2397 130.759 34.2636 128.948 34.2636 128.948L34.3416 128.802C36.6651 129.757 39.2082 130.219 41.769 130.153L43.3222 128.779C43.409 129.293 43.4697 129.7 43.4697 129.854Z" fill="black"/>
<path d="M16.7016 23.6711C20.9379 23.6711 24.372 20.6333 24.372 16.886C24.372 13.1387 20.9379 10.1009 16.7016 10.1009C12.4654 10.1009 9.03125 13.1387 9.03125 16.886C9.03125 20.6333 12.4654 23.6711 16.7016 23.6711Z" fill="#BE6F72"/>
<path opacity="0.1" d="M10.515 30.4562C8.8317 31.8762 8.55402 34.1251 8.38049 36.1745L8.12019 39.1755C8.02615 39.9838 8.00583 40.7975 8.05945 41.6086C8.05945 42.1076 8.19825 42.6141 8.25031 43.1437C8.30237 43.6733 8.31975 44.3411 8.32843 44.9475V49.3839C8.24621 50.2994 8.43773 51.218 8.88376 52.0473C9.12187 52.4484 9.52125 52.756 10.0031 52.9094C10.485 53.0629 11.0143 53.051 11.4868 52.8762C12.0259 52.5087 12.4058 51.9884 12.5627 51.4026C13.4091 49.6027 13.9922 47.7146 14.2981 45.7841C14.3675 45.1163 14.3762 44.4486 14.4456 43.7808C14.515 43.1131 14.6452 42.4146 14.758 41.7392C15.2439 38.9146 15.4608 36.0593 15.6777 33.2117C15.7385 32.3674 16.5975 29.0439 15.348 28.6755C14.7406 28.499 13.4825 29.0516 12.9012 29.2358C12.021 29.4963 11.2093 29.9114 10.515 30.4562V30.4562Z" fill="black"/>
<path d="M26.4197 21.261C26.4197 21.261 20.6236 25.1832 17.2136 26.0889C17.2136 26.0889 15.1919 28.1306 14.8448 28.6218C14.4977 29.113 13.8036 34.5319 13.1094 35.7446C12.4153 36.9574 10.7233 39.6668 13.1094 42.3762C13.1094 42.3762 13.7862 45.0933 13.4478 45.999C13.1094 46.9048 11.8686 50.2206 12.9966 50.3741C14.1246 50.5276 17.5433 52.6306 20.6062 52.032C23.6692 51.4333 35.1053 54.3346 35.1053 54.3346C35.1053 54.3346 36.9968 38.7918 38.3678 36.0439L35.2962 35.1382C35.2962 35.1382 26.7755 30.6174 31.8862 23.6788C31.8775 23.6788 27.0878 22.7731 26.4197 21.261Z" fill="#FF6F61"/>
<path d="M7.62551 52.7228C7.12751 51.1935 6.87912 49.6091 6.88794 48.0177L6.78382 45.8916C6.67906 45.0662 6.76469 44.2307 7.03549 43.4354C7.30293 42.89 7.70396 42.404 8.20965 42.0124C8.71534 41.6208 9.31306 41.3335 9.95959 41.1712C11.2549 40.8531 12.6089 40.767 13.9422 40.9179C14.1221 40.9184 14.2987 40.9607 14.4542 41.0407C14.5903 41.1521 14.6868 41.2961 14.7319 41.4552C14.9291 41.7955 15.0447 42.1682 15.0716 42.5499C15.0985 42.9316 15.036 43.314 14.888 43.6734C14.6866 43.9659 14.4139 44.215 14.0898 44.4026C13.144 45.0012 12.042 45.4004 11.1483 46.0528C10.9667 46.1614 10.8274 46.3168 10.7492 46.4979C10.706 46.6569 10.706 46.8226 10.7492 46.9815C10.8601 47.4039 11.0111 47.8173 11.2004 48.2173C11.277 48.4183 11.4116 48.5982 11.5908 48.7392C11.7557 48.862 11.9726 48.9081 12.1462 49.0232C12.5193 49.2918 13.3002 49.6449 13.2568 50.0671C13.1266 51.6021 12.0854 53.3214 11.6776 54.8412C10.8967 57.8116 8.12877 54.0199 7.62551 52.7228Z" fill="#BE6F72"/>
<path d="M32.7387 34.994C32.8025 35.297 32.9344 35.5857 33.1267 35.8428C33.319 36.0999 33.5677 36.3202 33.858 36.4907C34.5822 37.0277 35.2475 37.6239 35.845 38.2714C36.7024 39.3381 37.367 40.5163 37.8147 41.7638C38.4658 43.3256 39.0133 44.9197 39.4545 46.5379C35.1161 48.3186 30.1876 48.2342 25.5715 49.4085C23.5841 49.8721 21.7815 50.8155 20.3654 52.1333C19.6594 52.7958 19.1228 53.5849 18.7919 54.4471C18.461 55.3092 18.3437 56.2243 18.4479 57.1301C18.4546 57.2358 18.4903 57.3386 18.552 57.4294C18.6273 57.5046 18.7214 57.5632 18.8269 57.6005C18.9323 57.6378 19.0462 57.6528 19.1594 57.6443C20.3126 57.6428 21.4327 57.3027 22.3438 56.6772C23.2442 56.0547 24.0622 55.344 24.782 54.5588C25.2289 54.044 25.8301 53.6504 26.5173 53.4228C29.025 52.7474 31.7235 52.7857 34.3265 52.7474C38.2199 52.68 42.1053 52.4084 45.9622 51.9338C46.103 51.9486 46.2457 51.9349 46.3797 51.8939C46.5136 51.8528 46.6353 51.7854 46.7355 51.6968C46.8358 51.6081 46.912 51.5005 46.9584 51.382C47.0048 51.2635 47.0202 51.1372 47.0034 51.0127C47.3852 46.4842 45.485 42.0631 43.5327 37.8646C42.7518 36.1811 41.9477 34.5053 41.1205 32.8372C40.4394 31.2073 39.4409 29.6954 38.1704 28.3701C37.688 27.8883 37.0968 27.5013 36.435 27.2341C35.6884 26.9958 34.9031 26.8662 34.1096 26.8503C32.8468 26.6997 31.5686 26.6791 30.3005 26.7889C30.0982 27.3542 29.9758 27.9394 29.936 28.5313C30.0055 30.6036 31.0293 32.5455 32.0358 34.4183C32.166 34.7023 32.5391 34.7177 32.7387 34.994Z" fill="#BE6F72"/>
<path d="M23.1832 10.2544C22.7558 10.2531 22.331 10.3127 21.925 10.4309C20.7883 8.89583 18.1158 7.83661 14.9835 7.83661C10.8359 7.83661 7.47803 9.73246 7.47803 12.0658C7.47803 14.3991 10.8359 16.2873 14.9835 16.2873C16.5365 16.3022 18.0742 16.014 19.4868 15.443C19.8046 16.0245 20.2926 16.52 20.9002 16.8781C21.5078 17.2362 22.2128 17.4438 22.9418 17.4792C23.6708 17.5147 24.3972 17.3768 25.0455 17.0798C25.6939 16.7828 26.2404 16.3376 26.6284 15.7904C27.0163 15.2433 27.2315 14.6142 27.2515 13.9686C27.2715 13.323 27.0956 12.6845 26.7422 12.1194C26.3887 11.5543 25.8706 11.0832 25.2416 10.7552C24.6127 10.4273 23.8959 10.2543 23.1658 10.2544H23.1832Z" fill="#3F3D56"/>
<path opacity="0.1" d="M23.5216 16.5867C22.7523 16.5868 21.9986 16.3945 21.3476 16.0319C20.6966 15.6692 20.1749 15.1511 19.8426 14.5373C18.43 15.1083 16.8923 15.3966 15.3393 15.3816C11.2004 15.3816 7.84248 13.4935 7.84248 11.1601C7.82924 11.0196 7.82924 10.8784 7.84248 10.738C7.5956 11.1467 7.46458 11.6024 7.46069 12.0658C7.46069 14.3685 10.8187 16.2873 14.9662 16.2873C16.5192 16.3023 18.0568 16.014 19.4695 15.443C19.8432 16.1284 20.4518 16.6919 21.2087 17.0534C21.9656 17.4149 22.8321 17.556 23.6849 17.4565C24.5376 17.357 25.3332 17.022 25.9582 16.4992C26.5832 15.9765 27.0059 15.2926 27.1659 14.545C26.8358 15.1532 26.3191 15.6671 25.6747 16.0281C25.0304 16.3891 24.2843 16.5827 23.5216 16.5867Z" fill="black"/>
<path opacity="0.1" d="M6.46281 10.3926C7.61173 8.31125 9.52392 6.6356 11.8876 5.63897C14.2512 4.64233 16.9268 4.38348 19.4781 4.90463C21.2634 3.92956 23.3015 3.3758 25.3978 3.29622C27.494 3.21664 29.5783 3.61393 31.4515 4.45012C33.3246 5.28631 34.924 6.53343 36.0969 8.07236C37.2698 9.61129 37.977 11.3906 38.1508 13.2402C38.1508 12.9409 38.1508 12.6415 38.1508 12.3345C38.1461 10.4041 37.5594 8.5097 36.4512 6.84669C35.343 5.18368 33.7535 3.81225 31.8464 2.87375C29.9394 1.93526 27.7839 1.46366 25.6022 1.50764C23.4205 1.55162 21.2915 2.1096 19.4348 3.12397C16.8835 2.60281 14.2078 2.86166 11.8442 3.8583C9.48054 4.85494 7.56835 6.53054 6.41944 8.6119C4.9883 9.80923 3.85609 11.2581 3.09549 12.8654C2.3349 14.4728 1.96275 16.2032 2.00294 17.9453C2.00294 18.2523 2.00294 18.5517 2.00294 18.851C2.1733 15.6222 3.77576 12.583 6.46281 10.3926Z" fill="black"/>
<path d="M23.1847 19.1133C23.5122 19.8837 24.0097 20.5607 24.6359 21.0881C25.0389 21.4032 25.5058 21.6157 26 21.7091C25.1486 22.2282 24.2199 22.6151 23.3685 23.1342C22.0294 24.0813 20.7377 25.1006 19.4987 26.1881C18.2317 27.2599 16.6805 27.8928 15.058 28C15.6274 27.1924 15.9845 26.2413 16.0932 25.2423C16.2019 24.2433 16.0584 23.2318 15.6772 22.3097C15.3289 21.7054 15.0987 21.034 15 20.3349C15 19.1846 15.9675 18.299 16.8672 17.6882C17.5928 17.1691 18.3377 16.6702 19.0923 16.1714C19.6825 15.7846 20.5725 14.9703 21.3175 15.0008C22.0624 15.0314 22.1495 15.7236 22.2849 16.4361C22.4766 17.3648 22.7789 18.2643 23.1847 19.1133V19.1133Z" fill="#BE6F72"/>
<defs>
<linearGradient id="paint0_linear_104_49" x1="23.4131" y1="132.11" x2="23.4131" y2="1.57488e-05" gradientUnits="userSpaceOnUse">
<stop stop-color="#808080" stop-opacity="0.25"/>
<stop offset="0.54" stop-color="#808080" stop-opacity="0.12"/>
<stop offset="1" stop-color="#808080" stop-opacity="0.1"/>
</linearGradient>
</defs>
</svg>
